<svg xmlns="http://www.w3.org/2000/svg" viewBox="0 0 81.11 46.52"><defs><style>.cls-1{fill:#fff;}</style></defs><title>Recurso 2</title><g id="Capa_2" data-name="Capa 2"><g id="Capa_1-2" data-name="Capa 1"><path class="cls-1" d="M42.86,25.33c-.38.25-.8.49-1.18.79a3.88,3.88,0,0,0-1.25,5.08,4,4,0,0,0,2,1.72l.42.17a20,20,0,0,1-2.37,5.32,16.81,16.81,0,0,1-10.22,7.18,28.66,28.66,0,0,1-7.38.93c-.33,0-.43-.11-.43-.44,0-2.76,0-5.51,0-8.27,0-.37.13-.45.46-.46a15.14,15.14,0,0,0,5.2-1,10.06,10.06,0,0,0,6-6.9,22.46,22.46,0,0,0,.75-7.83,18.19,18.19,0,0,0-1.21-5.79A9.9,9.9,0,0,0,25.7,9.57a20.25,20.25,0,0,0-3.31-.27c-2.79,0-5.57,0-8.36,0-.62,0-.62,0-.62.64,0,2.77,0,5.54,0,8.32a.87.87,0,0,1-.3.73q-4.2,3.51-8.38,7l-.2.13V.62c0-.61,0-.61.59-.61,5.82,0,11.63,0,17.44,0a26.8,26.8,0,0,1,10.21,1.8,16.74,16.74,0,0,1,9.7,10.5,31.11,31.11,0,0,1,1.38,6.26,1.2,1.2,0,0,1-.74,1.5,2.63,2.63,0,0,0-1.17,3.48A15.72,15.72,0,0,0,42.86,25.33Z"/><path class="cls-1" d="M42.64,6.67H80.48c.62,0,.62,0,.62.63,0,2.65,0,5.31,0,8,0,.39-.08.53-.51.53q-17,0-34,0a.66.66,0,0,1-.75-.61,25.43,25.43,0,0,0-1.69-5.55C43.68,8.66,43.16,7.71,42.64,6.67Z"/><path class="cls-1" d="M48.65,32a9.87,9.87,0,0,0,.78.93,1.09,1.09,0,0,0,.63.3c.75,0,1.51,0,2.27,0,.12,0,.25,0,.46,0a3.84,3.84,0,0,0-.27-.4c-.69-.84-1.37-1.68-2.08-2.5a.46.46,0,0,1,0-.68,11.21,11.21,0,0,0,1.2-3.25c-.84,0-1.58,0-2.33,0-.1,0-.22.21-.28.34-.16.41-.3.82-.49,1.33l-1.77-2.33.28-.23a13.33,13.33,0,0,0,1.24-1A2.87,2.87,0,0,0,47.61,20l-.39-.22h1.19c6.32,0,12.64,0,19,0,.44,0,.58.1.57.56,0,2.61,0,5.22,0,7.83,0,.69,0,.69-.67.69H55.16c-.72,0-.72,0-.73.74q0,7.74,0,15.48c0,.47-.13.56-.57.56-2.4,0-4.81,0-7.21,0-.39,0-.54-.07-.54-.51,0-3.83,0-7.65,0-11.48a.52.52,0,0,1,.42-.58C47.23,32.79,47.9,32.4,48.65,32Z"/><path class="cls-1" d="M46.87,30.13a3.21,3.21,0,0,1-2.72.95,1.78,1.78,0,0,1-1.37-2.43,2.74,2.74,0,0,1,1.33-1.49.54.54,0,0,1,.4.07,1.62,1.62,0,0,1,.29.34Z"/><path class="cls-1" d="M45.43,21.55c.76,0,1.24.4,1.23,1a1.16,1.16,0,0,1-1,1.12,1.3,1.3,0,0,1-1.3-1.29C44.32,21.87,44.73,21.55,45.43,21.55Z"/><path class="cls-1" d="M10.64,29.54c0-.7,0-1.4,0-2.09,0-.31.11-.39.36-.18s.44.32.63.5.45.18.64-.13a15.38,15.38,0,0,1,4.78-4.95,15.62,15.62,0,0,1,12.59-2.17c.7.17.59.24.88-.46.05-.12.06-.3.2-.33s.21.17.29.28L33,22.62c.19.26.2.39-.15.48l-3.51,1c-.1,0-.21.09-.29,0s0-.19,0-.29c.09-.33.46-.7.28-1s-.61-.31-.93-.45A7.5,7.5,0,0,0,24.87,22a13.81,13.81,0,0,0-9.16,4.31,15.71,15.71,0,0,0-1.88,2.48c-.22.35-.2.57.15.79.17.11.45.2.4.42s-.32.18-.5.25c-.94.35-1.89.68-2.83,1-.36.14-.49.06-.47-.33s0-1,0-1.46Z"/><path class="cls-1" d="M4.61,43.68H8.47c.63,0,.63,0,.63.61s0,1,0,1.47-.09.5-.47.5H.45c-.32,0-.46-.11-.45-.44,0-.55,0-1.1,0-1.65,0-.16,0-.32.2-.4A13.86,13.86,0,0,0,3.6,41.43,17,17,0,0,0,6.18,39a2.06,2.06,0,0,0,.51-1.52A1.55,1.55,0,0,0,5.61,36a2.82,2.82,0,0,0-3.07.52.83.83,0,0,1-.63.25H.31C0,36.76,0,36.65,0,36.4a3.37,3.37,0,0,1,1.63-2.28,6.09,6.09,0,0,1,5.57-.2,3.34,3.34,0,0,1,2,3.7,5.91,5.91,0,0,1-1.71,3.49,15.54,15.54,0,0,1-2.95,2.47Z"/><path class="cls-1" d="M19.59,39.81c0-2,0-4,0-6,0-.36-.11-.51-.48-.49-.58,0-1.16,0-1.74,0a1,1,0,0,0-.91.42q-2.79,3.3-5.62,6.59a1.34,1.34,0,0,0-.34.93,13.53,13.53,0,0,1,0,1.56c0,.46.15.57.59.57,1.75,0,3.49,0,5.24,0,.36,0,.51.11.5.48,0,.61,0,1.22,0,1.82,0,.45.15.57.57.55a15,15,0,0,1,1.64,0c.47,0,.57-.15.57-.59C19.58,43.72,19.59,41.76,19.59,39.81Zm-3.14,1c-.86,0-1.72,0-2.57,0-.17,0-.4,0-.2-.26,1-1.23,2-2.44,3-3.66l.14,0V38.4c0,.66,0,1.33,0,2C16.83,40.67,16.79,40.85,16.45,40.84Z"/></g></g></svg>