<svg xmlns="http://www.w3.org/2000/svg" xmlns:xlink="http://www.w3.org/1999/xlink" viewBox="0 0 569.85 388.46"><defs><style>.cls-1{isolation:isolate;}.cls-2{fill:#394cd8;}.cls-3{fill:#e27d7d;}.cls-4{fill:url(#linear-gradient);}.cls-5{fill:url(#linear-gradient-2);}.cls-6{fill:url(#linear-gradient-3);}.cls-7{fill:#1c1c7f;}.cls-8{fill:url(#linear-gradient-4);}.cls-9{fill:#31319b;}.cls-10{fill:#d87979;}.cls-11{fill:#01bbec;}.cls-12,.cls-17,.cls-39,.cls-40,.cls-41,.cls-42,.cls-44,.cls-45,.cls-46,.cls-47,.cls-49,.cls-50,.cls-51,.cls-52,.cls-53,.cls-56,.cls-57,.cls-58{fill:none;}.cls-12,.cls-44,.cls-45,.cls-53{stroke:#01bbec;}.cls-12,.cls-39,.cls-40,.cls-41,.cls-42,.cls-44,.cls-45,.cls-47,.cls-49,.cls-50,.cls-51,.cls-53,.cls-54,.cls-55,.cls-56,.cls-57,.cls-58{stroke-miterlimit:10;}.cls-12{stroke-width:1.04px;}.cls-13,.cls-54,.cls-55{fill:#fff;}.cls-14{fill:#e3edf7;}.cls-15{fill:#a6dfff;}.cls-16{fill:#cd5d62;}.cls-17,.cls-39,.cls-40,.cls-41,.cls-42,.cls-46,.cls-47,.cls-51,.cls-52,.cls-57,.cls-58{stroke:#fff;}.cls-17,.cls-39,.cls-40,.cls-41,.cls-42,.cls-45,.cls-46,.cls-47,.cls-50,.cls-52,.cls-56,.cls-57,.cls-58{stroke-linecap:round;}.cls-17,.cls-46,.cls-52{stroke-linejoin:round;}.cls-17{stroke-width:2.34px;}.cls-18{fill:#2f7fc1;}.cls-19{fill:#8cc2f9;}.cls-20{fill:#b3ddff;}.cls-21{fill:url(#linear-gradient-5);}.cls-22{fill:url(#linear-gradient-6);}.cls-23{fill:url(#linear-gradient-7);}.cls-24{fill:url(#linear-gradient-8);}.cls-25{fill:url(#linear-gradient-9);}.cls-26{fill:url(#linear-gradient-10);}.cls-27{fill:url(#linear-gradient-11);}.cls-28{fill:url(#linear-gradient-12);}.cls-29{fill:url(#linear-gradient-13);}.cls-30{opacity:0.37;fill:url(#linear-gradient-14);}.cls-31{fill:#3a89d8;}.cls-32{fill:#5699e8;}.cls-33{fill:url(#linear-gradient-15);}.cls-34{opacity:0.15;mix-blend-mode:difference;fill:url(#linear-gradient-16);}.cls-35{fill:url(#linear-gradient-17);}.cls-36{fill:url(#linear-gradient-18);}.cls-37{fill:#a4eeff;}.cls-38{fill:#bbc1f7;opacity:0.25;}.cls-39,.cls-40,.cls-41,.cls-42{stroke-width:1.06px;}.cls-40{stroke-dasharray:4.16 4.16;}.cls-41{stroke-dasharray:4.19 4.19;}.cls-42{stroke-dasharray:4.36 4.36;}.cls-43{fill:#ebf4ff;}.cls-44{stroke-width:0.95px;}.cls-45{stroke-width:1.53px;}.cls-46,.cls-47{stroke-width:1.63px;}.cls-47{stroke-dasharray:4.63;}.cls-48{fill:#71b8ff;}.cls-49,.cls-50{stroke:#cd5d62;}.cls-49,.cls-50,.cls-51,.cls-52{stroke-width:2px;}.cls-53{stroke-width:3px;}.cls-54,.cls-55{stroke:#a6dfff;}.cls-54{stroke-width:2.86px;}.cls-55{stroke-width:3.63px;}.cls-56{stroke:#7c94ac;}.cls-56,.cls-58{stroke-width:2.47px;}.cls-57{stroke-width:1.24px;}</style><linearGradient id="linear-gradient" x1="281.22" y1="133.11" x2="281.22" y2="156.5" gradientUnits="userSpaceOnUse"><stop offset="0" stop-color="#f78988"/><stop offset="1" stop-color="#f7a6a4"/></linearGradient><linearGradient id="linear-gradient-2" x1="280.26" y1="66.27" x2="280.26" y2="127.91" xlink:href="#linear-gradient"/><linearGradient id="linear-gradient-3" x1="280.26" y1="68.26" x2="280.26" y2="97.83" gradientUnits="userSpaceOnUse"><stop offset="0" stop-color="#1e1e45"/><stop offset="1" stop-color="#1e1e5e"/></linearGradient><linearGradient id="linear-gradient-4" x1="274.44" y1="116.42" x2="294.56" y2="116.42" xlink:href="#linear-gradient-3"/><linearGradient id="linear-gradient-5" x1="168.78" y1="318.96" x2="242.23" y2="318.96" xlink:href="#linear-gradient"/><linearGradient id="linear-gradient-6" x1="178.93" y1="332.81" x2="195.87" y2="332.81" xlink:href="#linear-gradient"/><linearGradient id="linear-gradient-7" x1="202.53" y1="330.36" x2="216.39" y2="330.36" xlink:href="#linear-gradient"/><linearGradient id="linear-gradient-8" x1="190.19" y1="332.81" x2="205.76" y2="332.81" xlink:href="#linear-gradient"/><linearGradient id="linear-gradient-9" x1="332.13" y1="318.95" x2="391.73" y2="318.95" xlink:href="#linear-gradient"/><linearGradient id="linear-gradient-10" x1="364.64" y1="332.81" x2="381.58" y2="332.81" xlink:href="#linear-gradient"/><linearGradient id="linear-gradient-11" x1="344.12" y1="330.36" x2="357.98" y2="330.36" xlink:href="#linear-gradient"/><linearGradient id="linear-gradient-12" x1="354.75" y1="332.81" x2="370.32" y2="332.81" xlink:href="#linear-gradient"/><linearGradient id="linear-gradient-13" x1="328.67" y1="328.27" x2="345.24" y2="328.27" xlink:href="#linear-gradient"/><linearGradient id="linear-gradient-14" x1="280.26" y1="205.51" x2="280.26" y2="26.24" gradientUnits="userSpaceOnUse"><stop offset="0" stop-color="aqua"/><stop offset="1" stop-color="aqua" stop-opacity="0"/></linearGradient><linearGradient id="linear-gradient-15" x1="280.26" y1="177.43" x2="280.26" y2="332.7" gradientUnits="userSpaceOnUse"><stop offset="0" stop-color="#2e47bc"/><stop offset="1" stop-color="#2e7cbc"/></linearGradient><linearGradient id="linear-gradient-16" x1="280.26" y1="262.73" x2="280.26" y2="302.98" gradientUnits="userSpaceOnUse"><stop offset="0" stop-color="#2e5bbc"/><stop offset="1" stop-color="#2e7cbc"/></linearGradient><linearGradient id="linear-gradient-17" x1="280.26" y1="289.95" x2="280.26" y2="363.51" xlink:href="#linear-gradient-16"/><linearGradient id="linear-gradient-18" x1="280.26" y1="177.43" x2="280.26" y2="332.7" gradientUnits="userSpaceOnUse"><stop offset="0" stop-color="#2e47bc"/><stop offset="0.99" stop-color="#2e7cbc"/></linearGradient></defs><title>Recurso 4</title><g class="cls-1"><g id="Capa_2" data-name="Capa 2"><g id="Capa_1-2" data-name="Capa 1"><path class="cls-2" d="M385.84,182.25C367.66,142.31,301.19,148,301.19,148l-20.93-.28-20.94.28s-66.47-5.67-84.65,34.27,20.57,104.62,20.57,104.62h170S404,222.19,385.84,182.25Z"/><path class="cls-3" d="M246.48,76.46s-6.07-6.37-11.46-1,.51,28.14,11.46,22.37Z"/><path class="cls-3" d="M314,76.46s6.07-6.37,11.46-1S325,103.56,314,97.79Z"/><path class="cls-4" d="M300.36,127.6l-19.14,4-19.14-4s.14,15.09-9.1,20.15c0,0,7.53,11,28.24,11s28.24-11,28.24-11C300.22,142.69,300.36,127.6,300.36,127.6Z"/><path class="cls-5" d="M318.29,88.88c-.55,18.53-6.69,41.65-33.11,45.26a36.1,36.1,0,0,1-9.85,0c-26.42-3.61-32.56-26.73-33.11-45.26a108.2,108.2,0,0,1,2-23.76l0-.16c2.47-31.34,36-33.32,36-33.32s33.56,2,36,33.32c0,0,0,.05,0,.16A109.19,109.19,0,0,1,318.29,88.88Z"/><path class="cls-6" d="M324.42,61.89h0l-44.16,2.6-44.16-2.6h0s-13.15,36,44.16,36h0C337.57,97.89,324.42,61.89,324.42,61.89Z"/><path class="cls-7" d="M280.26,15.82c-49.32,0-44.17,46.07-44.17,46.07,24.11,9.21,44.17,8.4,44.17,8.4s20.05.81,44.16-8.4C324.42,61.89,329.57,15.82,280.26,15.82Z"/><path class="cls-8" d="M274.44,118.83s11.95,2.59,20.12-6.7C294.56,112.13,289.76,125.54,274.44,118.83Z"/><path class="cls-9" d="M257.5,68a61.06,61.06,0,0,1-1.14-15.39,53.94,53.94,0,0,1,2.89-15.23,40.9,40.9,0,0,1,3.35-7,31.88,31.88,0,0,1,4.72-6.19,34.21,34.21,0,0,1,12.94-8.34,41.35,41.35,0,0,0-6.65,3.84l-.79.55-.74.59c-.49.41-1,.8-1.48,1.21-.92.88-1.87,1.73-2.7,2.7a38,38,0,0,0-7.68,13,56.58,56.58,0,0,0-3.07,14.93,67.62,67.62,0,0,0-.2,7.67A68,68,0,0,0,257.5,68Z"/><path class="cls-9" d="M303,68a68,68,0,0,0,.56-7.67,70,70,0,0,0-.21-7.67,56.58,56.58,0,0,0-3.07-14.93,38,38,0,0,0-7.68-13c-.83-1-1.78-1.82-2.7-2.7-.48-.41-1-.8-1.48-1.21l-.74-.59-.79-.55a41.69,41.69,0,0,0-6.64-3.84,34.25,34.25,0,0,1,12.93,8.34,31.88,31.88,0,0,1,4.72,6.19,40.9,40.9,0,0,1,3.35,7,54.31,54.31,0,0,1,2.9,15.23A61.53,61.53,0,0,1,303,68Z"/><path class="cls-2" d="M284.25,15.67h0l-.68-1.22h0c-.32-.57-1.68-1-3.31-1s-3,.44-3.32,1h0l-.68,1.22h0a.67.67,0,0,0-.08.3c0,.85,1.82,1.54,4.08,1.54s4.07-.69,4.07-1.54A.67.67,0,0,0,284.25,15.67Z"/><path class="cls-10" d="M276.23,101.62a20.17,20.17,0,0,0,5,.81,11.37,11.37,0,0,0,2.37-.22c.83-.12,1.64-.4,2.62-.59a5.37,5.37,0,0,1-2.09,2,5.82,5.82,0,0,1-2.91.73,6.27,6.27,0,0,1-2.9-.74A5.15,5.15,0,0,1,276.23,101.62Z"/><path class="cls-11" d="M545.26,318.23h-530a1.38,1.38,0,0,1-1.37-1.37h0a1.37,1.37,0,0,1,1.37-1.37h530a1.37,1.37,0,0,1,1.37,1.37h0A1.37,1.37,0,0,1,545.26,318.23Z"/><rect class="cls-12" x="397.78" y="63.01" width="134.66" height="87.8" rx="2.4"/><path class="cls-11" d="M532.44,73H397.78V64.33A1.32,1.32,0,0,1,399.1,63h132l1.32,1.32Z"/><circle class="cls-13" cx="525.26" cy="68.01" r="2.39"/><circle class="cls-13" cx="514.07" cy="68.01" r="2.39"/><circle class="cls-13" cx="502.88" cy="68.01" r="2.39"/><path class="cls-14" d="M482.23,130.18H448.12a1.59,1.59,0,0,1-1.59-1.59h0a1.59,1.59,0,0,1,1.59-1.59h34.11a1.59,1.59,0,0,1,1.59,1.59h0A1.59,1.59,0,0,1,482.23,130.18Z"/><path class="cls-14" d="M482.23,136.36H448a1.59,1.59,0,0,1-1.59-1.59h0a1.59,1.59,0,0,1,1.59-1.59h34.24a1.59,1.59,0,0,1,1.59,1.59h0A1.59,1.59,0,0,1,482.23,136.36Z"/><path class="cls-14" d="M477.73,98.13h-.16v-6a12.37,12.37,0,0,0-24.73,0v6h-.19a2.14,2.14,0,0,0-2.14,2.14v16.78a2.14,2.14,0,0,0,2.14,2.14h25.08a2.14,2.14,0,0,0,2.13-2.14V100.27A2.13,2.13,0,0,0,477.73,98.13Zm-21.06-6a8.54,8.54,0,0,1,17.07,0v6H456.67ZM467,108.5l1,5.09a.67.67,0,0,1-.66.81h-4.3a.67.67,0,0,1-.66-.81l1-5a1.39,1.39,0,0,0-.41-1.26,3,3,0,1,1,4.36-.05A1.42,1.42,0,0,0,467,108.5Z"/><rect class="cls-13" x="54.93" y="39.85" width="96.86" height="66.01" rx="5.94"/><path class="cls-15" d="M60.16,101.09c3.33-3.29,6.77-6.45,10.21-9.62s6.93-6.26,10.44-9.32,7.07-6.1,10.6-9.15l10.73-9,1.22-1,1.21,1,10.73,9c3.54,3,7.11,6,10.6,9.14s7,6.19,10.45,9.33,6.87,6.33,10.2,9.62c-3.87-2.64-7.63-5.41-11.39-8.17s-7.47-5.61-11.15-8.48-7.34-5.77-11-8.65L102.14,67h2.43L93.7,75.78c-3.66,2.89-7.29,5.83-11,8.66s-7.41,5.67-11.15,8.47S64,98.45,60.16,101.09Z"/><polyline class="cls-13" points="61.78 43.96 103.36 78.23 144.93 43.96"/><path class="cls-15" d="M61.78,44c3.73,2.53,7.36,5.19,11,7.84S80,57.19,83.51,60s7.07,5.54,10.6,8.32l10.46,8.48h-2.43l10.46-8.49c3.53-2.77,7-5.6,10.6-8.32s7.14-5.45,10.74-8.14,7.26-5.31,11-7.84c-3.19,3.18-6.5,6.23-9.8,9.29s-6.66,6-10,9-6.79,5.87-10.19,8.81L104.57,79.7l-1.21,1-1.22-1L91.82,71.05c-3.4-2.94-6.84-5.82-10.2-8.81s-6.71-6-10-9S65,47.14,61.78,44Z"/><circle class="cls-16" cx="132.02" cy="40.03" r="9.86" transform="translate(62.73 159.32) rotate(-76.72)"/><polyline class="cls-17" points="126.44 39.3 130.83 44.38 137.64 36.82"/><rect class="cls-18" x="106.51" y="351.24" width="347.48" height="9.81" rx="2.67"/><polygon class="cls-19" points="452.51 351.43 108.07 351.43 151.43 329.37 409.14 329.37 452.51 351.43"/><polygon class="cls-20" points="397.91 333.67 385.97 333.67 381.05 330.42 392.44 330.42 397.91 333.67"/><polygon class="cls-20" points="412.8 333.67 400.86 333.67 395.24 330.42 406.63 330.42 412.8 333.67"/><polygon class="cls-20" points="159.72 333.67 147.77 333.67 153.94 330.42 165.33 330.42 159.72 333.67"/><polygon class="cls-20" points="174.6 333.67 162.66 333.67 168.14 330.42 179.52 330.42 174.6 333.67"/><polygon class="cls-20" points="189.49 333.67 177.55 333.67 182.33 330.42 193.72 330.42 189.49 333.67"/><polygon class="cls-20" points="204.38 333.67 192.44 333.67 196.53 330.42 207.91 330.42 204.38 333.67"/><polygon class="cls-20" points="219.26 333.67 207.32 333.67 210.72 330.42 222.11 330.42 219.26 333.67"/><polygon class="cls-20" points="234.15 333.67 222.21 333.67 224.91 330.42 236.3 330.42 234.15 333.67"/><polygon class="cls-20" points="249.04 333.67 237.1 333.67 239.11 330.42 250.49 330.42 249.04 333.67"/><polygon class="cls-20" points="263.93 333.67 251.98 333.67 253.3 330.42 264.69 330.42 263.93 333.67"/><polygon class="cls-20" points="278.81 333.67 266.87 333.67 267.5 330.42 278.88 330.42 278.81 333.67"/><polygon class="cls-20" points="293.7 333.67 281.76 333.67 281.69 330.42 293.08 330.42 293.7 333.67"/><polygon class="cls-20" points="308.59 333.67 296.65 333.67 295.88 330.42 307.27 330.42 308.59 333.67"/><polygon class="cls-20" points="323.48 333.67 311.53 333.67 310.08 330.42 321.46 330.42 323.48 333.67"/><polygon class="cls-20" points="338.36 333.67 326.42 333.67 324.27 330.42 335.66 330.42 338.36 333.67"/><polygon class="cls-20" points="353.25 333.67 341.31 333.67 338.47 330.42 349.85 330.42 353.25 333.67"/><polygon class="cls-20" points="368.14 333.67 356.19 333.67 352.66 330.42 364.05 330.42 368.14 333.67"/><polygon class="cls-20" points="383.02 333.67 371.08 333.67 366.86 330.42 378.24 330.42 383.02 333.67"/><polygon class="cls-20" points="405.6 338.23 392.87 338.23 387.31 334.55 399.4 334.55 405.6 338.23"/><polygon class="cls-20" points="421.45 338.23 408.73 338.23 402.38 334.55 414.47 334.55 421.45 338.23"/><polygon class="cls-20" points="151.84 338.23 139.12 338.23 146.1 334.55 158.19 334.55 151.84 338.23"/><polygon class="cls-20" points="167.7 338.23 154.98 338.23 161.17 334.55 173.27 334.55 167.7 338.23"/><polygon class="cls-20" points="183.56 338.23 170.84 338.23 176.25 334.55 188.34 334.55 183.56 338.23"/><polygon class="cls-20" points="199.42 338.23 186.7 338.23 191.32 334.55 203.42 334.55 199.42 338.23"/><polygon class="cls-20" points="215.28 338.23 202.56 338.23 206.4 334.55 218.49 334.55 215.28 338.23"/><polygon class="cls-20" points="231.14 338.23 218.42 338.23 221.48 334.55 233.57 334.55 231.14 338.23"/><polygon class="cls-20" points="247 338.23 234.28 338.23 236.55 334.55 248.65 334.55 247 338.23"/><polygon class="cls-20" points="262.86 338.23 250.13 338.23 251.63 334.55 263.72 334.55 262.86 338.23"/><polygon class="cls-20" points="278.72 338.23 266 338.23 266.7 334.55 278.8 334.55 278.72 338.23"/><polygon class="cls-20" points="294.58 338.23 281.86 338.23 281.78 334.55 293.87 334.55 294.58 338.23"/><polygon class="cls-20" points="310.44 338.23 297.71 338.23 296.85 334.55 308.95 334.55 310.44 338.23"/><polygon class="cls-20" points="326.3 338.23 313.57 338.23 311.93 334.55 324.02 334.55 326.3 338.23"/><polygon class="cls-20" points="342.16 338.23 329.43 338.23 327 334.55 339.1 334.55 342.16 338.23"/><polygon class="cls-20" points="358.02 338.23 345.29 338.23 342.08 334.55 354.17 334.55 358.02 338.23"/><polygon class="cls-20" points="373.88 338.23 361.15 338.23 357.15 334.55 369.25 334.55 373.88 338.23"/><polygon class="cls-20" points="389.74 338.23 377.01 338.23 372.23 334.55 384.32 334.55 389.74 338.23"/><polygon class="cls-20" points="414.35 343.44 400.74 343.44 394.39 339.24 407.28 339.24 414.35 343.44"/><polygon class="cls-20" points="431.32 343.44 417.71 343.44 410.46 339.24 423.36 339.24 431.32 343.44"/><polygon class="cls-20" points="142.86 343.44 129.25 343.44 137.22 339.24 150.11 339.24 142.86 343.44"/><polygon class="cls-20" points="159.83 343.44 146.22 343.44 153.29 339.24 166.18 339.24 159.83 343.44"/><polygon class="cls-20" points="176.8 343.44 163.19 343.44 169.36 339.24 182.26 339.24 176.8 343.44"/><polygon class="cls-20" points="193.77 343.44 180.16 343.44 185.44 339.24 198.33 339.24 193.77 343.44"/><polygon class="cls-20" points="210.74 343.44 197.12 343.44 201.51 339.24 214.4 339.24 210.74 343.44"/><polygon class="cls-20" points="227.7 343.44 214.09 343.44 217.58 339.24 230.48 339.24 227.7 343.44"/><polygon class="cls-20" points="244.67 343.44 231.06 343.44 233.66 339.24 246.55 339.24 244.67 343.44"/><polygon class="cls-20" points="261.64 343.44 248.03 343.44 249.73 339.24 262.62 339.24 261.64 343.44"/><polygon class="cls-20" points="278.61 343.44 265 343.44 265.8 339.24 278.7 339.24 278.61 343.44"/><polygon class="cls-20" points="295.58 343.44 281.96 343.44 281.88 339.24 294.77 339.24 295.58 343.44"/><polygon class="cls-20" points="312.54 343.44 298.93 343.44 297.95 339.24 310.84 339.24 312.54 343.44"/><polygon class="cls-20" points="329.51 343.44 315.9 343.44 314.02 339.24 326.92 339.24 329.51 343.44"/><polygon class="cls-20" points="346.48 343.44 332.87 343.44 330.1 339.24 342.99 339.24 346.48 343.44"/><polygon class="cls-20" points="363.45 343.44 349.84 343.44 346.17 339.24 359.06 339.24 363.45 343.44"/><polygon class="cls-20" points="380.42 343.44 366.81 343.44 362.24 339.24 375.14 339.24 380.42 343.44"/><polygon class="cls-20" points="397.38 343.44 383.77 343.44 378.32 339.24 391.21 339.24 397.38 343.44"/><polygon class="cls-20" points="424.43 349.42 409.79 349.42 402.48 344.58 416.29 344.58 424.43 349.42"/><polygon class="cls-20" points="442.67 349.42 428.04 349.42 419.69 344.58 433.5 344.58 442.67 349.42"/><polygon class="cls-20" points="132.54 349.42 117.9 349.42 127.07 344.58 140.88 344.58 132.54 349.42"/><polygon class="cls-20" points="150.78 349.42 136.15 349.42 144.28 344.58 158.09 344.58 150.78 349.42"/><polygon class="cls-20" points="169.02 349.42 154.39 349.42 161.5 344.58 175.31 344.58 169.02 349.42"/><polygon class="cls-20" points="187.27 349.42 172.63 349.42 178.71 344.58 192.52 344.58 187.27 349.42"/><polygon class="cls-20" points="205.51 349.42 190.88 349.42 195.92 344.58 209.73 344.58 205.51 349.42"/><polygon class="cls-20" points="223.75 349.42 209.12 349.42 213.14 344.58 226.94 344.58 223.75 349.42"/><polygon class="cls-20" points="242 349.42 227.36 349.42 230.35 344.58 244.16 344.58 242 349.42"/><polygon class="cls-20" points="260.24 349.42 245.6 349.42 247.56 344.58 261.37 344.58 260.24 349.42"/><polygon class="cls-20" points="278.48 349.42 263.85 349.42 264.78 344.58 278.58 344.58 278.48 349.42"/><polygon class="cls-20" points="296.73 349.42 282.09 349.42 281.99 344.58 295.8 344.58 296.73 349.42"/><polygon class="cls-20" points="314.97 349.42 300.33 349.42 299.2 344.58 313.01 344.58 314.97 349.42"/><polygon class="cls-20" points="333.21 349.42 318.58 349.42 316.41 344.58 330.22 344.58 333.21 349.42"/><polygon class="cls-20" points="351.45 349.42 336.82 349.42 333.63 344.58 347.44 344.58 351.45 349.42"/><polygon class="cls-20" points="369.7 349.42 355.06 349.42 350.84 344.58 364.65 344.58 369.7 349.42"/><polygon class="cls-20" points="387.94 349.42 373.31 349.42 368.05 344.58 381.86 344.58 387.94 349.42"/><polygon class="cls-20" points="406.18 349.42 391.55 349.42 385.27 344.58 399.07 344.58 406.18 349.42"/><path class="cls-21" d="M188.28,296.66S177.46,306.74,172,315.34a19.46,19.46,0,0,0-2.91,8.92c-.69,8.87-.73,20.69,3.5,21.05,3.13.27,4.09-3,4.84-8.72,1-7.81,3.23-10.69,6.39-14.71s19.9-2.82,24-1.41c7.42,2.53,9.25,8.29,14.15,12.51a18,18,0,0,0,14.67,4.28c7.4-1.42,7.28-7.63.09-9.35-8.1-2-6.32-3.37-9.55-14.24C222.21,296.66,202,286.5,188.28,296.66Z"/><path class="cls-22" d="M182.45,317.62a44.09,44.09,0,0,0-3.28,10c-.74,4.7.31,16.61,1.64,19.73,1.18,2.77,6.22,2.45,6.94-3.85s.7-13.4,1.77-16,6.35-11,6.35-11"/><path class="cls-23" d="M215.31,312.49s.88,8.68,1.07,14.61c.15,4.75-.93,16.21-2.26,19.33-1.18,2.78-6.92,2.87-7.64-3.43s-1-11.82-1.77-16c-.53-2.77-2.18-12.05-2.18-12.05"/><path class="cls-24" d="M191.12,315.29s-1.17,9.69-.89,14.59,1.39,18.84,3.92,20.14,6.2-1.88,6.37-5.73-.43-12.39.46-16.12c.67-2.78,4.78-10.4,4.78-10.4"/><path class="cls-25" d="M372.23,296.66s10.82,10.08,16.24,18.68a19.46,19.46,0,0,1,2.91,8.92c.69,8.87.73,20.69-3.5,21.05-3.13.27-4.09-3-4.84-8.72-1-7.81-3.22-10.69-6.39-14.71s-19.79-2.45-24-1.41c-11.71,2.87-10.59,8.12-14.15,12.51-4.07,5-8.47-6.28-5.21-19.31C337.56,296.45,358.53,286.5,372.23,296.66Z"/><path class="cls-26" d="M378.06,317.62a44.09,44.09,0,0,1,3.28,10c.74,4.7-.31,16.61-1.64,19.73-1.18,2.77-6.22,2.45-6.94-3.85s-.69-13.4-1.77-16-6.35-11-6.35-11"/><path class="cls-27" d="M345.21,312.49s-.89,8.68-1.08,14.61c-.15,4.75.93,16.21,2.26,19.33,1.18,2.78,6.92,2.87,7.64-3.43s1-11.82,1.77-16C356.34,324.24,358,315,358,315"/><path class="cls-28" d="M369.39,315.29s1.17,9.69.89,14.59-1.39,18.84-3.92,20.14-6.2-1.88-6.37-5.73.43-12.39-.46-16.12c-.67-2.78-4.78-10.4-4.78-10.4"/><path class="cls-29" d="M333.26,313.67s-4.77,13.4-4.58,16.69,4.59,12.41,6.8,12.51,5.94-2.79,4.73-9.11,5-9.58,5-9.58"/><polygon class="cls-30" points="405.98 197.76 154.53 197.76 111.52 11.79 448.99 11.79 405.98 197.76"/><path class="cls-19" d="M332.88,380.84H227.63l9.68-20.94a2,2,0,0,1,1.77-1.13h82.35a2,2,0,0,1,1.77,1.13Z"/><rect class="cls-31" x="227.31" y="379.98" width="105.9" height="8.48" rx="2.1"/><path class="cls-32" d="M425.23,321.34a1987.33,1987.33,0,0,1-290,0,11,11,0,0,1-10.12-11.82q5.19-65.92,10.37-131.85a12.31,12.31,0,0,1,13.15-11.32,1831.42,1831.42,0,0,0,263.15,0A12.3,12.3,0,0,1,425,177.67q5.19,65.93,10.37,131.85A11,11,0,0,1,425.23,321.34Z"/><path class="cls-33" d="M422,321.57a1907.42,1907.42,0,0,1-283.45,0,8,8,0,0,1-7.38-8.61l10.61-134.71a6.2,6.2,0,0,1,6.66-5.7,1758.08,1758.08,0,0,0,263.67,0,6.21,6.21,0,0,1,6.67,5.7q5.3,67.35,10.6,134.71A8,8,0,0,1,422,321.57Z"/><path class="cls-34" d="M331.77,246.48h-103l-3.67,37s20.6,15.68,55.19,15.68,55.18-15.68,55.18-15.68Z"/><path class="cls-35" d="M258.39,272.12h43.72a0,0,0,0,1,0,0v96.41a2.25,2.25,0,0,1-2.25,2.25H260.64a2.25,2.25,0,0,1-2.25-2.25V272.12A0,0,0,0,1,258.39,272.12Z"/><path class="cls-36" d="M332.91,238H227.61l-3.75,46.5s19.6,7.3,56.4,7.3,56.4-7.3,56.4-7.3Z"/><polygon class="cls-14" points="490.82 190.96 465.21 208.29 439.6 190.96 490.82 190.96"/><path class="cls-14" d="M490.82,191l-23.69-24.15a2.68,2.68,0,0,0-3.84,0L439.6,191Z"/><path class="cls-37" d="M446.4,173.33H484a2.6,2.6,0,0,1,2.6,2.6v39.73a0,0,0,0,1,0,0h-42.8a0,0,0,0,1,0,0V175.93A2.6,2.6,0,0,1,446.4,173.33Z"/><path class="cls-11" d="M446.4,173.33H484a2.6,2.6,0,0,1,2.6,2.6V179a0,0,0,0,1,0,0h-42.8a0,0,0,0,1,0,0v-3.07A2.6,2.6,0,0,1,446.4,173.33Z"/><path class="cls-13" d="M448.44,176.16a1.21,1.21,0,1,1-1.2-1.2A1.21,1.21,0,0,1,448.44,176.16Z"/><path class="cls-13" d="M452.39,176.16a1.21,1.21,0,1,1-1.21-1.2A1.21,1.21,0,0,1,452.39,176.16Z"/><path class="cls-13" d="M456.34,176.16a1.21,1.21,0,1,1-1.21-1.2A1.21,1.21,0,0,1,456.34,176.16Z"/><path class="cls-13" d="M456.89,193.4h-6.55l-1.29,3h-2.51l5.9-13.1h2.39l5.91,13.1H458.2Zm-.8-1.91-2.48-5.72-2.45,5.72Z"/><rect class="cls-13" x="463.82" y="183.1" width="19.4" height="1.22"/><rect class="cls-13" x="463.82" y="186.4" width="19.4" height="1.22"/><rect class="cls-13" x="463.82" y="189.71" width="19.4" height="1.22"/><rect class="cls-13" x="463.82" y="193.01" width="19.4" height="1.22"/><rect class="cls-13" x="463.82" y="196.31" width="19.4" height="1.22"/><rect class="cls-13" x="447.24" y="199.61" width="35.98" height="1.22"/><rect class="cls-13" x="447.24" y="202.91" width="35.98" height="1.22"/><rect class="cls-13" x="447.24" y="206.21" width="35.98" height="1.22"/><rect class="cls-13" x="447.24" y="209.51" width="35.98" height="1.22"/><path class="cls-13" d="M490.81,191v31.58a3.08,3.08,0,0,1-3.07,3.08H442.68a3.08,3.08,0,0,1-3.08-3.08V191l25.61,17.33h0Z"/><path class="cls-38" d="M490.81,191v31.58a3.06,3.06,0,0,1-1.08,2.34l-24.51-16.59Z"/><line class="cls-39" x1="103.36" y1="108.76" x2="103.36" y2="110.89"/><path class="cls-40" d="M103.36,115.05V243.21a3.27,3.27,0,0,0,3.26,3.27h14.3"/><line class="cls-39" x1="123" y1="246.48" x2="125.12" y2="246.48"/><line class="cls-39" x1="508.38" y1="158.75" x2="508.38" y2="160.88"/><path class="cls-41" d="M508.38,165.07v78.14a3.27,3.27,0,0,1-3.27,3.27h-65.5"/><line class="cls-39" x1="437.52" y1="246.48" x2="435.39" y2="246.48"/><line class="cls-39" x1="54.93" y1="195.12" x2="54.93" y2="197.24"/><path class="cls-42" d="M54.93,201.6v15.18a2.77,2.77,0,0,0,2.76,2.76H97"/><line class="cls-39" x1="99.21" y1="219.54" x2="101.34" y2="219.54"/><path class="cls-19" d="M501.24,349.28a1.05,1.05,0,0,1-.92.94h-27.8l-1.84-1.64-10.36-9.15-9.11-5.82-3.13-10.18h27.86v0a15.53,15.53,0,0,1,5,1.07c11.19,4.16,17.07,15.94,19.52,22.38a0,0,0,0,1,0,0c.21.55.39,1,.55,1.51,0,.16.11.31.15.44A.9.9,0,0,1,501.24,349.28Z"/><path class="cls-18" d="M469.81,338.65l1.12-.09c.71,0,1.72-.13,2.94-.17s2.64-.12,4.16-.15,3.14,0,4.76-.05,3.25,0,4.77.05,2.94.11,4.15.15,2.23.13,2.94.17l1.12.09-1.12.09c-.71,0-1.72.13-2.94.17s-2.63.11-4.15.14-3.15.05-4.77.06-3.24,0-4.76-.06-2.94-.1-4.16-.14-2.23-.14-2.94-.17Z"/><path class="cls-18" d="M501.24,349.26a1,1,0,0,0,0-.17,1.06,1.06,0,0,0-.05-.23c0-.13-.1-.28-.15-.44-.16-.46-.34-1-.55-1.51a0,0,0,0,0,0,0s.37,1.52-.8,1.52H475.47a3.13,3.13,0,0,1-2.92-2c-2.56-6.53-8.42-17.83-19.35-21.9-8.56-3.19-12.06,1.31-13.46,4.83a3.91,3.91,0,0,0,1.85,4.89L472,350.1a.88.88,0,0,0,.54.11h.05s0,0,0,0h27.72a1,1,0,0,0,.92-.94h0Z"/><path class="cls-18" d="M488.32,348.8l1.58-.38a2.49,2.49,0,0,1-2.22-1.63l-.11-.27s0,0,0,0a88.25,88.25,0,0,0-3.83-8l-.05,0a.46.46,0,0,0-.74.54l.34.54c.71,1.35,2.33,4.51,3.36,7.09.11.39.65,1.79-1.18,1.79l1.91.34c0,.15.08.29.11.42l.43-.09a1,1,0,0,1-.43,1,1,1,0,0,1-.53.16.94.94,0,0,0,.55-.13,1.08,1.08,0,0,0,.45-.47,1,1,0,0,0,.07-.55l.36-.07A1.17,1.17,0,0,1,488.32,348.8Z"/><rect class="cls-11" x="30.63" y="126.51" width="48.61" height="48.61" rx="4.85"/><path class="cls-13" d="M61.23,140.28a6.31,6.31,0,1,1-6.3-6.31A6.3,6.3,0,0,1,61.23,140.28Z"/><path class="cls-13" d="M55.16,148.24a12.35,12.35,0,0,0-12.33,12.41v4.25a1.43,1.43,0,0,0,1.42,1.42H65.61A1.42,1.42,0,0,0,67,164.9v-4.57A12.08,12.08,0,0,0,55.16,148.24Z"/><rect class="cls-11" x="30.63" y="181.57" width="48.61" height="3.67" rx="1.57"/><path class="cls-11" d="M77.39,192.75H32.46a1.84,1.84,0,0,1-1.83-1.84h0a1.83,1.83,0,0,1,1.83-1.84H77.39a1.84,1.84,0,0,1,1.84,1.84h0A1.84,1.84,0,0,1,77.39,192.75Z"/><path class="cls-43" d="M87.62,233.76v-2.84H86.43a7.29,7.29,0,0,0-1.14-2.77l.84-.83-2-2-.84.84A7.43,7.43,0,0,0,80.52,225v-1.18H77.68V225a7.43,7.43,0,0,0-2.76,1.15l-.84-.84-2,2,.84.83a7.46,7.46,0,0,0-1.14,2.77H70.58v2.84h1.19a7.48,7.48,0,0,0,1.14,2.76l-.84.84,2,2,.84-.84a7.58,7.58,0,0,0,2.76,1.14v1.19h2.84v-1.19a7.58,7.58,0,0,0,2.76-1.14l.84.84,2-2-.84-.84a7.48,7.48,0,0,0,1.14-2.76Zm-8.52,3.32a4.75,4.75,0,1,1,4.74-4.74A4.74,4.74,0,0,1,79.1,237.08Z"/><path class="cls-43" d="M96.49,241.09v-1.9h-.8a5,5,0,0,0-.76-1.85l.56-.56-1.34-1.35-.56.56a5,5,0,0,0-1.85-.76v-.8h-1.9v.8A4.9,4.9,0,0,0,88,236l-.56-.56-1.35,1.35.56.56a5,5,0,0,0-.76,1.85h-.8v1.9h.8a5,5,0,0,0,.76,1.85l-.56.56,1.35,1.34.56-.56a4.9,4.9,0,0,0,1.85.76v.8h1.9V245a5,5,0,0,0,1.85-.76l.56.56,1.34-1.34-.56-.56a5,5,0,0,0,.76-1.85Zm-5.7,2.22A3.18,3.18,0,1,1,94,240.14,3.17,3.17,0,0,1,90.79,243.31Z"/><path class="cls-43" d="M531.39,166.23v-2.84H530.2a7.34,7.34,0,0,0-1.14-2.76l.84-.84-2-2-.84.84a7.43,7.43,0,0,0-2.76-1.15v-1.18h-2.84v1.18a7.36,7.36,0,0,0-2.76,1.15l-.84-.84-2,2,.84.83a7.29,7.29,0,0,0-1.14,2.77h-1.19v2.84h1.19a7.31,7.31,0,0,0,1.14,2.76l-.84.84,2,2,.84-.84a7.58,7.58,0,0,0,2.76,1.14v1.19h2.84v-1.19a7.58,7.58,0,0,0,2.76-1.14l.84.84,2-2-.84-.84a7.48,7.48,0,0,0,1.14-2.76Zm-8.52,3.32a4.75,4.75,0,1,1,4.74-4.74A4.74,4.74,0,0,1,522.87,169.55Z"/><path class="cls-44" d="M452.8,31.64H355.71A4.66,4.66,0,0,1,351.05,27h0a4.66,4.66,0,0,1,4.66-4.66H452.8A4.66,4.66,0,0,1,457.46,27h0A4.66,4.66,0,0,1,452.8,31.64Z"/><line class="cls-45" x1="357.12" y1="25.12" x2="357.12" y2="28.87"/><line class="cls-45" x1="359" y1="27" x2="355.24" y2="27"/><line class="cls-45" x1="358.45" y1="25.67" x2="355.79" y2="28.32"/><line class="cls-45" x1="358.45" y1="28.32" x2="355.79" y2="25.67"/><line class="cls-45" x1="365.33" y1="25.12" x2="365.33" y2="28.87"/><line class="cls-45" x1="367.21" y1="27" x2="363.46" y2="27"/><line class="cls-45" x1="366.66" y1="25.67" x2="364.01" y2="28.32"/><line class="cls-45" x1="366.66" y1="28.32" x2="364.01" y2="25.67"/><line class="cls-45" x1="373.54" y1="25.12" x2="373.54" y2="28.87"/><line class="cls-45" x1="375.42" y1="27" x2="371.67" y2="27"/><line class="cls-45" x1="374.87" y1="25.67" x2="372.22" y2="28.32"/><line class="cls-45" x1="374.87" y1="28.32" x2="372.22" y2="25.67"/><line class="cls-45" x1="381.75" y1="25.12" x2="381.75" y2="28.87"/><line class="cls-45" x1="383.63" y1="27" x2="379.88" y2="27"/><line class="cls-45" x1="383.08" y1="25.67" x2="380.43" y2="28.32"/><line class="cls-45" x1="383.08" y1="28.32" x2="380.43" y2="25.67"/><line class="cls-45" x1="389.96" y1="25.12" x2="389.96" y2="28.87"/><line class="cls-45" x1="391.84" y1="27" x2="388.09" y2="27"/><line class="cls-45" x1="391.29" y1="25.67" x2="388.64" y2="28.32"/><line class="cls-45" x1="391.29" y1="28.32" x2="388.64" y2="25.67"/><line class="cls-45" x1="398.18" y1="25.12" x2="398.18" y2="28.87"/><line class="cls-45" x1="400.05" y1="27" x2="396.3" y2="27"/><line class="cls-45" x1="399.5" y1="25.67" x2="396.85" y2="28.32"/><line class="cls-45" x1="399.5" y1="28.32" x2="396.85" y2="25.67"/><line class="cls-45" x1="406.39" y1="25.12" x2="406.39" y2="28.87"/><line class="cls-45" x1="408.26" y1="27" x2="404.51" y2="27"/><line class="cls-45" x1="407.71" y1="25.67" x2="405.06" y2="28.32"/><line class="cls-45" x1="407.71" y1="28.32" x2="405.06" y2="25.67"/><polyline class="cls-46" points="181.11 138.48 185.26 134.32 181.11 130.17"/><line class="cls-47" x1="185.26" y1="134.33" x2="153.99" y2="134.33"/><path class="cls-32" d="M136.58,121.14v.36a1.73,1.73,0,0,1-1.73,1.74H122.41a1.73,1.73,0,0,0-1.74,1.73v16.92a1.73,1.73,0,0,0,1.74,1.73h25.34a1.72,1.72,0,0,0,1.73-1.73V121.14a1.8,1.8,0,0,0-1.8-1.81h-9.29A1.81,1.81,0,0,0,136.58,121.14Z"/><path class="cls-48" d="M145.28,141.93l-.13-.53h0l-2.87-11a2.37,2.37,0,0,0-2.29-1.77H118.17a1.14,1.14,0,0,0-1.09,1.42l3,11.61a2.64,2.64,0,0,0,2.56,2h24.94A2.37,2.37,0,0,1,145.28,141.93Z"/><path class="cls-32" d="M211.87,121.14v.36a1.74,1.74,0,0,1-1.73,1.74H197.69A1.72,1.72,0,0,0,196,125v16.92a1.72,1.72,0,0,0,1.73,1.73H223a1.73,1.73,0,0,0,1.74-1.73V121.14a1.81,1.81,0,0,0-1.81-1.81h-9.29A1.81,1.81,0,0,0,211.87,121.14Z"/><path class="cls-48" d="M220.57,141.93l-.14-.53h0l-2.87-11a2.36,2.36,0,0,0-2.28-1.77H193.46a1.13,1.13,0,0,0-1.09,1.42l3,11.61a2.64,2.64,0,0,0,2.56,2h25A2.36,2.36,0,0,1,220.57,141.93Z"/><rect class="cls-49" x="467.44" y="253.44" width="16.03" height="15.79" rx="1.66"/><line class="cls-50" x1="471.41" y1="257.29" x2="479.5" y2="265.38"/><line class="cls-50" x1="479.5" y1="257.29" x2="471.41" y2="265.38"/><rect class="cls-51" x="492.35" y="253.44" width="16.03" height="15.79" rx="1.66"/><polyline class="cls-52" points="495.98 261.09 499.23 264.33 505.78 257.78"/><rect class="cls-13" x="54.93" y="113.95" width="6.08" height="6.08" rx="1"/><rect class="cls-13" x="64.04" y="113.95" width="6.08" height="6.08" rx="1"/><rect class="cls-13" x="73.15" y="113.95" width="6.08" height="6.08" rx="1"/><rect class="cls-13" x="436.29" y="258.3" width="6.08" height="6.08" rx="1"/><rect class="cls-13" x="445.4" y="258.3" width="6.08" height="6.08" rx="1"/><rect class="cls-13" x="454.52" y="258.3" width="6.08" height="6.08" rx="1"/><circle class="cls-53" cx="81.27" cy="280.89" r="19.5" transform="translate(-209.01 316.12) rotate(-80.78)"/><path class="cls-11" d="M90.47,285.82a5.2,5.2,0,0,0-1-3.34,6.69,6.69,0,0,0-2.59-1.93,24.14,24.14,0,0,0-3.63-1.14v-6.73a13.1,13.1,0,0,1,3.09.78,1.82,1.82,0,0,0,2.37-1,1.89,1.89,0,0,0,0-1.44,1.71,1.71,0,0,0-.92-.91,16.42,16.42,0,0,0-4.53-1v-2.05a2,2,0,0,0-3.92,0v2.13A9.19,9.19,0,0,0,74,271.48,6.06,6.06,0,0,0,72.09,276a5.24,5.24,0,0,0,1,3.36,6.68,6.68,0,0,0,2.61,2,23.9,23.9,0,0,0,3.6,1.16v6.65a14.52,14.52,0,0,1-3.43-.81,11.82,11.82,0,0,1-1.14-.48,1.66,1.66,0,0,0-.69-.16,1.81,1.81,0,0,0-.6.11,1.92,1.92,0,0,0-1,1,1.83,1.83,0,0,0,.9,2.41,16.44,16.44,0,0,0,1.66.65,18.31,18.31,0,0,0,4.35.83v2.05a2,2,0,1,0,3.92,0v-2.16a9.38,9.38,0,0,0,5.34-2.29A6,6,0,0,0,90.47,285.82Zm-13-8.35a2.21,2.21,0,0,1-.81-1.75,2.63,2.63,0,0,1,.74-1.85,3.88,3.88,0,0,1,1.94-1.05v5.6A5.53,5.53,0,0,1,77.44,277.47ZM85.17,288a4,4,0,0,1-1.94,1v-5.5a5.82,5.82,0,0,1,1.89,1,2.18,2.18,0,0,1,.79,1.73A2.5,2.5,0,0,1,85.17,288Z"/><circle class="cls-53" cx="360.27" cy="114.4" r="19.5" transform="translate(24.63 288.26) rotate(-45)"/><path class="cls-11" d="M369.46,119.33a5.2,5.2,0,0,0-1-3.34,6.61,6.61,0,0,0-2.59-1.93,23.62,23.62,0,0,0-3.62-1.14v-6.73a13.14,13.14,0,0,1,3.08.78,1.81,1.81,0,0,0,2.37-1,1.89,1.89,0,0,0,0-1.44,1.64,1.64,0,0,0-.92-.91,16.43,16.43,0,0,0-4.52-1v-2.05a2,2,0,0,0-3.92,0v2.13A9.22,9.22,0,0,0,353,105a6.08,6.08,0,0,0-1.91,4.52,5.24,5.24,0,0,0,1,3.36,6.81,6.81,0,0,0,2.62,2,25.1,25.1,0,0,0,3.6,1.16v6.65a14.6,14.6,0,0,1-3.44-.81c-.39-.15-.78-.31-1.13-.48a1.7,1.7,0,0,0-.69-.16,1.73,1.73,0,0,0-.6.11,1.91,1.91,0,0,0-1.06,1,1.84,1.84,0,0,0,.9,2.41,17.66,17.66,0,0,0,1.67.65,18.31,18.31,0,0,0,4.35.83v2a2,2,0,0,0,3.92,0v-2.16a9.35,9.35,0,0,0,5.33-2.29A6,6,0,0,0,369.46,119.33Zm-13-8.35a2.18,2.18,0,0,1-.81-1.75,2.67,2.67,0,0,1,.73-1.85,4,4,0,0,1,1.95-1v5.6A5.43,5.43,0,0,1,356.44,111Zm7.72,10.54a3.87,3.87,0,0,1-1.93,1V117a6,6,0,0,1,1.89,1,2.2,2.2,0,0,1,.79,1.73A2.43,2.43,0,0,1,364.16,121.52Z"/><rect class="cls-54" x="455.98" y="276.18" width="52.16" height="31.21" rx="5.02"/><line class="cls-55" x1="461.92" y1="283.28" x2="502.61" y2="283.28"/><line class="cls-55" x1="461.92" y1="289.11" x2="502.61" y2="289.11"/><line class="cls-55" x1="461.92" y1="295.68" x2="474.46" y2="295.68"/><line class="cls-55" x1="476.23" y1="295.68" x2="484.4" y2="295.68"/><line class="cls-55" x1="486" y1="295.68" x2="488.94" y2="295.68"/><line class="cls-56" x1="522.06" y1="289.89" x2="528.11" y2="289.89"/><line class="cls-56" x1="525.09" y1="286.87" x2="525.09" y2="292.92"/><line class="cls-56" x1="4.99" y1="258.12" x2="11.05" y2="258.12"/><line class="cls-56" x1="8.02" y1="255.09" x2="8.02" y2="261.15"/><circle class="cls-57" cx="57.35" cy="26.19" r="3.27"/><path class="cls-57" d="M74,26.19a3.27,3.27,0,1,1-3.27-3.27A3.26,3.26,0,0,1,74,26.19Z"/><circle class="cls-57" cx="552.59" cy="127" r="3.27"/><path class="cls-57" d="M569.24,127a3.28,3.28,0,1,1-3.27-3.27A3.28,3.28,0,0,1,569.24,127Z"/><circle class="cls-57" cx="162.09" cy="124.8" r="3.27"/><path class="cls-57" d="M178.74,124.8a3.27,3.27,0,1,1-3.27-3.27A3.26,3.26,0,0,1,178.74,124.8Z"/><circle class="cls-57" cx="463.21" cy="50.68" r="3.27"/><path class="cls-57" d="M479.86,50.68a3.27,3.27,0,1,1-3.27-3.28A3.27,3.27,0,0,1,479.86,50.68Z"/><circle class="cls-57" cx="45.84" cy="83.22" r="3.27"/><circle class="cls-57" cx="525.09" cy="210.73" r="3.27"/><path class="cls-13" d="M42.6,296.68a3.27,3.27,0,1,1-3.27-3.27A3.27,3.27,0,0,1,42.6,296.68Z"/><path class="cls-13" d="M492.87,50.68a3.28,3.28,0,1,1-3.27-3.28A3.28,3.28,0,0,1,492.87,50.68Z"/><path class="cls-13" d="M360.39,6.71a3.27,3.27,0,1,1-3.27-3.27A3.26,3.26,0,0,1,360.39,6.71Z"/><circle class="cls-13" cx="31.75" cy="232.34" r="3.27"/><path class="cls-13" d="M559.28,166.06a3.28,3.28,0,1,1-3.28-3.27A3.28,3.28,0,0,1,559.28,166.06Z"/><line class="cls-56" x1="199.4" y1="68.01" x2="205.45" y2="68.01"/><line class="cls-56" x1="202.42" y1="64.98" x2="202.42" y2="71.04"/><line class="cls-58" x1="142.24" y1="23.16" x2="148.3" y2="23.16"/><line class="cls-58" x1="145.27" y1="20.13" x2="145.27" y2="26.19"/><line class="cls-58" x1="1.24" y1="134.99" x2="7.29" y2="134.99"/><line class="cls-58" x1="4.26" y1="131.96" x2="4.26" y2="138.02"/><line class="cls-58" x1="360.54" y1="59.98" x2="366.6" y2="59.98"/><line class="cls-58" x1="363.57" y1="56.95" x2="363.57" y2="63.01"/><line class="cls-56" x1="540.28" y1="98.13" x2="546.34" y2="98.13"/><line class="cls-56" x1="543.31" y1="95.1" x2="543.31" y2="101.15"/><line class="cls-56" x1="488.59" y1="166.06" x2="494.65" y2="166.06"/><line class="cls-56" x1="491.62" y1="163.03" x2="491.62" y2="169.08"/><rect class="cls-13" x="408.26" width="13.42" height="13.42" rx="1.38"/><rect class="cls-13" x="426.21" width="13.42" height="13.42" rx="1.38"/><rect class="cls-13" x="444.16" width="13.42" height="13.42" rx="1.38"/></g></g></g></svg>