<svg xmlns="http://www.w3.org/2000/svg" viewBox="0 0 511.42 627.65"><defs><style>.cls-1{fill:#fff;}</style></defs><title>blockwhite</title><g id="Capa_2" data-name="Capa 2"><g id="Capa_1-2" data-name="Capa 1"><path class="cls-1" d="M441.68,233.77V168.53C441.68,75.61,358.25,0,255.71,0s-186,75.61-186,168.53v65.24A84.12,84.12,0,0,0,0,316.5V543.63a84.12,84.12,0,0,0,84,84H427.39a84.13,84.13,0,0,0,84-84V316.48A84.11,84.11,0,0,0,441.68,233.77ZM93,168.53C93,88.42,166,23.25,255.71,23.25S418.43,88.42,418.43,168.53v63.93H93ZM488.17,543.62a60.85,60.85,0,0,1-60.78,60.78H84a60.85,60.85,0,0,1-60.77-60.78V316.48A60.84,60.84,0,0,1,84,255.71H427.39a60.85,60.85,0,0,1,60.78,60.77Z"/><path class="cls-1" d="M255.71,325.45a46.54,46.54,0,0,0-46.49,46.49v69.74a46.49,46.49,0,1,0,93,0V371.94A46.54,46.54,0,0,0,255.71,325.45ZM279,441.68a23.25,23.25,0,0,1-46.49,0V371.94a23.25,23.25,0,1,1,46.49,0Z"/></g></g></svg>