<svg xmlns="http://www.w3.org/2000/svg" xmlns:xlink="http://www.w3.org/1999/xlink" viewBox="0 0 410.18 331.78"><defs><style>.cls-1{isolation:isolate;}.cls-2{fill:url(#linear-gradient);}.cls-3{fill:url(#linear-gradient-2);}.cls-4{fill:url(#linear-gradient-3);}.cls-5{fill:url(#linear-gradient-4);}.cls-6{fill:url(#linear-gradient-5);}.cls-7{fill:#d4e1ef;}.cls-48,.cls-7{opacity:0.8;}.cls-43,.cls-46,.cls-48,.cls-7{mix-blend-mode:multiply;}.cls-8{fill:#255aa8;}.cls-9{fill:#3568be;}.cls-10{fill:#2563af;}.cls-11{fill:#3a79c7;}.cls-12{fill:#5286d6;}.cls-13{fill:#3578cd;}.cls-14{fill:#73a5ff;}.cls-15{fill:#a3b9ff;}.cls-16{fill:#5c86da;}.cls-17{fill:#a6d2f9;}.cls-18{fill:#b7e1ff;}.cls-19{fill:#e0ac45;}.cls-20,.cls-21{fill:#f8c245;}.cls-21,.cls-43{opacity:0.5;}.cls-21{mix-blend-mode:screen;}.cls-22{fill:url(#linear-gradient-6);}.cls-23{fill:url(#linear-gradient-7);}.cls-24{fill:url(#linear-gradient-8);}.cls-25{fill:url(#linear-gradient-9);}.cls-26{fill:url(#linear-gradient-10);}.cls-27{fill:url(#linear-gradient-11);}.cls-28{fill:url(#linear-gradient-12);}.cls-29{fill:url(#linear-gradient-13);}.cls-30{fill:url(#linear-gradient-14);}.cls-31{fill:url(#linear-gradient-15);}.cls-32{fill:url(#linear-gradient-16);}.cls-33{fill:url(#linear-gradient-17);}.cls-34{fill:url(#linear-gradient-18);}.cls-35{fill:url(#linear-gradient-19);}.cls-36{fill:url(#linear-gradient-20);}.cls-37{fill:url(#linear-gradient-21);}.cls-38{fill:url(#linear-gradient-22);}.cls-39{fill:url(#linear-gradient-23);}.cls-40{fill:url(#linear-gradient-24);}.cls-41{fill:url(#linear-gradient-25);}.cls-42{fill:url(#linear-gradient-26);}.cls-43{fill:#6d99bf;}.cls-44{fill:#1e3b5b;}.cls-45,.cls-46{fill:#3c4371;}.cls-46{opacity:0.2;}.cls-47,.cls-48{fill:#efe3cb;}.cls-49{fill:#a9d9ff;}.cls-50{fill:#3c4f84;}.cls-51{fill:#fdfdfd;}.cls-52{fill:#92baf9;}.cls-53{fill:#8ba8ba;}.cls-54{fill:#b1cee6;}.cls-55{fill:#254766;}.cls-56{fill:#e4b888;}</style><linearGradient id="linear-gradient" x1="133.43" y1="209.37" x2="159.03" y2="41.76" gradientUnits="userSpaceOnUse"><stop offset="0" stop-color="#8bbaff" stop-opacity="0.1"/><stop offset="0.13" stop-color="#8bbaff" stop-opacity="0.19"/><stop offset="0.42" stop-color="#8bbaff" stop-opacity="0.44"/><stop offset="0.82" stop-color="#8bbaff" stop-opacity="0.82"/><stop offset="1" stop-color="#8bbaff"/></linearGradient><linearGradient id="linear-gradient-2" x1="-89.58" y1="107.56" x2="-89.58" y2="61.13" gradientTransform="matrix(-1, 0, 0, 1, 240.37, 0)" gradientUnits="userSpaceOnUse"><stop offset="0" stop-color="#9adeff" stop-opacity="0.1"/><stop offset="0.13" stop-color="#9adeff" stop-opacity="0.19"/><stop offset="0.42" stop-color="#9adeff" stop-opacity="0.44"/><stop offset="0.82" stop-color="#9adeff" stop-opacity="0.82"/><stop offset="1" stop-color="#9adeff"/></linearGradient><linearGradient id="linear-gradient-3" x1="-68.93" y1="64.3" x2="-68.93" y2="34.47" xlink:href="#linear-gradient-2"/><linearGradient id="linear-gradient-4" x1="144.99" y1="226.45" x2="144.99" y2="168.3" xlink:href="#linear-gradient-2"/><linearGradient id="linear-gradient-5" x1="117.66" y1="172.27" x2="117.66" y2="134.91" xlink:href="#linear-gradient-2"/><linearGradient id="linear-gradient-6" x1="11.41" y1="242.54" x2="33.39" y2="196.42" gradientUnits="userSpaceOnUse"><stop offset="0" stop-color="#ffe189" stop-opacity="0.1"/><stop offset="0.13" stop-color="#ffe189" stop-opacity="0.19"/><stop offset="0.42" stop-color="#ffe189" stop-opacity="0.44"/><stop offset="0.82" stop-color="#ffe189" stop-opacity="0.82"/><stop offset="1" stop-color="#ffe189"/></linearGradient><linearGradient id="linear-gradient-7" x1="11.41" y1="242.54" x2="33.39" y2="196.42" xlink:href="#linear-gradient-6"/><linearGradient id="linear-gradient-8" x1="11.55" y1="242.61" x2="33.53" y2="196.48" xlink:href="#linear-gradient-6"/><linearGradient id="linear-gradient-9" x1="51.94" y1="173.95" x2="64.86" y2="146.82" xlink:href="#linear-gradient-6"/><linearGradient id="linear-gradient-10" x1="51.94" y1="173.95" x2="64.86" y2="146.82" xlink:href="#linear-gradient-6"/><linearGradient id="linear-gradient-11" x1="52.02" y1="173.99" x2="64.95" y2="146.86" xlink:href="#linear-gradient-6"/><linearGradient id="linear-gradient-12" x1="347.67" y1="151.48" x2="360.59" y2="124.35" xlink:href="#linear-gradient-6"/><linearGradient id="linear-gradient-13" x1="347.67" y1="151.48" x2="360.59" y2="124.35" xlink:href="#linear-gradient-6"/><linearGradient id="linear-gradient-14" x1="347.75" y1="151.52" x2="360.68" y2="124.39" xlink:href="#linear-gradient-6"/><linearGradient id="linear-gradient-15" x1="342.97" y1="234.28" x2="362.11" y2="194.1" xlink:href="#linear-gradient-6"/><linearGradient id="linear-gradient-16" x1="342.97" y1="234.28" x2="362.11" y2="194.1" xlink:href="#linear-gradient-6"/><linearGradient id="linear-gradient-17" x1="343.09" y1="234.33" x2="362.24" y2="194.16" xlink:href="#linear-gradient-6"/><linearGradient id="linear-gradient-18" x1="24.99" y1="139.68" x2="42.07" y2="103.83" xlink:href="#linear-gradient-6"/><linearGradient id="linear-gradient-19" x1="24.99" y1="139.68" x2="42.07" y2="103.84" xlink:href="#linear-gradient-6"/><linearGradient id="linear-gradient-20" x1="25.1" y1="139.74" x2="42.18" y2="103.89" xlink:href="#linear-gradient-6"/><linearGradient id="linear-gradient-21" x1="386.11" y1="185.25" x2="401.36" y2="153.25" xlink:href="#linear-gradient-6"/><linearGradient id="linear-gradient-22" x1="386.11" y1="185.25" x2="401.36" y2="153.25" xlink:href="#linear-gradient-6"/><linearGradient id="linear-gradient-23" x1="386.21" y1="185.3" x2="401.46" y2="153.29" xlink:href="#linear-gradient-6"/><linearGradient id="linear-gradient-24" x1="130.73" y1="43.71" x2="143.15" y2="17.64" xlink:href="#linear-gradient-6"/><linearGradient id="linear-gradient-25" x1="130.73" y1="43.71" x2="143.15" y2="17.64" xlink:href="#linear-gradient-6"/><linearGradient id="linear-gradient-26" x1="130.81" y1="43.75" x2="143.23" y2="17.68" xlink:href="#linear-gradient-6"/></defs><title>Recurso 27</title><g class="cls-1"><g id="Capa_2" data-name="Capa 2"><g id="Capa_1-2" data-name="Capa 1"><path class="cls-2" d="M80.68,189H58.17v-65.5H80.68Zm33-87.26H91.2V189h22.5Zm33,7.38H124.22V189h22.51Zm33-27.25H157.24V189h22.51Zm33-39H190.26V189h22.51ZM206.7,0l-18,10.19,7.23,4.26L135.26,88.59l-33.2-22L67.92,107.88l3,2.49,31.9-38.54,32.84,21.74L199.3,16.44l7.23,4.25Zm23.67,195.05H40.57v1.86h189.8Z"/><path class="cls-3" d="M306.74,82.39V86.3a2.55,2.55,0,0,0,2,2.49l.78.18a2.51,2.51,0,0,1,1.85,1.65,20,20,0,0,0,1,2.43,2.54,2.54,0,0,1-.14,2.49l-.42.67a2.54,2.54,0,0,0,.35,3.17l2.76,2.77a2.56,2.56,0,0,0,3.17.35l.63-.4a2.54,2.54,0,0,1,2.5-.13,20,20,0,0,0,2.48,1,2.51,2.51,0,0,1,1.65,1.85l.16.71a2.54,2.54,0,0,0,2.49,2h3.91a2.54,2.54,0,0,0,2.49-2l.14-.65a2.52,2.52,0,0,1,1.67-1.85,20.84,20.84,0,0,0,2.58-1.06,2.5,2.5,0,0,1,2.48.14l.55.35a2.56,2.56,0,0,0,3.17-.35l2.77-2.77a2.56,2.56,0,0,0,.35-3.17l-.33-.51a2.55,2.55,0,0,1-.12-2.51,19.64,19.64,0,0,0,1.08-2.59,2.55,2.55,0,0,1,1.86-1.68l.58-.13a2.55,2.55,0,0,0,2-2.49V82.39a2.56,2.56,0,0,0-2-2.49l-.58-.13a2.54,2.54,0,0,1-1.86-1.67,19.09,19.09,0,0,0-1.08-2.59,2.57,2.57,0,0,1,.12-2.52l.33-.51a2.56,2.56,0,0,0-.35-3.17L345,66.55a2.54,2.54,0,0,0-3.17-.35l-.55.35a2.55,2.55,0,0,1-2.48.14,19.41,19.41,0,0,0-2.58-1.06,2.56,2.56,0,0,1-1.67-1.86l-.14-.64a2.55,2.55,0,0,0-2.49-2H328a2.55,2.55,0,0,0-2.49,2l-.16.71a2.53,2.53,0,0,1-1.65,1.85,20,20,0,0,0-2.48,1,2.54,2.54,0,0,1-2.5-.13l-.63-.4a2.54,2.54,0,0,0-3.17.35l-2.76,2.76a2.54,2.54,0,0,0-.35,3.17l.42.67a2.54,2.54,0,0,1,.14,2.49,20,20,0,0,0-1,2.43,2.53,2.53,0,0,1-1.85,1.66l-.78.17A2.56,2.56,0,0,0,306.74,82.39Zm11.81,2a11.5,11.5,0,1,1,11.5,11.49A11.5,11.5,0,0,1,318.55,84.35Z"/><path class="cls-4" d="M294.39,48.13v2.51a1.64,1.64,0,0,0,1.28,1.6l.5.11a1.63,1.63,0,0,1,1.19,1.07A14.18,14.18,0,0,0,298,55a1.63,1.63,0,0,1-.08,1.6l-.28.43a1.62,1.62,0,0,0,.23,2l1.77,1.78a1.63,1.63,0,0,0,2,.22l.41-.25a1.63,1.63,0,0,1,1.6-.09,11.26,11.26,0,0,0,1.6.67,1.66,1.66,0,0,1,1.06,1.19l.1.46a1.63,1.63,0,0,0,1.6,1.28h2.51a1.64,1.64,0,0,0,1.6-1.28l.09-.42a1.64,1.64,0,0,1,1.08-1.19,14,14,0,0,0,1.65-.68,1.61,1.61,0,0,1,1.59.09l.36.22a1.62,1.62,0,0,0,2-.22L320.74,59a1.62,1.62,0,0,0,.22-2l-.2-.33a1.64,1.64,0,0,1-.08-1.62,12.09,12.09,0,0,0,.69-1.66,1.66,1.66,0,0,1,1.2-1.08l.37-.08a1.64,1.64,0,0,0,1.28-1.6V48.13a1.63,1.63,0,0,0-1.28-1.6l-.37-.09a1.63,1.63,0,0,1-1.2-1.07,12.22,12.22,0,0,0-.69-1.67,1.62,1.62,0,0,1,.08-1.61l.2-.33a1.63,1.63,0,0,0-.22-2L319,38a1.62,1.62,0,0,0-2-.23l-.36.23A1.64,1.64,0,0,1,315,38a12.45,12.45,0,0,0-1.65-.68,1.64,1.64,0,0,1-1.08-1.2l-.09-.41a1.64,1.64,0,0,0-1.6-1.28h-2.51a1.63,1.63,0,0,0-1.6,1.28l-.1.46a1.64,1.64,0,0,1-1.06,1.18,14.18,14.18,0,0,0-1.6.67,1.61,1.61,0,0,1-1.6-.08l-.41-.26a1.64,1.64,0,0,0-2,.23l-1.77,1.77a1.64,1.64,0,0,0-.23,2l.28.43a1.63,1.63,0,0,1,.08,1.6,13.42,13.42,0,0,0-.64,1.56,1.65,1.65,0,0,1-1.19,1.07l-.5.11A1.63,1.63,0,0,0,294.39,48.13ZM302,49.38a7.39,7.39,0,1,1,7.38,7.39A7.37,7.37,0,0,1,302,49.38Z"/><path class="cls-5" d="M66.31,194.93v4.9a3.19,3.19,0,0,0,2.5,3.11l1,.22a3.16,3.16,0,0,1,2.32,2.08,27,27,0,0,0,1.26,3,3.14,3.14,0,0,1-.17,3.11l-.53.84a3.21,3.21,0,0,0,.43,4l3.47,3.47a3.18,3.18,0,0,0,4,.43l.79-.5a3.18,3.18,0,0,1,3.13-.16,23.7,23.7,0,0,0,3.11,1.3,3.18,3.18,0,0,1,2.06,2.32l.2.89a3.19,3.19,0,0,0,3.12,2.5h4.9A3.19,3.19,0,0,0,101,224l.18-.81a3.17,3.17,0,0,1,2.09-2.32,24,24,0,0,0,3.22-1.33,3.17,3.17,0,0,1,3.11.18l.69.43a3.18,3.18,0,0,0,4-.43l3.47-3.47a3.18,3.18,0,0,0,.43-4l-.4-.63a3.19,3.19,0,0,1-.15-3.15,26.33,26.33,0,0,0,1.35-3.24,3.19,3.19,0,0,1,2.33-2.11l.72-.16a3.19,3.19,0,0,0,2.5-3.11v-4.9a3.19,3.19,0,0,0-2.5-3.12l-.72-.16a3.18,3.18,0,0,1-2.33-2.1,25.7,25.7,0,0,0-1.35-3.24,3.19,3.19,0,0,1,.15-3.15l.4-.64a3.18,3.18,0,0,0-.43-4l-3.47-3.47a3.21,3.21,0,0,0-4-.43l-.69.44a3.19,3.19,0,0,1-3.11.17,23.9,23.9,0,0,0-3.22-1.32,3.18,3.18,0,0,1-2.09-2.33l-.18-.81a3.19,3.19,0,0,0-3.11-2.5h-4.9a3.19,3.19,0,0,0-3.12,2.5l-.2.89A3.18,3.18,0,0,1,87.56,174a23.7,23.7,0,0,0-3.11,1.3,3.18,3.18,0,0,1-3.13-.16l-.79-.5a3.21,3.21,0,0,0-4,.43l-3.47,3.47a3.21,3.21,0,0,0-.43,4l.53.84a3.14,3.14,0,0,1,.17,3.11,26.4,26.4,0,0,0-1.26,3.05,3.14,3.14,0,0,1-2.32,2.07l-1,.22A3.19,3.19,0,0,0,66.31,194.93Zm14.8,2.45A14.39,14.39,0,1,1,95.5,211.77,14.4,14.4,0,0,1,81.11,197.38Z"/><path class="cls-6" d="M104,152v3.15a2,2,0,0,0,1.6,2l.63.14a2,2,0,0,1,1.49,1.33,16.13,16.13,0,0,0,.81,2,2.06,2.06,0,0,1-.11,2l-.35.54a2.06,2.06,0,0,0,.29,2.55l2.22,2.22a2,2,0,0,0,2.55.28l.51-.32a2.06,2.06,0,0,1,2-.1,15.3,15.3,0,0,0,2,.83,2,2,0,0,1,1.32,1.49l.13.58a2.05,2.05,0,0,0,2,1.6h3.15a2,2,0,0,0,2-1.6l.12-.52a2.06,2.06,0,0,1,1.34-1.5,14.5,14.5,0,0,0,2.07-.85,2,2,0,0,1,2,.11l.44.28a2,2,0,0,0,2.55-.28l2.23-2.22a2,2,0,0,0,.28-2.55l-.26-.41a2.07,2.07,0,0,1-.1-2,14.7,14.7,0,0,0,.87-2.08,2.07,2.07,0,0,1,1.5-1.35l.46-.1a2.05,2.05,0,0,0,1.61-2V152a2,2,0,0,0-1.61-2l-.46-.11a2,2,0,0,1-1.5-1.35,15.21,15.21,0,0,0-.87-2.08,2.07,2.07,0,0,1,.1-2l.26-.4a2,2,0,0,0-.28-2.55l-2.23-2.23a2,2,0,0,0-2.55-.28l-.44.28a2,2,0,0,1-2,.11,15.76,15.76,0,0,0-2.07-.85A2,2,0,0,1,126.4,137l-.12-.52a2,2,0,0,0-2-1.61h-3.15a2.05,2.05,0,0,0-2,1.61l-.13.57a2,2,0,0,1-1.32,1.49,14.08,14.08,0,0,0-2,.84,2,2,0,0,1-2-.11l-.51-.32a2,2,0,0,0-2.55.28l-2.22,2.23a2.06,2.06,0,0,0-.29,2.55l.35.54a2.06,2.06,0,0,1,.11,2,16.67,16.67,0,0,0-.81,1.95,2.06,2.06,0,0,1-1.49,1.34l-.63.14A2,2,0,0,0,104,152Zm9.5,1.57a9.25,9.25,0,1,1,9.25,9.25A9.25,9.25,0,0,1,113.53,153.59Z"/><ellipse class="cls-7" cx="189.96" cy="262.8" rx="114.43" ry="68.98"/><ellipse class="cls-7" cx="270.86" cy="289.87" rx="95.29" ry="28.24"/><g class="cls-1"><polygon class="cls-8" points="185.69 136.22 185.69 262.1 216.16 289.77 216.16 163.9 185.69 136.22"/><path class="cls-9" d="M185.69,136.22l30.47,27.68,51.93,23.65c19.62-5.46,32.15-13.78,32.15-23.1,0-16.43-39-29.76-87-29.76A245.62,245.62,0,0,0,185.69,136.22Z"/><polygon class="cls-10" points="216.16 163.9 216.16 289.77 268.09 313.42 268.09 187.55 216.16 163.9"/><path class="cls-11" d="M270.05,187c.64-.19,1.28-.37,1.91-.57l1.62-.53,1.81-.6c.84-.3,1.67-.6,2.48-.91l.52-.19c1-.38,1.94-.77,2.86-1.17l.79-.35c.65-.28,1.28-.57,1.9-.86l.94-.47c.54-.26,1.06-.53,1.57-.8l.94-.51c.48-.27.95-.54,1.41-.82.29-.17.58-.34.86-.52l1.32-.87.74-.5c.47-.34.91-.68,1.35-1l.5-.39c.58-.47,1.12-.95,1.63-1.44.11-.1.19-.2.3-.3.39-.39.76-.78,1.11-1.18.15-.17.29-.35.43-.53s.52-.65.76-1,.27-.4.39-.6.4-.64.57-1,.22-.41.32-.62a10.2,10.2,0,0,0,.41-1c.08-.21.16-.41.23-.61.11-.36.19-.72.27-1.09a4.36,4.36,0,0,0,.11-.52,9.87,9.87,0,0,0,.14-1.63h0V290.32a9.87,9.87,0,0,1-.14,1.63,5,5,0,0,1-.11.53c-.08.36-.16.72-.27,1.08-.07.21-.15.41-.23.61a9.24,9.24,0,0,1-.41,1c-.1.21-.21.42-.32.62s-.36.64-.57,1-.25.4-.39.6-.49.66-.76,1l-.43.54c-.35.39-.72.78-1.11,1.16l-.3.32c-.51.48-1.05,1-1.63,1.43-.16.14-.34.27-.51.4-.43.34-.87.68-1.34,1l-.74.51c-.43.29-.86.58-1.32.86-.28.18-.57.36-.87.53l-1.4.81-.94.51c-.51.27-1,.54-1.57.8l-.94.47c-.62.29-1.25.58-1.9.86l-.79.36c-.92.39-1.87.78-2.86,1.16l-.52.19c-.72.28-1.45.55-2.2.81l-.28.1-1.81.6-1.62.53c-.62.2-1.26.38-1.9.57l-1.45.43-.52.15V187.55Z"/><polygon class="cls-12" points="121.01 179.94 121.01 280.92 200.3 286.48 200.3 185.5 121.01 179.94"/><path class="cls-13" d="M121,179.94l79.29,5.56-28.53-25.92C146.66,163.2,127.59,170.73,121,179.94Z"/><path class="cls-14" d="M208.7,222.05l-80-5.61a11.37,11.37,0,0,0-1.18,4.87c0,9.31,12.52,17.62,32.09,23.08Z"/><path class="cls-15" d="M127.54,222a11,11,0,0,0,.19,1.4c0,.24.11.47.18.71a9.67,9.67,0,0,0,.38,1.15q.14.36.3.72.25.54.57,1.08c.13.23.27.47.42.7a12.89,12.89,0,0,0,.78,1.09c.16.21.31.43.49.64.36.42.76.85,1.17,1.27l.4.42c.58.56,1.21,1.12,1.89,1.66l.5.38c.56.44,1.14.87,1.76,1.29l.81.54c.61.4,1.25.8,1.92,1.19l.89.51c1.05.59,2.14,1.17,3.31,1.73.84.41,1.71.8,2.61,1.19l.85.36,1.88.76c.6.24,1.22.47,1.84.7l1.46.53c.66.23,1.33.46,2,.68l1.48.49c1.28.4,2.59.79,3.94,1.17v73.77c-1.35-.37-2.66-.77-3.94-1.17l-.31-.09-1.17-.4-2-.67-1.46-.53c-.62-.23-1.24-.46-1.84-.7l-.49-.18c-.48-.19-.93-.39-1.39-.59l-.85-.35c-.88-.39-1.75-.78-2.59-1.18h0c-1.17-.56-2.26-1.14-3.31-1.73l-.39-.21c-.18-.1-.33-.2-.5-.31-.67-.39-1.31-.79-1.92-1.19-.18-.11-.38-.22-.55-.34l-.26-.19c-.62-.43-1.21-.86-1.77-1.3-.13-.1-.29-.2-.42-.31l-.07-.06c-.68-.55-1.31-1.1-1.89-1.67l0,0c-.13-.13-.23-.25-.35-.38-.41-.42-.81-.84-1.17-1.27l-.13-.14c-.14-.17-.23-.33-.36-.5-.28-.36-.55-.72-.78-1.08-.06-.08-.13-.16-.18-.24s-.15-.31-.24-.47c-.21-.35-.4-.71-.57-1.07-.05-.11-.13-.22-.17-.33s-.08-.27-.13-.4a10.16,10.16,0,0,1-.38-1.14c0-.15-.11-.29-.15-.43s0-.19,0-.29a10.8,10.8,0,0,1-.19-1.39c0-.15-.05-.29-.05-.44a2.71,2.71,0,0,1,0-.29V221.31C127.48,221.55,127.53,221.79,127.54,222Z"/><polygon class="cls-16" points="159.57 244.39 159.57 318.17 208.7 295.83 208.7 222.05 159.57 244.39"/><path class="cls-17" d="M166.21,274.43c2.11.5,4.3,1,6.54,1.41l2.6.48c1.14.21,2.28.41,3.45.6l2.36.37q2.67.4,5.41.75l2.34.29c2.31.26,4.66.5,7.05.7l.76.08c2.51.2,5.07.36,7.66.49,1.13.06,2.28.1,3.43.14s2.28.09,3.43.12c2.15.05,4.31.09,6.49.09s4.6,0,6.88-.09l1.45-.05c1.68-.06,3.35-.12,5-.2l2.17-.13c1.4-.08,2.79-.18,4.16-.28l2.28-.18c1.36-.12,2.7-.25,4-.39l2.1-.21c1.49-.17,2.95-.35,4.4-.55.52-.06,1-.12,1.55-.2q3-.41,5.82-.89c.5-.08,1-.18,1.47-.27,1.44-.25,2.87-.51,4.25-.78,1.22-.25,2.38-.51,3.56-.78.77-.17,1.56-.32,2.31-.5V323l-.28.07c-.66.16-1.36.29-2,.44-1.18.26-2.34.53-3.56.77l-.23.05c-1.31.26-2.66.5-4,.74l-1.47.27h-.08c-1.78.3-3.6.58-5.44.84l-.3,0-1.55.2c-1.17.15-2.34.31-3.54.45l-.86.09-2.09.22c-.82.08-1.63.18-2.46.25l-1.59.13-2.26.19-1.64.13c-.83.06-1.69.09-2.53.14l-2.17.13-.92.05c-1.35.07-2.72.11-4.09.15l-1.45.05h-.26q-3,.07-6.07.08h-.55c-2,0-3.91,0-5.84-.06l-.65,0c-1.15,0-2.28-.08-3.41-.12l-2.89-.1-.57,0c-2.58-.13-5.14-.29-7.65-.5h-.12c-.22,0-.42,0-.64-.06q-3.59-.3-7.05-.71l-2.34-.29q-2.74-.35-5.41-.75l-1.41-.19-.95-.17c-1.17-.19-2.31-.4-3.45-.61l-1.94-.34-.66-.14c-2.24-.44-4.43-.9-6.54-1.41Z"/><path class="cls-18" d="M269.17,274.45,217.73,251l-51.52,23.41c14.61,3.48,32.36,5.52,51.52,5.52S254.57,277.92,269.17,274.45Z"/></g><ellipse class="cls-7" cx="67.53" cy="279.94" rx="29" ry="24.14"/><path class="cls-19" d="M115,278.75h-.36c-.08-.35-.17-.71-.28-1.07-2.85-9.43-14.95-15.75-27.52-15.75s-24.67,6.32-27.52,15.75c-.11.36-.2.72-.28,1.07h-.36v3.36h0c.12,10.31,11.34,19.65,28.16,19.65s28-9.34,28.16-19.65h0Z"/><path class="cls-20" d="M86.83,258.84c-12.57,0-24.67,6.32-27.52,15.75-3.6,11.89,8.3,24.08,27.52,24.08s31.11-12.19,27.52-24.08C111.5,265.16,99.4,258.84,86.83,258.84Z"/><path class="cls-21" d="M86.83,259.86c-11.76,0-23,6-25.4,14.73-3,10.86,8,21.78,25.4,21.78s28.43-10.92,25.4-21.78C109.78,265.82,98.59,259.86,86.83,259.86Zm0,34.91c-16.11,0-26.53-10-23.87-20.18,2.17-8.29,12.71-14,23.87-14s21.7,5.69,23.87,14C113.36,284.73,102.93,294.77,86.83,294.77Z"/><path class="cls-21" d="M84.05,270.71a3.92,3.92,0,0,1,1.59-.53l0,2.72a5.62,5.62,0,0,1-1.59-.53.87.87,0,0,1-.52-.79A1.14,1.14,0,0,1,84.05,270.71ZM90.22,277a1.06,1.06,0,0,1,.6.9,1.09,1.09,0,0,1-.52,1,3.8,3.8,0,0,1-1.66.58l-.06-3A5.93,5.93,0,0,1,90.22,277Zm-3.39-15.1c-10.11,0-19.51,5.2-21.25,12.66-2.08,8.92,7.25,17.54,21.25,17.54s23.33-8.62,21.25-17.54C106.34,267.13,96.93,261.93,86.83,261.93Zm7.32,18.92a10.68,10.68,0,0,1-5.45,1.73l0,2.79H85.44l0-2.72A23,23,0,0,1,81,282a12.21,12.21,0,0,1-3.34-1.28L79.57,278a11.79,11.79,0,0,0,2.69,1,15.86,15.86,0,0,0,3.26.54l0-3.66a29.85,29.85,0,0,1-3.57-.79,6.15,6.15,0,0,1-2.34-1.26,2.4,2.4,0,0,1-.78-2.12,3.51,3.51,0,0,1,1.92-2.66,10.91,10.91,0,0,1,4.88-1.29l0-1.91h2.68l0,1.87a17.94,17.94,0,0,1,5.66,1.09l-1.24,2.27a15.91,15.91,0,0,0-4.38-1l.07,3.27a29.55,29.55,0,0,1,3.5.74,7.06,7.06,0,0,1,2.51,1.26,3.16,3.16,0,0,1,1.21,2.27A3.52,3.52,0,0,1,94.15,280.85Z"/><path class="cls-19" d="M110.47,268.1h-.36c-.08-.35-.17-.71-.28-1.07-2.85-9.43-15-15.75-27.52-15.75S57.64,257.6,54.79,267c-.11.36-.2.72-.28,1.07h-.36v3.36h0c.12,10.31,11.34,19.65,28.16,19.65s28-9.34,28.16-19.65h0Z"/><path class="cls-20" d="M82.31,248.19c-12.57,0-24.67,6.32-27.52,15.75C51.2,275.83,63.09,288,82.31,288s31.12-12.19,27.52-24.08C107,254.51,94.88,248.19,82.31,248.19Z"/><path class="cls-21" d="M82.31,249.21c-11.76,0-23,6-25.4,14.73-3,10.87,8,21.78,25.4,21.78s28.43-10.91,25.4-21.78C105.27,255.17,94.07,249.21,82.31,249.21Zm0,34.91c-16.1,0-26.53-10-23.87-20.18,2.17-8.29,12.71-14,23.87-14s21.7,5.69,23.87,14C108.84,274.08,98.42,284.12,82.31,284.12Z"/><path class="cls-21" d="M79.53,260.06a3.92,3.92,0,0,1,1.6-.53l0,2.72a5.43,5.43,0,0,1-1.58-.53.85.85,0,0,1-.52-.79A1.1,1.1,0,0,1,79.53,260.06Zm6.17,6.32a1.06,1.06,0,0,1,.6.9,1.1,1.1,0,0,1-.51,1,3.9,3.9,0,0,1-1.67.58l-.05-3A6,6,0,0,1,85.7,266.38Zm-3.39-15.1c-10.1,0-19.51,5.2-21.25,12.66-2.08,8.92,7.25,17.54,21.25,17.54s23.33-8.62,21.25-17.54C101.82,256.48,92.42,251.28,82.31,251.28Zm7.32,18.92a10.68,10.68,0,0,1-5.45,1.73l0,2.79H80.92L81,272a23,23,0,0,1-4.52-.63,12.21,12.21,0,0,1-3.34-1.28l2-2.77a11.7,11.7,0,0,0,2.68,1.05,15.86,15.86,0,0,0,3.26.54l0-3.66a29.85,29.85,0,0,1-3.57-.79,6,6,0,0,1-2.34-1.26,2.4,2.4,0,0,1-.78-2.12,3.51,3.51,0,0,1,1.92-2.66,11,11,0,0,1,4.88-1.29l0-1.91h2.68l0,1.87a17.88,17.88,0,0,1,5.66,1.09l-1.23,2.27a16,16,0,0,0-4.38-1l.06,3.27a30.21,30.21,0,0,1,3.51.74,7.09,7.09,0,0,1,2.5,1.26A3.12,3.12,0,0,1,91.23,267,3.5,3.5,0,0,1,89.63,270.2Z"/><path class="cls-19" d="M106.11,257.29h-.36c-.08-.35-.17-.71-.28-1.07-2.85-9.43-15-15.75-27.52-15.75s-24.67,6.32-27.52,15.75c-.11.36-.2.72-.28,1.07h-.36v3.36h0C49.91,271,61.13,280.3,78,280.3s28-9.34,28.16-19.65h0Z"/><path class="cls-20" d="M78,237.38c-12.57,0-24.67,6.32-27.52,15.75C46.83,265,58.73,277.21,78,277.21s31.11-12.19,27.52-24.08C102.62,243.7,90.52,237.38,78,237.38Z"/><path class="cls-21" d="M78,238.4c-11.76,0-23,6-25.4,14.73-3,10.87,8,21.78,25.4,21.78s28.43-10.91,25.4-21.78C100.9,244.36,89.71,238.4,78,238.4Zm0,34.91c-16.11,0-26.53-10-23.87-20.18,2.17-8.29,12.71-14,23.87-14s21.7,5.69,23.87,14C104.48,263.27,94.05,273.31,78,273.31Z"/><path class="cls-21" d="M75.17,249.25a3.92,3.92,0,0,1,1.6-.53l0,2.72a5.62,5.62,0,0,1-1.59-.53.87.87,0,0,1-.52-.79A1.14,1.14,0,0,1,75.17,249.25Zm6.17,6.32a1.06,1.06,0,0,1,.6.9,1.1,1.1,0,0,1-.51,1,3.9,3.9,0,0,1-1.67.58l-.06-3A5.93,5.93,0,0,1,81.34,255.57ZM78,240.47c-10.11,0-19.51,5.2-21.25,12.66C54.62,262.05,64,270.67,78,270.67s23.33-8.62,21.25-17.54C97.46,245.67,88.05,240.47,78,240.47Zm7.32,18.92a10.68,10.68,0,0,1-5.45,1.73l.05,2.79H76.56l0-2.72a23,23,0,0,1-4.51-.63,12.21,12.21,0,0,1-3.34-1.28l2-2.77a11.79,11.79,0,0,0,2.69,1.05,15.86,15.86,0,0,0,3.26.54l0-3.66a29.85,29.85,0,0,1-3.57-.79,6,6,0,0,1-2.34-1.26,2.4,2.4,0,0,1-.78-2.12,3.51,3.51,0,0,1,1.92-2.66,10.91,10.91,0,0,1,4.88-1.29l0-1.91H79.5l0,1.87a17.94,17.94,0,0,1,5.66,1.09L84,249.64a16.29,16.29,0,0,0-4.38-1l.07,3.28a27.83,27.83,0,0,1,3.5.73,7.06,7.06,0,0,1,2.51,1.26,3.16,3.16,0,0,1,1.21,2.27A3.52,3.52,0,0,1,85.27,259.39Z"/><path class="cls-19" d="M110.47,248.84h-.36c-.08-.36-.17-.72-.28-1.08C107,238.34,94.88,232,82.31,232s-24.67,6.33-27.52,15.75c-.11.36-.2.72-.28,1.08h-.36v3.36h0c.12,10.3,11.34,19.64,28.16,19.64s28-9.34,28.16-19.64h0Z"/><path class="cls-20" d="M82.31,228.92c-12.57,0-24.67,6.33-27.52,15.75-3.59,11.89,8.3,24.08,27.52,24.08s31.12-12.19,27.52-24.08C107,235.25,94.88,228.92,82.31,228.92Z"/><path class="cls-21" d="M82.31,229.94c-11.76,0-23,6-25.4,14.73-3,10.87,8,21.78,25.4,21.78s28.43-10.91,25.4-21.78C105.27,235.9,94.07,229.94,82.31,229.94Zm0,34.91c-16.1,0-26.53-10-23.87-20.18,2.17-8.29,12.71-14,23.87-14s21.7,5.69,23.87,14C108.84,254.81,98.42,264.85,82.31,264.85Z"/><path class="cls-21" d="M79.53,240.8a3.77,3.77,0,0,1,1.6-.54l0,2.72a5.14,5.14,0,0,1-1.58-.53.84.84,0,0,1-.52-.79A1.08,1.08,0,0,1,79.53,240.8Zm6.17,6.32a1.06,1.06,0,0,1,.6.89,1.1,1.1,0,0,1-.51,1,3.89,3.89,0,0,1-1.67.59l-.05-3.05A6.29,6.29,0,0,1,85.7,247.12ZM82.31,232c-10.1,0-19.51,5.21-21.25,12.66-2.08,8.92,7.25,17.54,21.25,17.54s23.33-8.62,21.25-17.54C101.82,237.22,92.42,232,82.31,232Zm7.32,18.92a10.68,10.68,0,0,1-5.45,1.73l0,2.79H80.92l0-2.72a21.61,21.61,0,0,1-4.52-.63,12.23,12.23,0,0,1-3.34-1.27l2-2.77a12.18,12.18,0,0,0,2.68,1,16.57,16.57,0,0,0,3.26.55l0-3.67a28,28,0,0,1-3.57-.79,6,6,0,0,1-2.34-1.26,2.4,2.4,0,0,1-.78-2.12,3.53,3.53,0,0,1,1.92-2.66,11,11,0,0,1,4.88-1.29l0-1.9h2.68l0,1.87a17.63,17.63,0,0,1,5.66,1.08l-1.23,2.27a16,16,0,0,0-4.38-1l.06,3.27a30.39,30.39,0,0,1,3.51.73,7.09,7.09,0,0,1,2.5,1.26,3.14,3.14,0,0,1,1.21,2.28A3.48,3.48,0,0,1,89.63,250.93Z"/><path class="cls-19" d="M112.73,238h-.36c-.08-.36-.17-.72-.28-1.08-2.85-9.42-15-15.75-27.52-15.75S59.9,227.53,57.05,237c-.11.36-.2.72-.28,1.08h-.36v3.36h0C56.53,251.69,67.75,261,84.57,261s28-9.34,28.16-19.64h0Z"/><path class="cls-20" d="M84.57,218.11c-12.57,0-24.67,6.33-27.52,15.75-3.59,11.9,8.3,24.08,27.52,24.08s31.12-12.18,27.52-24.08C109.24,224.44,97.14,218.11,84.57,218.11Z"/><path class="cls-21" d="M84.57,219.13c-11.76,0-22.95,6-25.4,14.73-3,10.87,8,21.78,25.4,21.78S113,244.73,110,233.86C107.52,225.09,96.33,219.13,84.57,219.13Zm0,34.91C68.46,254,58,244,60.7,233.86c2.17-8.29,12.71-14,23.87-14s21.7,5.69,23.87,14C111.1,244,100.68,254,84.57,254Z"/><path class="cls-21" d="M81.79,230a3.91,3.91,0,0,1,1.6-.54l0,2.72a5.14,5.14,0,0,1-1.58-.53.87.87,0,0,1-.53-.79A1.12,1.12,0,0,1,81.79,230ZM88,236.31a1.06,1.06,0,0,1,.6.89,1.1,1.1,0,0,1-.51,1,3.89,3.89,0,0,1-1.67.59l-.06-3A5.93,5.93,0,0,1,88,236.31ZM84.57,221.2c-10.1,0-19.51,5.21-21.25,12.66-2.08,8.92,7.25,17.54,21.25,17.54s23.33-8.62,21.25-17.54C104.08,226.41,94.67,221.2,84.57,221.2Zm7.32,18.92a10.68,10.68,0,0,1-5.45,1.73l0,2.79H83.18l0-2.72a22.3,22.3,0,0,1-4.52-.62A12.54,12.54,0,0,1,75.36,240l2-2.77a12,12,0,0,0,2.68,1,16.57,16.57,0,0,0,3.26.55l0-3.66a29.66,29.66,0,0,1-3.57-.8,6,6,0,0,1-2.34-1.26,2.4,2.4,0,0,1-.78-2.12,3.53,3.53,0,0,1,1.92-2.66,11,11,0,0,1,4.88-1.29l0-1.9h2.69l0,1.87a17.63,17.63,0,0,1,5.66,1.08l-1.24,2.27a15.83,15.83,0,0,0-4.37-1l.06,3.27a30.39,30.39,0,0,1,3.51.73,7.09,7.09,0,0,1,2.5,1.26,3.18,3.18,0,0,1,1.21,2.28A3.5,3.5,0,0,1,91.89,240.12Z"/><ellipse class="cls-7" cx="108.21" cy="297.83" rx="27.26" ry="19.71"/><circle class="cls-20" cx="119.56" cy="287.31" r="29.82"/><path class="cls-21" d="M119.56,259.78a27.53,27.53,0,1,0,27.53,27.53A27.53,27.53,0,0,0,119.56,259.78Zm0,53.4a25.87,25.87,0,1,1,25.87-25.87A25.87,25.87,0,0,1,119.56,313.18Z"/><path class="cls-21" d="M116.42,281a3.4,3.4,0,0,1,1.8-.92v4.56a4.71,4.71,0,0,1-1.77-.87,1.63,1.63,0,0,1-.61-1.31A2,2,0,0,1,116.42,281ZM123.15,291a1.67,1.67,0,0,1,.59,1.31,1.85,1.85,0,0,1-.58,1.38,3.39,3.39,0,0,1-1.73.84v-4.43A5,5,0,0,1,123.15,291Zm-3.59-26.76a23,23,0,1,0,23,23A23,23,0,0,0,119.56,264.28Zm7.42,32.2a9.35,9.35,0,0,1-5.55,2.33v3.6h-3.21v-3.5a17.64,17.64,0,0,1-4.53-.84,11.34,11.34,0,0,1-3.47-1.73l1.76-3.92a11.9,11.9,0,0,0,2.86,1.51,13.48,13.48,0,0,0,3.38.77v-5.37a23.6,23.6,0,0,1-3.86-1.22,6.69,6.69,0,0,1-2.63-2,5.3,5.3,0,0,1-1.06-3.46,6.16,6.16,0,0,1,1.94-4.57,9.18,9.18,0,0,1,5.61-2.33v-3.57h3.21v3.5a14.25,14.25,0,0,1,6.52,2l-1.61,3.95a12.91,12.91,0,0,0-4.91-1.67v5.46a23.63,23.63,0,0,1,3.8,1.18,6.69,6.69,0,0,1,2.62,2,5.22,5.22,0,0,1,1.06,3.42A6.06,6.06,0,0,1,127,296.48Z"/><path class="cls-22" d="M23.05,195.06A23.05,23.05,0,1,0,46.1,218.11,23.05,23.05,0,0,0,23.05,195.06Zm0,44.33a21.28,21.28,0,1,1,21.28-21.28A21.27,21.27,0,0,1,23.05,239.39Z"/><path class="cls-23" d="M23.05,198.12a20,20,0,1,0,20,20A20,20,0,0,0,23.05,198.12Zm0,37.79a17.8,17.8,0,1,1,17.8-17.8A17.8,17.8,0,0,1,23.05,235.91Z"/><path class="cls-24" d="M27.43,217.56a17.19,17.19,0,0,0-2.94-.91v-4.22a9.92,9.92,0,0,1,3.8,1.29l1.24-3.05a10.86,10.86,0,0,0-5-1.52v-2.7H22v2.75a7.17,7.17,0,0,0-4.33,1.8,4.78,4.78,0,0,0-1.51,3.54,4.13,4.13,0,0,0,.82,2.67,5.34,5.34,0,0,0,2,1.53,19.22,19.22,0,0,0,3,.94v4.14a10.09,10.09,0,0,1-2.61-.59,9.06,9.06,0,0,1-2.21-1.17l-1.36,3a8.59,8.59,0,0,0,2.68,1.34,13.81,13.81,0,0,0,3.5.65v2.7h2.48V227a7.2,7.2,0,0,0,4.29-1.8,4.68,4.68,0,0,0,1.49-3.49,4,4,0,0,0-.82-2.64A5,5,0,0,0,27.43,217.56ZM22,216a4,4,0,0,1-1.37-.67,1.29,1.29,0,0,1-.47-1,1.6,1.6,0,0,1,.45-1.13A2.68,2.68,0,0,1,22,212.5Zm3.82,7.05a2.76,2.76,0,0,1-1.34.65V220.3a4.2,4.2,0,0,1,1.33.69,1.32,1.32,0,0,1,.46,1A1.45,1.45,0,0,1,25.83,223.08Z"/><path class="cls-25" d="M58.78,146a13.56,13.56,0,1,0,13.56,13.55A13.55,13.55,0,0,0,58.78,146Zm0,26.06a12.51,12.51,0,1,1,12.51-12.51A12.51,12.51,0,0,1,58.78,172.09Z"/><path class="cls-26" d="M58.78,147.82a11.76,11.76,0,1,0,11.76,11.76A11.77,11.77,0,0,0,58.78,147.82Zm0,22.23a10.47,10.47,0,1,1,10.47-10.47A10.47,10.47,0,0,1,58.78,170.05Z"/><path class="cls-27" d="M61.36,159.25a10.89,10.89,0,0,0-1.73-.53v-2.48a5.8,5.8,0,0,1,2.23.76l.73-1.8a6.54,6.54,0,0,0-3-.89v-1.59H58.17v1.62a4.22,4.22,0,0,0-2.55,1.06,2.8,2.8,0,0,0-.88,2.08,2.41,2.41,0,0,0,.48,1.57,3.17,3.17,0,0,0,1.2.9,10.72,10.72,0,0,0,1.75.55v2.44a6.08,6.08,0,0,1-1.53-.35,5.16,5.16,0,0,1-1.3-.69l-.81,1.78a5,5,0,0,0,1.58.79,7.74,7.74,0,0,0,2.06.38v1.59h1.46v-1.63a4.25,4.25,0,0,0,2.52-1.06A2.74,2.74,0,0,0,63,161.7a2.42,2.42,0,0,0-.48-1.56A3.09,3.09,0,0,0,61.36,159.25Zm-3.19-.89a2.21,2.21,0,0,1-.8-.4.72.72,0,0,1-.28-.6,1,1,0,0,1,.26-.66,1.63,1.63,0,0,1,.82-.42Zm2.25,4.14a1.58,1.58,0,0,1-.79.38v-2a2.18,2.18,0,0,1,.78.41.74.74,0,0,1,.27.59A.86.86,0,0,1,60.42,162.5Z"/><path class="cls-28" d="M354.51,123.55a13.56,13.56,0,1,0,13.56,13.56A13.56,13.56,0,0,0,354.51,123.55Zm0,26.07A12.51,12.51,0,1,1,367,137.11,12.51,12.51,0,0,1,354.51,149.62Z"/><path class="cls-29" d="M354.51,125.35a11.76,11.76,0,1,0,11.76,11.76A11.75,11.75,0,0,0,354.51,125.35Zm0,22.23A10.47,10.47,0,1,1,365,137.11,10.46,10.46,0,0,1,354.51,147.58Z"/><path class="cls-30" d="M357.09,136.78a9.94,9.94,0,0,0-1.73-.53v-2.49a6,6,0,0,1,2.23.76l.73-1.79a6.35,6.35,0,0,0-3-.89v-1.59H353.9v1.62a4.16,4.16,0,0,0-2.55,1.06,2.79,2.79,0,0,0-.88,2.08,2.43,2.43,0,0,0,.48,1.57,3,3,0,0,0,1.2.89,10.65,10.65,0,0,0,1.75.56v2.44a6.08,6.08,0,0,1-1.53-.35,5.5,5.5,0,0,1-1.3-.69l-.8,1.78a5,5,0,0,0,1.57.79,8.16,8.16,0,0,0,2.06.38V144h1.46v-1.63a4.31,4.31,0,0,0,2.53-1.06,2.78,2.78,0,0,0,.87-2.05,2.38,2.38,0,0,0-.48-1.56A3.09,3.09,0,0,0,357.09,136.78Zm-3.19-.9a2.21,2.21,0,0,1-.8-.39.75.75,0,0,1-.28-.6,1,1,0,0,1,.26-.66,1.63,1.63,0,0,1,.82-.42Zm2.25,4.15a1.67,1.67,0,0,1-.79.38v-2a2.55,2.55,0,0,1,.78.41.77.77,0,0,1,.27.6A.89.89,0,0,1,356.15,140Z"/><path class="cls-31" d="M353.11,192.92A20.08,20.08,0,1,0,373.18,213,20.08,20.08,0,0,0,353.11,192.92Zm0,38.61A18.53,18.53,0,1,1,371.64,213,18.53,18.53,0,0,1,353.11,231.53Z"/><path class="cls-32" d="M353.11,195.59A17.41,17.41,0,1,0,370.52,213,17.41,17.41,0,0,0,353.11,195.59Zm0,32.91a15.5,15.5,0,1,1,15.5-15.5A15.5,15.5,0,0,1,353.11,228.5Z"/><path class="cls-33" d="M356.92,212.51a16,16,0,0,0-2.56-.79v-3.67a8.56,8.56,0,0,1,3.31,1.12l1.08-2.66a9.64,9.64,0,0,0-4.39-1.32v-2.35H352.2v2.4a6.21,6.21,0,0,0-3.77,1.56,4.15,4.15,0,0,0-1.31,3.08,3.6,3.6,0,0,0,.71,2.33,4.66,4.66,0,0,0,1.77,1.33,16.4,16.4,0,0,0,2.6.82V218a8.42,8.42,0,0,1-2.27-.52,7.81,7.81,0,0,1-1.93-1l-1.19,2.63a7.63,7.63,0,0,0,2.34,1.17,11.35,11.35,0,0,0,3.05.56v2.36h2.16v-2.42a6.3,6.3,0,0,0,3.74-1.57,4.06,4.06,0,0,0,1.3-3,3.5,3.5,0,0,0-.72-2.3A4.52,4.52,0,0,0,356.92,212.51Zm-4.72-1.33a3.38,3.38,0,0,1-1.19-.58,1.12,1.12,0,0,1-.41-.89,1.4,1.4,0,0,1,.39-1,2.34,2.34,0,0,1,1.21-.62Zm3.33,6.14a2.38,2.38,0,0,1-1.17.57v-3a3.57,3.57,0,0,1,1.16.61,1.13,1.13,0,0,1,.4.88A1.27,1.27,0,0,1,355.53,217.32Z"/><path class="cls-34" d="M34,102.78A17.92,17.92,0,1,0,52,120.7,17.92,17.92,0,0,0,34,102.78Zm0,34.45A16.54,16.54,0,1,1,50.57,120.7,16.53,16.53,0,0,1,34,137.23Z"/><path class="cls-35" d="M34,105.16A15.54,15.54,0,1,0,49.57,120.7,15.53,15.53,0,0,0,34,105.16Zm0,29.37A13.83,13.83,0,1,1,47.87,120.7,13.83,13.83,0,0,1,34,134.53Z"/><path class="cls-36" d="M37.44,120.26a15,15,0,0,0-2.29-.7v-3.28a7.82,7.82,0,0,1,3,1l1-2.37a8.47,8.47,0,0,0-3.92-1.18v-2.1H33.22v2.14a5.57,5.57,0,0,0-3.36,1.4,3.72,3.72,0,0,0-1.17,2.75,3.14,3.14,0,0,0,.64,2.07,4,4,0,0,0,1.58,1.19,13.76,13.76,0,0,0,2.31.73v3.23a7.81,7.81,0,0,1-2-.47,6.81,6.81,0,0,1-1.72-.9l-1.06,2.35a6.84,6.84,0,0,0,2.08,1,10.15,10.15,0,0,0,2.72.5v2.11h1.93v-2.16a5.63,5.63,0,0,0,3.34-1.4,3.68,3.68,0,0,0,1.16-2.71,3.13,3.13,0,0,0-.64-2.06A4.08,4.08,0,0,0,37.44,120.26Zm-4.22-1.18a3.17,3.17,0,0,1-1.06-.52,1,1,0,0,1-.37-.79,1.26,1.26,0,0,1,.35-.88,2,2,0,0,1,1.08-.55Zm3,5.48a2.07,2.07,0,0,1-1,.5V122.4a2.9,2.9,0,0,1,1,.54,1,1,0,0,1,.36.79A1.1,1.1,0,0,1,36.19,124.56Z"/><path class="cls-37" d="M394.19,152.31a16,16,0,1,0,16,16A16,16,0,0,0,394.19,152.31Zm0,30.75A14.76,14.76,0,1,1,409,168.3,14.76,14.76,0,0,1,394.19,183.06Z"/><path class="cls-38" d="M394.19,154.43a13.87,13.87,0,1,0,13.87,13.87A13.87,13.87,0,0,0,394.19,154.43Zm0,26.22a12.35,12.35,0,1,1,12.35-12.35A12.35,12.35,0,0,1,394.19,180.65Z"/><path class="cls-39" d="M397.23,167.91a12.83,12.83,0,0,0-2-.62v-2.93a6.85,6.85,0,0,1,2.63.89l.86-2.12a7.65,7.65,0,0,0-3.49-1v-1.87h-1.72v1.91a4.91,4.91,0,0,0-3,1.25,3.29,3.29,0,0,0-1,2.45,2.82,2.82,0,0,0,.57,1.85,3.54,3.54,0,0,0,1.41,1.06,13.37,13.37,0,0,0,2.07.66v2.87a6.52,6.52,0,0,1-1.81-.41,6.4,6.4,0,0,1-1.54-.81l-.94,2.1a6,6,0,0,0,1.86.93,9.59,9.59,0,0,0,2.43.45v1.88h1.72v-1.93a5.06,5.06,0,0,0,3-1.25,3.25,3.25,0,0,0,1-2.42,2.78,2.78,0,0,0-.57-1.83A3.57,3.57,0,0,0,397.23,167.91Zm-3.76-1.06a2.63,2.63,0,0,1-1-.46.88.88,0,0,1-.33-.71,1.1,1.1,0,0,1,.31-.78,1.89,1.89,0,0,1,1-.49Zm2.65,4.9a1.92,1.92,0,0,1-.93.44v-2.37a2.9,2.9,0,0,1,.92.48.9.9,0,0,1,.32.71A1.05,1.05,0,0,1,396.12,171.75Z"/><path class="cls-40" d="M137.31,16.88a13,13,0,1,0,13,13A13,13,0,0,0,137.31,16.88Zm0,25.05a12,12,0,1,1,12-12A12,12,0,0,1,137.31,41.93Z"/><path class="cls-41" d="M137.31,18.6a11.3,11.3,0,1,0,11.3,11.3A11.3,11.3,0,0,0,137.31,18.6Zm0,21.36A10.06,10.06,0,1,1,147.37,29.9,10.05,10.05,0,0,1,137.31,40Z"/><path class="cls-42" d="M139.78,29.59a10,10,0,0,0-1.66-.52V26.69a5.55,5.55,0,0,1,2.15.73l.7-1.73a6.22,6.22,0,0,0-2.85-.85V23.31h-1.4v1.56a4.06,4.06,0,0,0-2.45,1,2.75,2.75,0,0,0-.85,2,2.31,2.31,0,0,0,.47,1.51,2.82,2.82,0,0,0,1.15.86,9.8,9.8,0,0,0,1.68.54v2.34a5.62,5.62,0,0,1-1.47-.34,4.77,4.77,0,0,1-1.25-.66l-.77,1.71a4.73,4.73,0,0,0,1.51.76,7.63,7.63,0,0,0,2,.37V36.5h1.4V34.93a4.19,4.19,0,0,0,2.43-1,2.67,2.67,0,0,0,.84-2,2.3,2.3,0,0,0-.46-1.5A2.86,2.86,0,0,0,139.78,29.59Zm-3.06-.87a2,2,0,0,1-.77-.37.73.73,0,0,1-.27-.58.91.91,0,0,1,.25-.64,1.59,1.59,0,0,1,.79-.4Zm2.16,4a1.46,1.46,0,0,1-.76.36V31.14a2.17,2.17,0,0,1,.75.39.74.74,0,0,1,.26.58A.82.82,0,0,1,138.88,32.71Z"/><path class="cls-43" d="M239.15,145s-27.63-2.59-30.45,3.49,31.71,14.48,37,16S281.25,183,281.25,183s-4.09,29.05-5,34.52S273.62,245,278,255.79s14.71,15.67,16.24,13-.94-66.14,0-68.47,5.34-23.86,5.34-23.86Z"/><path class="cls-44" d="M334.91,255.79s1.82,10.4,7.36,9,27.37-14.25,28.06-16.06-4.8-3.66-7.47-2.38-13.61,5.1-14.61,5.41Z"/><path class="cls-44" d="M286.18,228.18s-6.54,1.78-4.34,10.17,18.08,24.16,21,23-2.74-23.72-6.77-26.57S286.18,228.18,286.18,228.18Z"/><path class="cls-45" d="M310.88,129.27s36.66,23.73,29.84,38.36-45.84,73.92-45.84,73.92-9.11-10.08-8.06-13.83,25.18-62.94,20.93-66.43-36.89-24.67-36.89-24.67S298.32,119.9,310.88,129.27Z"/><path class="cls-46" d="M337,168.15c-1.17-8.07-6.08-15-7.91-23a14.11,14.11,0,0,1-.28-1.75,142.23,142.23,0,0,0-18-14.16c-12.56-9.37-40,7.35-40,7.35s32.64,21.17,36.89,24.67S287.87,224,286.82,227.72a5.5,5.5,0,0,0,.67,3.4c4.62-4.56,17.63-35.1,30.12-36,0,0-1.85,1.85-1.81,1.84,8.89-9.05,17.06-17.89,21.67-24.16C337.39,171.22,337.27,169.68,337,168.15Z"/><path class="cls-45" d="M250.91,157.26s11.72,15.15,51.52,24.17c18,29.11,32.48,74.36,32.48,74.36l13.34-4.08s-9.49-69.83-21.24-84c-6.66-8-37.32-33.94-48.57-37S254.93,146.07,250.91,157.26Z"/><path class="cls-47" d="M249.39,44.58s-2.88,16.57-3.67,19.54,9.16,11,14.6,9.38,7.6-8.47,7.6-8.47l-1.18-14.76S250.91,46.38,249.39,44.58Z"/><path class="cls-48" d="M249.39,44.58s-2.88,16.57-3.67,19.54,9.16,11,14.6,9.38,7.6-8.47,7.6-8.47l-1.18-14.76S250.91,46.38,249.39,44.58Z"/><path class="cls-49" d="M244.17,55.77,262,75.47l5.34-18.2S294.7,65,298,68.68s-17.21,62.92-19.54,63.88S201.62,63.93,244.17,55.77Z"/><path class="cls-45" d="M337,114c-1-1-35.76-41.61-39-45.27s-30.59-11.41-30.59-11.41l7.42,66.41L244.17,55.77c-42.55,8.16-19.4,56.41-14.27,60.13,3.59,2.61,10.23,26.28,13.91,40.3a11.19,11.19,0,0,1,.67,1c.26.45.54.89.82,1.33l.43.51c.55.51,1.08,1.05,1.62,1.58.09,0,1,.71,1.43,1.05l.26.06c.44.11.88.24,1.32.38,8.13-9,26.25-28.84,28.05-29.57,2.33-1,29.06,4.87,29.06,4.87s.16-8.13-4.14-14c-.58-.79-5.67-11.27-2.83-12,3.71-1,13,12.71,19.61,13.42C330.13,125.86,337.41,114.41,337,114Z"/><path class="cls-46" d="M278.41,132.56c.54-.23,2.85,0,6.07.51-.07-10.89,14-8.89,14.94-18.56.11-1.17,2.59-7,2.7-5.64.15-.92.3-1.84.48-2.75A10.1,10.1,0,0,1,310.2,98a13,13,0,0,1-.46-1.5,26.23,26.23,0,0,1-8.92-5.41,32.9,32.9,0,0,1-5.1-6.13c-.91,8-2.05,15.88-5.21,23.51-2.5,6-8.11,10.22-14.91,8.42.71,5.93,1.18,10.59,1.22,12.82-24,34-28.43,12.36-30.24,4.92,13.37-1.11,28.62-9.33,28.62-9.33l-4.79-10c-7.5-.08-14.91-6.14-11.74-15.2a50.06,50.06,0,0,0,1.63-5.89L244.17,55.77c-4,.77-9.43,3.48-12.3,4.88.51,1.81,4.51,5.33,6,15.17a59.56,59.56,0,0,0,8.88.09c-.66,2.79-2.33,6.36-2.13,9,3.72,5.57,7.69,8.87,9.73,11.91a12.72,12.72,0,0,1-6.39,6.51c-1.59.6-3.23-4.6-6.63-14.81-13.74,12.67-15.26,24.62-11.42,27.4,3.59,2.61,10.23,26.28,13.91,40.3a11.19,11.19,0,0,1,.67,1c.26.45.54.89.82,1.33l.43.51c.55.51,1.08,1.05,1.62,1.58.09,0,1,.71,1.43,1.05l.26.06c.44.11.88.24,1.32.38C258.49,153.15,276.61,133.29,278.41,132.56Z"/><path class="cls-47" d="M285.41,21.44s-5,19.15-7.48,24.52c-6.38,14-12.05,10.63-15.57,10.24s-12.2-7.29-13.74-10.32c-2.6-5.14-5.72-15.76-3-21.53S274.64,2.93,285.41,21.44Z"/><path class="cls-50" d="M244.17,55.77s32.46,63.41,32.1,72.23c0,0-27.54-44.79-29.51-45.71L248.38,74l-8.78.26S234.06,62,231.87,60.65,242.26,55.76,244.17,55.77Z"/><path class="cls-50" d="M267.36,57.27s.81,53,9,68.08c0,0,.91-43.68.74-47l-4.92-3.17,5.08-.8a101.52,101.52,0,0,0,2.32-14C275.44,58.45,269.64,59.13,267.36,57.27Z"/><polygon class="cls-51" points="244.17 55.77 247.86 53.17 259.3 71.02 254.16 78.83 244.17 55.77"/><polygon class="cls-51" points="259.3 71.02 267.33 59.01 268.2 77.39 259.3 71.02"/><polygon class="cls-52" points="256.06 75.94 259.16 79.84 263.67 78.97 265.12 75.18 259.3 71.02 256.06 75.94"/><path class="cls-45" d="M224.35,66.57s-11.11,22.28-2.84,42c5.77,13.78,15.51,23,33.7,21.66,17.86-1.34,39-15.6,39-15.6s.14-8.93-3.48-10.31c0,0-18.24,13.61-35.31,10.14-13.08-2.66-14.2-21.85-14.14-25.16S224.35,66.57,224.35,66.57Z"/><path class="cls-47" d="M289.7,105s6.05-8.5,8.5-9.79,18.73,1.62,18.73,1.62,2.5,9.3-2.12,8.57-11.77,4.67-12.44,4.88-8.65,3-10.86,2.92S289.7,105,289.7,105Z"/><polygon class="cls-53" points="323.82 92.69 307.9 135.71 308.93 137.04 336.7 139.51 357.96 99.93 356.73 99.01 323.82 92.69"/><polygon class="cls-54" points="324.82 93.82 308.93 137.04 338.48 141.59 357.96 99.93 324.82 93.82"/><path class="cls-55" d="M340.37,111.49a3.54,3.54,0,1,1-3.22-3.4A3.32,3.32,0,0,1,340.37,111.49Z"/><path class="cls-47" d="M348.85,118.71s-1.37,5.76-3.78,6c-4.29.34-10.21-3.14-11.92-.19s-4,2.33-2.76,7.11,1.27,7.1,6.18,8.5,11.87,1.84,13.58-2.1S355.38,121.52,348.85,118.71Z"/><path class="cls-56" d="M252.36,34.17s2.66-2.31,3.07-10.1,6-9.16,12.59-5,15,7.8,20.3,4.1,6.94-15.51-3.22-17S267,8.4,261,5.79,245.85,3.9,243.37,14s-2.25,22.67,4.47,30.34c0,0-.24-4-.2-5.83C244,31.51,248.82,28.15,252.36,34.17Z"/><path class="cls-52" d="M259.16,79.84c.17,2.87,1,22.35-15.87,26.89-11.48,3.09-28.31,17.88-28.54,18.53s-.26,16.55-.26,16.55l13.29-3.32c1.59-2.62,17.51-19.14,27.67-24.06S263.67,79,263.67,79Z"/></g></g></g></svg>