<svg xmlns="http://www.w3.org/2000/svg" viewBox="0 0 71.04 71.04"><defs><style>.cls-1{fill:#fff;}</style></defs><title>firewall</title><g id="Capa_2" data-name="Capa 2"><g id="Capa_1-2" data-name="Capa 1"><path class="cls-1" d="M2.37,13H17.76a2.37,2.37,0,0,0,2.37-2.36V2.37A2.37,2.37,0,0,0,17.76,0H2.37A2.37,2.37,0,0,0,0,2.37v8.29A2.37,2.37,0,0,0,2.37,13Zm0-10.65H17.76v8.29H2.37Z"/><path class="cls-1" d="M8.29,4.74H5.92a1.18,1.18,0,0,0,0,2.36H8.29a1.18,1.18,0,0,0,0-2.36Z"/><path class="cls-1" d="M24.86,13H46.17a2.37,2.37,0,0,0,2.37-2.36V2.37A2.37,2.37,0,0,0,46.17,0H24.86A2.37,2.37,0,0,0,22.5,2.37v8.29A2.36,2.36,0,0,0,24.86,13Zm0-10.65H46.17v8.29H24.86Z"/><path class="cls-1" d="M34.34,4.74H28.42a1.18,1.18,0,1,0,0,2.36h5.92a1.18,1.18,0,0,0,0-2.36Z"/><path class="cls-1" d="M11.84,20.13H5.92a1.19,1.19,0,0,0,0,2.37h5.92a1.19,1.19,0,0,0,0-2.37Z"/><path class="cls-1" d="M68.67,15.39H2.37A2.37,2.37,0,0,0,0,17.76v8.29a2.38,2.38,0,0,0,2.37,2.37H22.5v7.1H20.13V33.15a2.37,2.37,0,0,0-2.37-2.37H2.37A2.37,2.37,0,0,0,0,33.15v8.29a2.38,2.38,0,0,0,2.37,2.37H14.21v2.36H2.37A2.38,2.38,0,0,0,0,48.54v8.29A2.37,2.37,0,0,0,2.37,59.2H14.21v5.92A5.93,5.93,0,0,0,20.13,71H50.91a5.93,5.93,0,0,0,5.92-5.92V59.2H68.67A2.37,2.37,0,0,0,71,56.83V48.54a2.38,2.38,0,0,0-2.37-2.37H56.83V43.81H68.67A2.38,2.38,0,0,0,71,41.44V33.15a2.37,2.37,0,0,0-2.37-2.37H53.28a2.37,2.37,0,0,0-2.37,2.37v2.37H48.54v-7.1H68.67A2.38,2.38,0,0,0,71,26.05V17.76A2.37,2.37,0,0,0,68.67,15.39ZM14.21,56.83H2.37V48.54H14.21ZM30.78,17.76h9.47a5.92,5.92,0,0,1,5.92,5.92V35.52H43.81V23.68a3.56,3.56,0,0,0-3.56-3.55H30.78a3.55,3.55,0,0,0-3.55,3.55V35.52H24.86V23.68A5.93,5.93,0,0,1,30.78,17.76Zm10.66,5.92V35.52H29.6V23.68a1.18,1.18,0,0,1,1.18-1.18h9.47A1.18,1.18,0,0,1,41.44,23.68ZM2.37,26.05V17.76H25a8.27,8.27,0,0,0-2.49,5.92v2.37ZM14.21,41.44H2.37V33.15H17.76V36A5.91,5.91,0,0,0,14.21,41.44Zm54.46,7.1v8.29H56.83V48.54ZM53.28,33.15H68.67v8.29H56.83A5.89,5.89,0,0,0,53.28,36Zm-2.37,4.74a3,3,0,0,1,.89.11,3.54,3.54,0,0,1,2.66,3.44V65.12a3.55,3.55,0,0,1-3.55,3.55H20.13a3.55,3.55,0,0,1-3.55-3.55V41.44A3.52,3.52,0,0,1,19.26,38a2.89,2.89,0,0,1,.87-.11ZM68.67,26.05H48.54V23.68A8.24,8.24,0,0,0,46,17.76H68.67Z"/><path class="cls-1" d="M5.92,53.28h5.92a1.19,1.19,0,0,0,0-2.37H5.92a1.19,1.19,0,0,0,0,2.37Z"/><path class="cls-1" d="M68.67,0H53.28a2.37,2.37,0,0,0-2.37,2.37v8.29A2.37,2.37,0,0,0,53.28,13H68.67A2.37,2.37,0,0,0,71,10.66V2.37A2.37,2.37,0,0,0,68.67,0ZM53.28,10.66V2.37H68.67v8.29Z"/><path class="cls-1" d="M65.12,4.74H63.93a1.18,1.18,0,0,0,0,2.36h1.19a1.18,1.18,0,0,0,0-2.36Z"/><path class="cls-1" d="M8.29,35.52H5.92a1.19,1.19,0,0,0,0,2.37H8.29a1.19,1.19,0,0,0,0-2.37Z"/><path class="cls-1" d="M63.93,37.89h1.19a1.19,1.19,0,0,0,0-2.37H63.93a1.19,1.19,0,0,0,0,2.37Z"/><path class="cls-1" d="M35.52,65.12A11.84,11.84,0,1,0,23.68,53.28,11.84,11.84,0,0,0,35.52,65.12Zm0-21.31a9.47,9.47,0,1,1-9.47,9.47A9.47,9.47,0,0,1,35.52,43.81Z"/><path class="cls-1" d="M34.34,56.66V59.2a1.18,1.18,0,1,0,2.36,0V56.66a4.74,4.74,0,1,0-2.36,0Zm1.18-6.93a2.37,2.37,0,1,1-2.37,2.36A2.37,2.37,0,0,1,35.52,49.73Z"/></g></g></svg>