<svg xmlns="http://www.w3.org/2000/svg" viewBox="0 0 512 512"><defs><style>.cls-1{fill:#e0e0e0;}</style></defs><title>LINKEDIN</title><g id="Capa_2" data-name="Capa 2"><g id="Capa_1-2" data-name="Capa 1"><path class="cls-1" d="M151,181H91a15,15,0,0,0-15,15V436a15,15,0,0,0,15,15h60a15,15,0,0,0,15-15V196A15,15,0,0,0,151,181ZM136,421H106V211h30Z"/><path class="cls-1" d="M121,61a45,45,0,1,0,45,45A45.05,45.05,0,0,0,121,61Zm0,60a15,15,0,1,1,15-15A15,15,0,0,1,121,121Z"/><path class="cls-1" d="M355.64,181.93c-24.51-4-49.59.68-69.74,12.34A15,15,0,0,0,271,181H211a15,15,0,0,0-15,15V436a15,15,0,0,0,15,15h60a15,15,0,0,0,15-15V301a30,30,0,0,1,60,0V436a15,15,0,0,0,15,15h60a15,15,0,0,0,15-15V274.54C436,229.74,404.34,189.83,355.64,181.93ZM406,421H376V301a60,60,0,0,0-120,0V421H226V211h30v15a15,15,0,0,0,25.61,10.61l7-7c14.73-14.72,39.16-21.82,62.24-18.07,35.3,5.73,55.16,33.94,55.16,63Z"/><path class="cls-1" d="M436,0H76C34.52,0,0,34.54,0,76V436c0,41.48,34.54,76,76,76H436c41.48,0,76-34.54,76-76V76C512,34.52,477.46,0,436,0Zm46,436c0,24.93-21.07,46-46,46H76c-24.93,0-46-21.07-46-46V76c0-24.93,21.07-46,46-46H436c24.93,0,46,21.07,46,46Z"/></g></g></svg>