<svg xmlns="http://www.w3.org/2000/svg" viewBox="0 0 512 360"><defs><style>.cls-1{fill:#fff;}</style></defs><title>mailwhite</title><g id="Capa_2" data-name="Capa 2"><g id="Capa_1-2" data-name="Capa 1"><path class="cls-1" d="M507.49,25.72,352.21,180,507.49,334.28A44.44,44.44,0,0,0,512,315V45A44.44,44.44,0,0,0,507.49,25.72Z"/><path class="cls-1" d="M467,0H45A44.44,44.44,0,0,0,25.72,4.51L224.18,202a45,45,0,0,0,63.64,0L486.28,4.51A44.44,44.44,0,0,0,467,0Z"/><path class="cls-1" d="M4.51,25.72A44.44,44.44,0,0,0,0,45V315a44.44,44.44,0,0,0,4.51,19.28L159.79,180Z"/><path class="cls-1" d="M331,201.21l-22,22a75.08,75.08,0,0,1-106.06,0l-22-22L25.72,355.49A44.44,44.44,0,0,0,45,360H467a44.44,44.44,0,0,0,19.28-4.51Z"/></g></g></svg>