<svg xmlns="http://www.w3.org/2000/svg" viewBox="0 0 511.41 511.99"><defs><style>.cls-1{fill:#fff;}</style></defs><title>money-back-white</title><g id="Capa_2" data-name="Capa 2"><g id="Capa_1-2" data-name="Capa 1"><path class="cls-1" d="M504.61,297.47a43,43,0,0,0-31.19-17.58c-9.85-.66-18.77,2.67-25.12,9.39-1.39,1.47-2.89,3.09-4.48,4.82a42.79,42.79,0,0,0-25.51-11.2c-9.85-.66-18.77,2.66-25.12,9.38-13.81,14.63-38.28,43.2-57.49,65.94a40.14,40.14,0,0,0-8-3.62c-9.18-4-135.78-58-191.9-58-90.65,0-132.3,48.72-134,50.8A7.52,7.52,0,0,0,13.28,357c.09-.12,9.82-11.51,29.69-22.73,18.32-10.35,49.29-22.68,92.8-22.68,53.91,0,185,56.37,186.29,56.94a42.7,42.7,0,0,1,7.09,3.3,24.46,24.46,0,0,1,5.5,5,24.54,24.54,0,0,1-8.72,37.58c-5.79,2.73-11.91,2.81-18,1.14l-82-22.58a7.51,7.51,0,1,0-4,14.49l81.88,22.55A39.59,39.59,0,0,0,355,394l22-2.32a7.54,7.54,0,0,0,5-2.66c.54-.65,54.46-65.39,77.21-89.47,9.45-10,26.33-2.91,33.16,6.63,10.5,14.66-2.55,30.68-6.8,35.23-20.87,22.4-59.15,68.55-66,76.87l-155.81,77.9-80.16-33.75a7.51,7.51,0,0,0-5.83,13.85l83.35,35.09a7.55,7.55,0,0,0,6.27-.2L427.7,431.05a7.4,7.4,0,0,0,2.43-1.94c.44-.53,44.26-53.59,66.46-77.41C512.93,334.17,516,313.39,504.61,297.47ZM372.42,377.1l-19.58,2.06a40.37,40.37,0,0,0-5.91-10.94c16.36-19.37,43-50.55,57.19-65.61a16.08,16.08,0,0,1,13.17-4.71,27.81,27.81,0,0,1,16.48,7.38C411.22,330.73,380.53,367.39,372.42,377.1Z"/><path class="cls-1" d="M146.7,446.94l-32.06-13.5a7.54,7.54,0,0,0-2.92-.59H7.51a7.52,7.52,0,0,0,0,15H110.2l30.66,12.91a7.52,7.52,0,1,0,5.84-13.85Z"/><path class="cls-1" d="M399.23,250.57l-32,4.57A150.66,150.66,0,0,0,407.8,151.8C407.8,68.1,339.71,0,256,0S104.21,68.1,104.21,151.8a150.44,150.44,0,0,0,31.07,92,152.9,152.9,0,0,0,78.57,53.82A7.51,7.51,0,0,0,218,283.22c-58.16-16.78-98.77-70.82-98.77-131.42C119.24,76.38,180.59,15,256,15S392.77,76.38,392.77,151.8a135.75,135.75,0,0,1-41.08,97.74V209.91a7.52,7.52,0,0,0-15,0V266a7.6,7.6,0,0,0,8.58,7.44l56.11-8a7.52,7.52,0,1,0-2.12-14.88Z"/><path class="cls-1" d="M256,144.28h-8a16.53,16.53,0,0,1,0-33.06h32.06a7.52,7.52,0,1,0,0-15H263.52V87.67a7.52,7.52,0,1,0-15,0v8.52H248a31.56,31.56,0,0,0,0,63.12h8a16.53,16.53,0,1,1,0,33.06H223.94a7.52,7.52,0,0,0,0,15h24.55v8.52a7.52,7.52,0,1,0,15,0v-9.43A31.56,31.56,0,0,0,256,144.28Z"/></g></g></svg>