<svg xmlns="http://www.w3.org/2000/svg" viewBox="0 0 203.61 198.11"><defs><style>.cls-1{fill:#fff;}</style></defs><title>phonewhite</title><g id="Capa_2" data-name="Capa 2"><g id="Capa_1-2" data-name="Capa 1"><path class="cls-1" d="M59.32,29.52V168.59c0,16.28-12.65,29.52-28.2,29.52H28.2C12.65,198.11,0,184.87,0,168.59V29.52C0,13.24,12.65,0,28.2,0h2.92C46.67,0,59.32,13.24,59.32,29.52Zm144.29,8.93V157.92a23.21,23.21,0,0,1-23.19,23.19h-106a5,5,0,0,1-5-5V22a5,5,0,0,1,5-5H182.16A21.47,21.47,0,0,1,203.61,38.45Zm-93,109.5a6.4,6.4,0,1,0-6.39,6.39A6.39,6.39,0,0,0,110.59,148Zm0-28.75a6.4,6.4,0,1,0-6.39,6.4A6.39,6.39,0,0,0,110.59,119.2Zm0-28.74a6.4,6.4,0,1,0-6.39,6.39A6.39,6.39,0,0,0,110.59,90.46ZM143,148a6.4,6.4,0,1,0-6.4,6.39A6.39,6.39,0,0,0,143,148Zm0-28.75a6.4,6.4,0,1,0-6.4,6.4A6.39,6.39,0,0,0,143,119.2Zm0-28.74a6.4,6.4,0,1,0-6.4,6.39A6.39,6.39,0,0,0,143,90.46ZM175.35,148a6.4,6.4,0,1,0-6.4,6.39A6.4,6.4,0,0,0,175.35,148Zm0-28.75a6.4,6.4,0,1,0-6.4,6.4A6.4,6.4,0,0,0,175.35,119.2Zm0-28.74a6.4,6.4,0,1,0-6.4,6.39A6.4,6.4,0,0,0,175.35,90.46ZM187,44.77a10.55,10.55,0,0,0-10.54-10.54H91a5,5,0,0,0-5,5v19.1a5,5,0,0,0,5,5h91a5,5,0,0,0,5-5Z"/></g></g></svg>