<svg xmlns="http://www.w3.org/2000/svg" viewBox="0 0 86.66 86.66"><defs><style>.cls-1{fill:none;stroke:#fff;stroke-miterlimit:10;stroke-width:4px;}</style></defs><title>soporte</title><g id="Capa_2" data-name="Capa 2"><g id="Capa_1-2" data-name="Capa 1"><path class="cls-1" d="M84.66,51.08V35.92H75.23a32.74,32.74,0,0,0-3.92-9.62L78,19.58,67.32,8.87l-6.67,6.67a32.58,32.58,0,0,0-9.57-4V2H35.92v9.43a32.74,32.74,0,0,0-9.62,3.92L19.58,8.63,8.87,19.34,15.54,26a32.58,32.58,0,0,0-4,9.57H2V50.74h9.43a32.74,32.74,0,0,0,3.92,9.62L8.63,67.08,19.34,77.79,26,71.12a32.31,32.31,0,0,0,9.57,4v9.51H50.74V75.23a32.74,32.74,0,0,0,9.62-3.92L67.08,78,77.79,67.32l-6.66-6.67a32.56,32.56,0,0,0,4-9.57ZM43.33,57.9A14.57,14.57,0,1,1,57.9,43.33,14.57,14.57,0,0,1,43.33,57.9Z"/></g></g></svg>