<svg xmlns="http://www.w3.org/2000/svg" viewBox="0 0 512 512"><defs><style>.cls-1{fill:#ff7f00;}</style></defs><title>support</title><g id="Capa_2" data-name="Capa 2"><g id="Capa_1-2" data-name="Capa 1"><path class="cls-1" d="M477.68,222.71C473.75,99.22,375.85,0,256,0S38.25,99.22,34.32,222.71A42.72,42.72,0,0,0,0,264.53V384a42.72,42.72,0,0,0,42.67,42.67,76.89,76.89,0,0,0,76.8,76.8h79.17A17,17,0,0,0,213.33,512h76.8a17.09,17.09,0,0,0,17.07-17.07V460.8a17.09,17.09,0,0,0-17.07-17.07h-76.8a17,17,0,0,0-14.69,8.54H119.47a25.63,25.63,0,0,1-25.6-25.6h25.6a17.08,17.08,0,0,0,17.06-17.07V238.93a17.08,17.08,0,0,0-17.06-17.06H85.75C90,127,164.64,51.2,256,51.2S422,127,426.26,221.87H392.53a17.08,17.08,0,0,0-17.06,17.06V409.6a17.08,17.08,0,0,0,17.06,17.07h76.8A42.72,42.72,0,0,0,512,384V264.53A42.72,42.72,0,0,0,477.68,222.71ZM213.33,460.8h76.8v34.13H213.33Zm-93.86,8.53h76.8V486.4h-76.8a59.81,59.81,0,0,1-59.74-59.73H76.8A42.71,42.71,0,0,0,119.47,469.33Zm0-230.4V409.6H42.67A25.62,25.62,0,0,1,17.07,384V264.53a25.62,25.62,0,0,1,25.6-25.6ZM256,34.13c-100.78,0-183.23,83.46-187.53,187.74H51.41C55.73,108.18,145.82,17.07,256,17.07s200.27,91.11,204.59,204.8H443.53C439.23,117.59,356.78,34.13,256,34.13ZM494.93,384a25.62,25.62,0,0,1-25.6,25.6h-76.8V238.93h76.8a25.63,25.63,0,0,1,25.6,25.6Z"/><path class="cls-1" d="M349.87,332.8H332.8V311.47a8.54,8.54,0,1,0-17.07,0V332.8H279.57L323,260.39a8.54,8.54,0,0,0-14.64-8.78l-51.2,85.33a8.54,8.54,0,0,0,7.32,12.93h51.23v25.6a8.54,8.54,0,0,0,17.07,0v-25.6h17.07a8.54,8.54,0,0,0,0-17.07Z"/><path class="cls-1" d="M158.31,367.84A8.53,8.53,0,0,0,162.13,384h76.8a8.54,8.54,0,1,0,0-17.07H191.45c21.07-15.82,47.48-42.5,47.48-76.8a42.66,42.66,0,0,0-74.66-28.22,8.54,8.54,0,1,0,12.8,11.3,25.6,25.6,0,0,1,44.8,16.92C221.87,335.4,159,367.52,158.31,367.84Z"/></g></g></svg>