<svg xmlns="http://www.w3.org/2000/svg" viewBox="0 0 511.42 513.21"><defs><style>.cls-1{fill:#fff;}</style></defs><title>trustedwhite</title><g id="Capa_2" data-name="Capa 2"><g id="Capa_1-2" data-name="Capa 1"><path class="cls-1" d="M254.81,65.21a10.1,10.1,0,0,0,10.1-10.09v-45a10.1,10.1,0,0,0-20.19,0v45a10.09,10.09,0,0,0,10.09,10.09Z"/><path class="cls-1" d="M501.57,346.8,483.73,329a33.8,33.8,0,0,0-40-5.71l-33.6-33.56,1.64-1.64a35,35,0,0,0,0-49.47,34.62,34.62,0,0,0-17.57-9.5,35.36,35.36,0,0,0,1.39-9.82,34.94,34.94,0,0,0-27.8-34.24,35.36,35.36,0,0,0,1.39-9.82A34.93,34.93,0,0,0,341.36,141,34.93,34.93,0,0,0,304,96.45l-66.6-12.61c-10.15-1.92-22.83-3.2-30.84,4.1a18,18,0,0,0-1.53,1.59,35,35,0,0,0-45.67,42.66,35,35,0,0,0-27.8,34.21,35.09,35.09,0,0,0,1.4,9.84,35,35,0,0,0-21.7,54,35,35,0,0,0-13.44,57.87l1.63,1.63L65.87,323.3a33.75,33.75,0,0,0-38.18,6.62L9.84,347.71a33.73,33.73,0,0,0,0,47.62l22.27,22.25a10.1,10.1,0,1,0,14.27-14.29L24.11,381.05a13.54,13.54,0,0,1,0-19.05L42,344.21a13.51,13.51,0,0,1,16.46-2,10.36,10.36,0,0,0,1.27,1.55,10.06,10.06,0,0,0,2.9,2L164.92,448a9.88,9.88,0,0,0,2,2.92,10.08,10.08,0,0,0,2.84,2,13.52,13.52,0,0,1-.56,18.44L151.4,489.1a13.57,13.57,0,0,1-19.09,0L110,466.85a10.09,10.09,0,0,0-14.27,14.27l22.28,22.29a33.79,33.79,0,0,0,47.6,0l17.84-17.82a33.77,33.77,0,0,0,4.73-41.69L226,406.11l.12-.12c4.34-4.48,16.4-3.64,28.06-2.83,8.29.58,17.53,1.22,26.56.18l41.42,41.37a33.72,33.72,0,0,0,5.72,40l17.84,17.82a33.75,33.75,0,0,0,47.62,0L501.57,394.43a33.71,33.71,0,0,0,0-47.63ZM233.68,103.68,277.47,112l-26.21,26.2a63.55,63.55,0,0,1-15.71-11.42c-8.35-8-14.32-17.2-14.86-22.94h0c0-.41-.05-.74-.05-1,1.32-.32,4.83-.68,13,.88Zm-51.18,8.23a14.88,14.88,0,0,1,18.83-1.79c3.28,13.73,15,26.18,20.26,31.22,3.91,3.74,16.44,14.94,29.08,18A14.81,14.81,0,0,1,228,178.28h0L182.5,132.83a14.85,14.85,0,0,1,0-20.92ZM156.12,156a14.91,14.91,0,0,1,21,0l36.65,36.59a14.84,14.84,0,0,1-21,21h0l-27.81-27.8a1.59,1.59,0,0,0-.13-.13l-8.7-8.7a14.8,14.8,0,0,1,0-20.93Zm-26.43,44a14.95,14.95,0,0,1,20.91-.07l27.89,27.88A14.77,14.77,0,0,1,168,253a14.78,14.78,0,0,1-10.5-4.3l-10.11-10.1h0L129.69,221a14.86,14.86,0,0,1,0-20.95Zm-17.58,52.91a14.93,14.93,0,0,1,21,0L143.24,263a14.82,14.82,0,0,1-21,20.91L121,282.66a.1.1,0,0,1,0-.05l-.06-.05-8.75-8.71a14.83,14.83,0,0,1,0-20.94ZM317.83,367.64a10.09,10.09,0,0,0-14.28,0l-9,9c-8.53,8.53-24,7.46-38.95,6.42-16.24-1.13-33-2.29-43.9,8.87L174.54,429l-93-92.84,32.9-32.85a35,35,0,0,0,53.29-29.85c0-.09,0-.18,0-.26H168a34.93,34.93,0,0,0,35-35c0-.09,0-.18,0-.26h.27a34.9,34.9,0,0,0,35-35.22h.27a35,35,0,0,0,29.88-53.23l28.84-28.82a14.72,14.72,0,0,1,7.57-4,8.68,8.68,0,0,0,.89-.14,14.79,14.79,0,0,1,12.57,25.11l-8.78,8.74-.09.09-10.12,10.1a10.09,10.09,0,1,0,14.27,14.28l8.82-8.8h0l1.33-1.33a14.88,14.88,0,0,1,21,.05,14.81,14.81,0,0,1,0,20.93l-8.83,8.85h0l-10.11,10.08A10.09,10.09,0,1,0,339.94,219l10.16-10.12a14.81,14.81,0,1,1,21,20.94L353.45,247.4a10.09,10.09,0,1,0,14.28,14.27l8.63-8.63.15-.14a14.82,14.82,0,0,1,21,20.93l-8.78,8.77h0l-13.93,13.91A10.1,10.1,0,0,0,389,310.82l6.81-6.81,32.66,32.62-93,92.86-33.31-33.28a39.14,39.14,0,0,0,6.63-5.33l9-9a10.09,10.09,0,0,0,0-14.27Zm169.47,12.5L379.11,488.21a13.56,13.56,0,0,1-19.08,0l-17.84-17.81a13.51,13.51,0,0,1,0-19L450.39,343.3a13.56,13.56,0,0,1,19.08,0l17.84,17.78a13.52,13.52,0,0,1,0,19.05Z"/><path class="cls-1" d="M120.77,56.7A10.09,10.09,0,0,0,135,42.41L98.25,5.7A10.1,10.1,0,0,0,84,20Z"/><path class="cls-1" d="M381.73,59.65a10,10,0,0,0,7.13-2.95L425.62,20A10.1,10.1,0,0,0,411.35,5.7L374.59,42.42a10.09,10.09,0,0,0,7.14,17.23Z"/><path class="cls-1" d="M62.07,434.23a10.09,10.09,0,0,0,.12,14.27l0,0a10.1,10.1,0,1,0-.15-14.3Z"/><path class="cls-1" d="M342.52,353.1A10.1,10.1,0,1,0,338,334l-.05,0a10.09,10.09,0,0,0,4.59,19.09Z"/></g></g></svg>