<svg xmlns="http://www.w3.org/2000/svg" viewBox="0 0 480 512"><defs><style>.cls-1{fill:#e0e0e0;}</style></defs><title>TWITTER</title><g id="Capa_2" data-name="Capa 2"><g id="Capa_1-2" data-name="Capa 1"><path class="cls-1" d="M435,0H45A45.05,45.05,0,0,0,0,45V377a45.05,45.05,0,0,0,45,45H172l55.55,83.32a15,15,0,0,0,25,0L308,422H435a45.05,45.05,0,0,0,45-45V45A45.05,45.05,0,0,0,435,0Zm15,377a15,15,0,0,1-15,15H300a15,15,0,0,0-12.48,6.68L240,470l-47.52-71.28A15,15,0,0,0,180,392H45a15,15,0,0,1-15-15V45A15,15,0,0,1,45,30H435a15,15,0,0,1,15,15Z"/><path class="cls-1" d="M402.82,98.21a15,15,0,0,0-14.34-7.13C371.31,92.82,350,94,342.69,93.15c-18.51-14.57-40.84-18.88-64.81-12.47-33,8.84-53.07,34.85-55.14,69.79-38.41-6.12-70.62-24.64-98.07-56.28a15,15,0,0,0-25,3.58C88.59,122,87.74,144.85,97.11,166a15.56,15.56,0,0,0-1.72,1.24A15,15,0,0,0,90,179.88c1.59,21.85,9.5,39.65,23.6,53.22a15,15,0,0,0-.75,12.19q9.87,26.31,32.32,39.38c-14.67,5.57-30.35,7.73-47.8,6.69a15,15,0,0,0-13.49,23.12c10.7,16.52,76.07,43,142.29,29.26,84.79-17.64,145-91.68,146.89-180.41,2.91-7,17.17-30.32,29.48-49.12A15,15,0,0,0,402.82,98.21Zm-59.71,62.88c-.95,75.37-51.54,138.4-123,153.29a166.7,166.7,0,0,1-67.83-.39,143.46,143.46,0,0,0,38.84-20.87,15,15,0,0,0-7-26.89c-13.46-1.79-23.61-5.91-31.11-12.82a15,15,0,0,0,2.93-28.68c-14.76-5.93-24.62-14-30.27-25a15,15,0,0,0,13.63-25.26c-13.46-13.6-19.53-26.75-18.58-41.47a192.37,192.37,0,0,0,41.92,29.23c22.5,11.47,47.59,18.2,74.56,20a15,15,0,0,0,15.91-16.62c-3.22-29.16,8.65-49.57,32.56-56,15.48-4.14,28.56-1.43,40,8.29,5,4.29,11.87,6.22,35.67,5.18C343.21,152.59,343.15,157.75,343.11,161.09Z"/></g></g></svg>