<svg xmlns="http://www.w3.org/2000/svg" viewBox="0 0 82.66 71.04"><defs><style>.cls-1{fill:#fff;}</style></defs><title>VIDEO</title><g id="Capa_2" data-name="Capa 2"><g id="Capa_1-2" data-name="Capa 1"><path class="cls-1" d="M47.79,35.52A6.46,6.46,0,1,0,41.33,42,6.47,6.47,0,0,0,47.79,35.52Zm-6.46,3.23a3.23,3.23,0,1,1,3.23-3.23A3.23,3.23,0,0,1,41.33,38.75Z"/><path class="cls-1" d="M11.3,71H34.07a1.62,1.62,0,0,0,0-3.23H11.3a8.09,8.09,0,0,1-7.91-6.46H79.27a8.09,8.09,0,0,1-7.91,6.46H48.6a1.62,1.62,0,1,0,0,3.23H71.36a11.31,11.31,0,0,0,11.3-11.3,1.61,1.61,0,0,0-1.61-1.62H75.4v-42a1.62,1.62,0,0,0-1.62-1.61H62.32V1.61A1.61,1.61,0,0,0,59.81.27l-12,8V1.61A1.61,1.61,0,0,0,46.17,0H22a1.62,1.62,0,0,0-1.62,1.61V14.53H8.88a1.61,1.61,0,0,0-1.61,1.61v42H1.61A1.61,1.61,0,0,0,0,59.74,11.31,11.31,0,0,0,11.3,71ZM49.4,58.12H33.26V53.28a8.07,8.07,0,0,1,16.14,0ZM59.09,4.63V18l-10-6.67ZM23.57,3.23h21V19.37h-21ZM10.49,17.76h9.85V21A1.62,1.62,0,0,0,22,22.6H46.17A1.61,1.61,0,0,0,47.79,21V14.32l12,8A1.61,1.61,0,0,0,62.32,21V17.76h9.85V58.12H52.63V53.28a11.3,11.3,0,0,0-22.6,0v4.84H10.49Z"/><circle class="cls-1" cx="41.33" cy="69.42" r="1.61"/></g></g></svg>