<svg xmlns="http://www.w3.org/2000/svg" viewBox="0 0 82.8 82.66"><defs><style>.cls-1{fill:#fff;}</style></defs><title>Virtualizacion</title><g id="Capa_2" data-name="Capa 2"><g id="Capa_1-2" data-name="Capa 1"><path class="cls-1" d="M82.8,60.66V16.43A6.8,6.8,0,0,0,76,9.64H65.51a1.21,1.21,0,1,0,0,2.42H76a4.37,4.37,0,0,1,4.36,4.37v43H2.43v-43a4.37,4.37,0,0,1,4.36-4.37H31a34.25,34.25,0,0,0-.5,7.5H7.9a2,2,0,0,0-2,2v32a2,2,0,0,0,2,2h67a2,2,0,0,0,2-2v-32a2,2,0,0,0-2-2H52.34a34.89,34.89,0,0,0-.5-7.5h4.85a1.21,1.21,0,1,0,0-2.42H51.22l0-.05,0,0-.07-.09L42.88.65A2,2,0,0,0,41.4,0a2.07,2.07,0,0,0-1.49.65l-8.2,8.81-.07.09,0,0,0,.05H6.79A6.8,6.8,0,0,0,0,16.43V60.66H0v.25a6.8,6.8,0,0,0,6.79,6.79H34.68v6.74h-9a2,2,0,0,0-2,2v4.17a2,2,0,0,0,2,2H57.09a2,2,0,0,0,2-2V76.47a2,2,0,0,0-2-2h-9V67.71H76a6.8,6.8,0,0,0,6.79-6.79v-.25ZM54.94,53.19H27.86a3.41,3.41,0,0,1-3-3.38,3.35,3.35,0,0,1,.66-2,1.22,1.22,0,0,0-2-1.43,5.84,5.84,0,0,0,0,6.81H8.3V22H30.65c0,.1,0,.2,0,.3a16.16,16.16,0,0,0-3.33,8.88A2,2,0,0,0,28.18,33a2,2,0,0,0,1.95.25l3.46-1.39c.23.45.47.89.73,1.34l.07.1a9.66,9.66,0,0,0-1.15,5.8c0,.07,0,.13,0,.2a4.8,4.8,0,0,0-1.41,2.24q-.32,0-.63,0a1.22,1.22,0,0,0,.28,2.42,2.47,2.47,0,0,1,1,.09,1.21,1.21,0,0,0,1.58-1.17v0a2.38,2.38,0,0,1,1.08-2,2.06,2.06,0,0,0,.91-.18l.21-.1A8.27,8.27,0,0,0,38,44.68a2,2,0,0,0,1.45.78A2.05,2.05,0,0,0,41,44.91l.39-.37.39.37a2,2,0,0,0,1.39.56h.15a2,2,0,0,0,1.46-.78,8.36,8.36,0,0,0,1.7-4.13l.21.1a2,2,0,0,0,.9.18,2.35,2.35,0,0,1,1.08,2v0a1.23,1.23,0,0,0,.49,1,1.21,1.21,0,0,0,1.1.18,2.51,2.51,0,0,1,.72-.11,2.35,2.35,0,0,1,2.26,1.65,1.21,1.21,0,0,0,1.19.84h.08a3.4,3.4,0,0,1,.42,6.78ZM35.6,38.11a7.66,7.66,0,0,1,1.32-4.36h9a7.54,7.54,0,0,1,1.31,4.36l-.33,0a2,2,0,0,0-2.75,1.79,5.8,5.8,0,0,1-1,3l-.33-.31a2,2,0,0,0-2.79,0l-.33.31a5.9,5.9,0,0,1-1-3,2,2,0,0,0-1-1.64,2,2,0,0,0-1.79-.15ZM52.14,22H74.49v31.2H59.27A5.83,5.83,0,0,0,55.22,44,4.78,4.78,0,0,0,51,41.49h-.06a4.88,4.88,0,0,0-1.41-2.24l0-.2a9.67,9.67,0,0,0-1.14-5.8.61.61,0,0,1,.07-.1c.26-.45.5-.91.74-1.36l3.52,1.41a2,2,0,0,0,.75.15,2,2,0,0,0,2-2.18,16.15,16.15,0,0,0-3.39-9C52.13,22.14,52.13,22.07,52.14,22Zm-1,5v0l.06-.22c.09-.29.17-.59.24-.88,0-.07,0-.14,0-.21a14.3,14.3,0,0,1,1.55,5l-2.77-1.1C50.51,29,50.81,28.08,51.12,27ZM41.4,2.61l6,6.46h-12ZM33.55,11.5H49.24c.6,2.76,2,11.61-2.52,19.82H36.07c-.33-.62-.64-1.25-.91-1.87a34,34,0,0,1-1.92-6.63A32.07,32.07,0,0,1,33.55,11.5Zm-1,18.11L29.84,30.7a14.67,14.67,0,0,1,1.5-4.94A29.09,29.09,0,0,0,32.58,29.61ZM56.69,76.88v3.35H26.11V76.88H56.69ZM37.1,74.45V67.78h8.59v6.67ZM78.79,64.33a5.19,5.19,0,0,1-3.65,1H19c-3.1,0-6.2,0-9.28.08-2.2,0-4.86.15-6.35-1.8l0-.05a3.48,3.48,0,0,1-.64-1.22.25.25,0,0,1,0-.07,2.45,2.45,0,0,1-.08-.29v0H77.35c1,0,2,0,2.91,0A4.68,4.68,0,0,1,78.79,64.33Z"/></g></g></svg>