<svg xmlns="http://www.w3.org/2000/svg" viewBox="0 0 511.42 511.42"><defs><style>.cls-1{fill:#fff;}</style></defs><title>whatsapp</title><g id="Capa_2" data-name="Capa 2"><g id="Capa_1-2" data-name="Capa 1"><path class="cls-1" d="M511.42,249.13c0,137.58-112.4,249.11-251.08,249.11a251.85,251.85,0,0,1-121.34-31L0,511.42l45.31-133.7a246.55,246.55,0,0,1-36-128.61C9.32,111.53,121.69,0,260.37,0S511.42,111.55,511.42,249.13ZM260.32,39.72c-116.39,0-211.06,94-211.06,209.46A207.15,207.15,0,0,0,89.47,372L63.12,449.71,144.2,424a211,211,0,0,0,116.12,34.62c116.38,0,211.09-93.94,211.09-209.44S376.72,39.72,260.32,39.72ZM387.13,306.51c-1.57-2.52-5.67-4.05-11.81-7.12s-36.42-17.83-42-19.83-9.77-3.08-13.88,3-15.86,19.86-19.48,24-7.17,4.6-13.32,1.59-26-9.51-49.51-30.3c-18.3-16.21-30.65-36.18-34.22-42.3s-.37-9.4,2.68-12.44c2.75-2.75,6.16-7.13,9.24-10.72s4.1-6.07,6.16-10.16,1-7.63-.52-10.72-13.83-33.08-19-45.31S191.21,136,187.61,136s-7.69-.5-11.79-.5a22.54,22.54,0,0,0-16.39,7.61c-5.62,6.12-21.53,20.88-21.53,50.93s22,59.08,25.11,63.15,42.59,67.74,105.15,92.19,62.58,16.27,73.86,15.24,36.42-14.76,41.52-29S388.68,309.06,387.13,306.51Z"/></g></g></svg>