<svg xmlns="http://www.w3.org/2000/svg" viewBox="0 0 659.06 217.86"><defs><style>.cls-1{fill:#d47932;}.cls-2{font-size:53.43px;fill:#fff;font-family:Montserrat-Light, Montserrat;font-weight:300;}.cls-3{letter-spacing:-0.01em;}.cls-4{fill:#eecc2c;font-family:Montserrat-Black, Montserrat;font-weight:800;}.cls-5{letter-spacing:-0.01em;}.cls-6{letter-spacing:-0.01em;}</style></defs><title>logo_footer</title><g id="Capa_2" data-name="Capa 2"><g id="PRINT"><rect class="cls-1" x="93.75" y="94.22" width="4.77" height="192.28" transform="translate(-94.22 286.5) rotate(-90)"/><text class="cls-2" transform="translate(205.23 150)">SO<tspan class="cls-3" x="77.31" y="0">L</tspan><tspan x="107.82" y="0">UCIONES</tspan><tspan class="cls-4"><tspan x="0" y="53.43">TECNO</tspan><tspan class="cls-5" x="198.92" y="53.43">L</tspan><tspan x="231.35" y="53.43">ÓGI</tspan><tspan class="cls-6" x="336.44" y="53.43">C</tspan><tspan x="375.66" y="53.43">AS</tspan></tspan></text><path class="cls-1" d="M151.93,89.78c-1.33.89-2.82,1.76-4.18,2.81-6.09,4.71-7.85,12-4.41,18a13.85,13.85,0,0,0,7,6.09l1.51.62a70.58,70.58,0,0,1-8.4,18.83c-8.63,13.4-21.08,21.4-36.24,25.48a100.75,100.75,0,0,1-26.16,3.27c-1.16,0-1.54-.36-1.54-1.53q.06-14.67,0-29.34c0-1.3.47-1.58,1.64-1.62A54.17,54.17,0,0,0,99.6,128.9c11.2-4.58,17.84-13.14,21.18-24.47a79.33,79.33,0,0,0,2.65-27.74,64.36,64.36,0,0,0-4.27-20.54c-5.19-12.63-14.77-19.84-28-22.21a74.17,74.17,0,0,0-11.73-1c-9.88-.13-19.77,0-29.65,0-2.2,0-2.2,0-2.2,2.27q0,14.75,0,29.49a3,3,0,0,1-1.08,2.61Q31.58,79.72,16.76,92.24a8.2,8.2,0,0,1-.71.45V2.18C16.05,0,16.05,0,18.16,0,38.77,0,59.38-.06,80,.06c12.39.08,24.59,1.6,36.19,6.38,17.21,7.1,28.29,19.86,34.37,37.23a108.65,108.65,0,0,1,4.89,22.21c.34,2.64,0,4-2.62,5.29-4.55,2.27-6.07,7.27-4.15,12.34A60.34,60.34,0,0,0,151.93,89.78Z"/><path class="cls-1" d="M151.15,23.66H285.31c2.2,0,2.2,0,2.2,2.21,0,9.41,0,18.82,0,28.23,0,1.39-.29,1.89-1.81,1.88q-60.31,0-120.64,0a2.3,2.3,0,0,1-2.65-2.16,89.35,89.35,0,0,0-6-19.66C154.86,30.7,153,27.34,151.15,23.66Z"/><path class="cls-1" d="M172.46,113.55a37.82,37.82,0,0,0,2.77,3.28,3.75,3.75,0,0,0,2.23,1.09c2.67.13,5.36.06,8,0,.45,0,.9-.08,1.66-.15-.42-.61-.67-1-1-1.41-2.44-3-4.86-5.93-7.37-8.84a1.65,1.65,0,0,1-.17-2.42c2.29-3.35,3-7.31,4.26-11.51-3,0-5.62,0-8.27,0-.35,0-.78.74-1,1.22-.59,1.43-1.09,2.91-1.75,4.71-2.22-2.93-4.21-5.54-6.28-8.26l1-.82A50.65,50.65,0,0,0,171,87a10.21,10.21,0,0,0-2.24-16.16L167.39,70h4.24q33.6,0,67.2,0c1.56,0,2,.33,2,2-.09,9.25,0,18.51,0,27.76,0,2.43,0,2.43-2.37,2.43h-42.9c-2.55,0-2.57,0-2.57,2.62,0,18.29-.11,36.59-.08,54.89,0,1.66-.49,2-2,2-8.51,0-17,0-25.55.1-1.37,0-1.92-.24-1.91-1.79.07-13.57,0-27.13,0-40.7,0-1.18.35-1.62,1.51-2.07C167.44,116.24,169.8,114.88,172.46,113.55Z"/><path class="cls-1" d="M166.15,106.81c-2.84,2.58-5.94,3.89-9.62,3.38-4-.56-6.27-4.62-4.87-8.61a9.67,9.67,0,0,1,4.71-5.29,1.76,1.76,0,0,1,1.42.26,4.91,4.91,0,0,1,1,1.18Z"/><path class="cls-1" d="M161.06,76.38c2.67,0,4.38,1.42,4.36,3.67a4.16,4.16,0,0,1-3.72,4,4.63,4.63,0,0,1-4.61-4.58C157.11,77.53,158.59,76.39,161.06,76.38Z"/><path class="cls-1" d="M37.74,104.71v-7.4c0-1.09.36-1.38,1.27-.63.73.6,1.53,1.12,2.22,1.76,1,1,1.59.65,2.28-.46A54.52,54.52,0,0,1,60.45,80.43Q81.09,67,105.09,72.75c2.46.58,2.09.86,3.12-1.63.17-.43.21-1.08.68-1.18.62-.12.77.61,1.06,1,2.29,3.07,4.54,6.18,6.85,9.24.69.92.72,1.39-.52,1.73-4.16,1.12-8.3,2.32-12.45,3.49-.34.09-.74.32-1,0s0-.69.11-1c.33-1.2,1.62-2.49,1-3.46s-2.16-1.11-3.32-1.58c-4-1.66-8.27-1.48-12.44-1.18A48.86,48.86,0,0,0,55.7,93.43,53.74,53.74,0,0,0,49,102.2c-.79,1.23-.72,2,.53,2.82.58.36,1.58.69,1.41,1.48-.13.59-1.13.64-1.76.88-3.35,1.24-6.72,2.42-10.06,3.69-1.27.49-1.72.2-1.67-1.16.07-1.73,0-3.47,0-5.2Z"/><path class="cls-1" d="M16.34,154.84H30c2.21,0,2.21,0,2.22,2.17,0,1.73,0,3.47,0,5.2,0,1.25-.34,1.8-1.69,1.79q-14.5-.06-29,0C.45,164,0,163.61,0,162.43c.07-1.94,0-3.88.05-5.83,0-.59,0-1.15.69-1.44,4.58-1.92,8.26-5.18,12-8.27a60.83,60.83,0,0,0,9.13-8.66,7.39,7.39,0,0,0,1.82-5.39c-.22-2.53-1.35-4.43-3.83-5.25C16,126.3,12.21,126.34,9,129.43a3,3,0,0,1-2.26.88c-1.89,0-3.78,0-5.68,0-.95,0-1.2-.39-1-1.26.89-3.45,2.59-6.38,5.79-8.1a21.62,21.62,0,0,1,19.75-.7c5.35,2.35,7.77,7.29,7.08,13.14a21.05,21.05,0,0,1-6.06,12.35,54.55,54.55,0,0,1-10.47,8.75Z"/><path class="cls-1" d="M69.45,141.11c0-7,0-14.07,0-21.11,0-1.28-.37-1.8-1.7-1.74-2,.08-4.1.1-6.14,0a3.62,3.62,0,0,0-3.23,1.5q-9.91,11.73-19.93,23.38a4.6,4.6,0,0,0-1.2,3.29c0,1.84.11,3.69,0,5.52-.12,1.65.55,2,2.09,2,6.2-.07,12.4,0,18.6,0,1.27,0,1.79.38,1.74,1.7-.08,2.15.07,4.31,0,6.46-.08,1.56.53,2,2,1.94a51.54,51.54,0,0,1,5.83,0c1.65.11,2-.55,2-2.09C69.41,155,69.45,148.05,69.45,141.11Zm-11.13,3.68c-3,0-6.09,0-9.13,0-.58,0-1.41,0-.68-.91,3.53-4.35,7.11-8.66,10.67-13l.48.12v5.12c0,2.36,0,4.72,0,7.08C59.68,144.16,59.51,144.81,58.32,144.79Z"/></g></g></svg>