<svg xmlns="http://www.w3.org/2000/svg" viewBox="0 0 216.56 125.44"><defs><style>.cls-1{fill:#ff7f00;}.cls-2{fill:#c2c2c2;}</style></defs><title>Recurso 1</title><g id="Capa_2" data-name="Capa 2"><g id="Capa_1-2" data-name="Capa 1"><path class="cls-1" d="M113.41,68.3c-1,.67-2.16,1.34-3.19,2.14-4.63,3.57-6,9.09-3.35,13.7a10.5,10.5,0,0,0,5.33,4.63l1.14.48A53.78,53.78,0,0,1,107,103.57c-6.56,10.19-16,16.28-27.57,19.38a76.7,76.7,0,0,1-19.89,2.49c-.89,0-1.18-.27-1.17-1.17q0-11.16,0-22.31c0-1,.36-1.2,1.25-1.24a40.81,40.81,0,0,0,14-2.67c8.52-3.48,13.58-10,16.11-18.61a60.06,60.06,0,0,0,2-21.1,49,49,0,0,0-3.24-15.62c-4-9.61-11.24-15.1-21.34-16.9a55.47,55.47,0,0,0-8.93-.74c-7.51-.11-15,0-22.55,0C34,25,34,25,34,26.77c0,7.48,0,15,0,22.43a2.27,2.27,0,0,1-.82,2q-11.31,9.47-22.59,19c-.11.09-.25.15-.54.34V1.66C10,0,10,0,11.65,0,27.32,0,43,0,58.68.05,68.11.1,77.39,1.26,86.21,4.9,99.3,10.3,107.73,20,112.35,33.22a81.89,81.89,0,0,1,3.72,16.9c.26,2,0,3-2,4-3.46,1.72-4.62,5.53-3.15,9.38A42.59,42.59,0,0,0,113.41,68.3Z"/><path class="cls-1" d="M112.81,18H214.86c1.68,0,1.68,0,1.68,1.68,0,7.16,0,14.32,0,21.47,0,1.06-.22,1.44-1.38,1.44q-45.88,0-91.77,0a1.75,1.75,0,0,1-2-1.64,67.91,67.91,0,0,0-4.57-15C115.63,23.35,114.23,20.8,112.81,18Z"/><path class="cls-1" d="M129,86.38a30.89,30.89,0,0,0,2.11,2.5,2.84,2.84,0,0,0,1.69.82c2,.1,4.08,0,6.12,0,.34,0,.69-.06,1.26-.11-.32-.47-.51-.79-.74-1.08-1.86-2.25-3.7-4.51-5.61-6.72a1.26,1.26,0,0,1-.13-1.84c1.75-2.55,2.25-5.56,3.24-8.76-2.26,0-4.28,0-6.29,0-.26,0-.59.57-.74.93-.45,1.09-.83,2.21-1.33,3.58l-4.78-6.28.75-.63a33.88,33.88,0,0,0,3.35-2.71,7.76,7.76,0,0,0-1.7-12.29l-1.06-.59h3.23q25.56,0,51.12,0c1.19,0,1.55.26,1.54,1.51-.07,7,0,14.08,0,21.12,0,1.84,0,1.84-1.8,1.84H146.58c-1.93,0-2,0-2,2q-.06,20.88-.06,41.76c0,1.26-.37,1.51-1.55,1.5-6.48,0-13,0-19.44.08-1,0-1.46-.19-1.45-1.37q.08-15.48,0-31c0-.9.27-1.23,1.15-1.57C125.2,88.42,127,87.39,129,86.38Z"/><path class="cls-1" d="M124.22,81.25a8.71,8.71,0,0,1-7.32,2.57,4.79,4.79,0,0,1-3.7-6.55,7.36,7.36,0,0,1,3.58-4,1.32,1.32,0,0,1,1.08.19,4,4,0,0,1,.78.9Z"/><path class="cls-1" d="M120.34,58.1c2,0,3.34,1.08,3.32,2.8a3.15,3.15,0,0,1-2.82,3,3.52,3.52,0,0,1-3.51-3.48C117.35,59,118.47,58.11,120.34,58.1Z"/><path class="cls-2" d="M12.43,117.79H22.85c1.68,0,1.68,0,1.69,1.65,0,1.32,0,2.64,0,4,0,1-.25,1.37-1.28,1.36q-11,0-22.07,0c-.86,0-1.23-.29-1.2-1.19.05-1.48,0-3,0-4.43,0-.45,0-.88.52-1.1,3.49-1.46,6.29-3.94,9.15-6.29a46.12,46.12,0,0,0,7-6.59,5.64,5.64,0,0,0,1.38-4.1,4.16,4.16,0,0,0-2.91-4c-3-1-5.84-1-8.27,1.4a2.23,2.23,0,0,1-1.72.66c-1.44,0-2.88,0-4.31,0-.73,0-.92-.3-.75-1A9.13,9.13,0,0,1,4.49,92a16.46,16.46,0,0,1,15-.54c4.07,1.79,5.91,5.55,5.39,10a16,16,0,0,1-4.61,9.4,42.28,42.28,0,0,1-8,6.65Z"/><path class="cls-2" d="M26.54,79.65V74c0-.83.27-1,1-.48s1.17.85,1.7,1.34c.78.73,1.21.5,1.73-.35A41.48,41.48,0,0,1,43.81,61.18a42.15,42.15,0,0,1,34-5.84c1.86.45,1.58.66,2.36-1.24.14-.33.17-.82.52-.89s.59.46.81.75c1.74,2.34,3.45,4.71,5.21,7,.53.7.55,1.06-.4,1.31-3.16.86-6.31,1.77-9.46,2.66-.26.07-.57.24-.79,0s0-.53.09-.79c.25-.9,1.23-1.89.76-2.63s-1.64-.84-2.53-1.2c-3.06-1.26-6.29-1.13-9.46-.89A37.08,37.08,0,0,0,40.2,71.07a41.73,41.73,0,0,0-5.07,6.67c-.59.94-.54,1.54.41,2.15.44.27,1.2.53,1.07,1.13s-.86.48-1.34.66c-2.55.94-5.11,1.84-7.65,2.81-1,.37-1.31.15-1.27-.88,0-1.32,0-2.64,0-4Z"/><path class="cls-2" d="M52.83,107.35c0-5.36,0-10.71,0-16.07,0-1-.29-1.36-1.3-1.32C50,90,48.43,90,46.88,90a2.76,2.76,0,0,0-2.45,1.14Q36.87,100,29.26,108.88a3.51,3.51,0,0,0-.91,2.5c0,1.4.09,2.81,0,4.2s.42,1.54,1.59,1.53c4.71-.06,9.43,0,14.14,0,1,0,1.37.29,1.33,1.3-.06,1.63.05,3.28,0,4.91-.06,1.19.4,1.53,1.53,1.48a36.38,36.38,0,0,1,4.43,0c1.26.08,1.55-.42,1.54-1.59C52.8,117.89,52.83,112.62,52.83,107.35Zm-8.47,2.79c-2.31,0-4.63,0-6.94,0-.44,0-1.07,0-.52-.7,2.69-3.3,5.41-6.58,8.12-9.87l.36.09v3.89c0,1.8,0,3.59,0,5.39C45.4,109.66,45.27,110.16,44.36,110.14Z"/></g></g></svg>