<svg xmlns="http://www.w3.org/2000/svg" viewBox="0 0 436 415.69"><defs><style>.cls-1{fill:#f0f0f0;}.cls-2{fill:#e0e0e0;}.cls-3{fill:none;stroke:#27debf;stroke-miterlimit:10;}.cls-4{fill:#37474f;}.cls-5{fill:#263238;}.cls-6{fill:#455a64;}.cls-7{fill:#27debf;}.cls-8{fill:#fafafa;}.cls-9{fill:#f5f5f5;}.cls-10{fill:#ebebeb;}.cls-11,.cls-15{fill:#fff;}.cls-12{fill:#ffa8a7;}.cls-13{opacity:0.1;}.cls-14{fill:#f28f8f;}.cls-15{opacity:0.4;}.cls-16{opacity:0.2;}.cls-17{fill:#e6e6e6;}</style></defs><title>servidores</title><g id="Capa_2" data-name="Capa 2"><g id="Character"><path id="Floor" class="cls-1" d="M63.85,381.61c85.14,45.44,223.17,45.44,308.3,0s85.13-119.12,0-164.56-223.17-45.45-308.3,0S-21.28,336.17,63.85,381.61Z"/><path id="Shadow" class="cls-2" d="M215.31,320.35l62.22,35.78a2.88,2.88,0,0,0,2.59,0l110.13-63.58c.72-.42.72-1.09,0-1.5L328,255.27a2.9,2.9,0,0,0-2.6,0L215.31,318.85A.79.79,0,0,0,215.31,320.35Z"/><path id="Shadow-2" data-name="Shadow" class="cls-2" d="M405.37,338.93c-.2-1.6-2.11-2.4-3.16-3l-42.48-24.6a6.09,6.09,0,0,0-6.08,0l-42.47,24.49c-1.25.72-3.3,2.11-3.3,3.72s1.12,2,3.18,3.17L353.23,367a6.94,6.94,0,0,0,6.94,0l43.52-24.93A3.25,3.25,0,0,0,405.37,338.93Z"/><g id="Server"><path class="cls-3" d="M260.34,212.86l10-5.78a4.79,4.79,0,0,1,4.33,0l62.83,36.27"/><path class="cls-3" d="M256.28,210.52l14.08-8.13a4.79,4.79,0,0,1,4.33,0L341.58,241"/><path class="cls-3" d="M345.64,238.66l-70.95-41a4.79,4.79,0,0,0-4.33,0l-18.15,10.47"/><path class="cls-3" d="M349.7,236.31l-75-43.31a4.79,4.79,0,0,0-4.33,0l-22.22,12.83"/><path class="cls-4" d="M197.23.71,132.5,38.08a4.8,4.8,0,0,0-2.16,3.75V219.76a4.8,4.8,0,0,0,2.16,3.75l64.73,37.37a4.79,4.79,0,0,0,4.33,0l64.72-37.37a4.78,4.78,0,0,0,2.17-3.75V41.83a4.78,4.78,0,0,0-2.17-3.75L201.56.71A4.79,4.79,0,0,0,197.23.71Z"/><path class="cls-5" d="M268.45,41.83V219.76a4.8,4.8,0,0,1-2.16,3.75l-64.73,37.37a4.34,4.34,0,0,1-2.16.52V78.47a4.48,4.48,0,0,0,2.16-.52l64.73-37.37.59-.49.77-.64A4.49,4.49,0,0,1,268.45,41.83Z"/><path class="cls-6" d="M140.63,59.34l48.48,28a4.8,4.8,0,0,1,2.16,3.75v18.46c0,1.38-1,1.94-2.17,1.25l-48.47-28a4.78,4.78,0,0,1-2.17-3.75V60.59C138.46,59.21,139.43,58.65,140.63,59.34Z"/><path class="cls-7" d="M142.53,67.48a4.62,4.62,0,0,0,2.16,3.59L185,94.37c1.2.69,2.17.2,2.17-1.1A4.64,4.64,0,0,0,185,89.68l-40.35-23.3C143.49,65.69,142.53,66.18,142.53,67.48Z"/><path class="cls-5" d="M142.53,76.86a4.62,4.62,0,0,0,2.16,3.59L185,103.75c1.2.69,2.17.2,2.17-1.1A4.64,4.64,0,0,0,185,99.06l-40.35-23.3C143.49,75.07,142.53,75.56,142.53,76.86Z"/><path class="cls-7" d="M144.69,75.76,166.9,88.58v4.69L144.69,80.45a4.62,4.62,0,0,1-2.16-3.59C142.53,75.56,143.49,75.07,144.69,75.76Z"/><path class="cls-6" d="M140.63,92.18l48.48,28a4.8,4.8,0,0,1,2.16,3.75v18.45c0,1.38-1,1.94-2.17,1.25l-48.47-28a4.78,4.78,0,0,1-2.17-3.75V93.43C138.46,92.05,139.43,91.49,140.63,92.18Z"/><path class="cls-7" d="M142.53,100.31a4.62,4.62,0,0,0,2.16,3.59L185,127.2c1.2.69,2.17.2,2.17-1.09a4.64,4.64,0,0,0-2.17-3.6l-40.35-23.3C143.49,98.52,142.53,99,142.53,100.31Z"/><path class="cls-5" d="M142.53,109.69a4.63,4.63,0,0,0,2.16,3.6L185,136.58c1.2.69,2.17.2,2.17-1.09a4.64,4.64,0,0,0-2.17-3.6L144.69,108.6C143.49,107.9,142.53,108.4,142.53,109.69Z"/><path class="cls-7" d="M144.69,108.6l34.39,19.85v4.69l-34.39-19.85a4.63,4.63,0,0,1-2.16-3.6C142.53,108.4,143.49,107.9,144.69,108.6Z"/><path class="cls-6" d="M140.63,125l48.48,28a4.8,4.8,0,0,1,2.16,3.75V175.2c0,1.38-1,1.94-2.17,1.25l-48.47-28a4.78,4.78,0,0,1-2.17-3.75V126.26C138.46,124.88,139.43,124.32,140.63,125Z"/><path class="cls-7" d="M142.53,133.14a4.63,4.63,0,0,0,2.16,3.6L185,160c1.2.7,2.17.2,2.17-1.09a4.64,4.64,0,0,0-2.17-3.6l-40.35-23.29C143.49,131.36,142.53,131.85,142.53,133.14Z"/><path class="cls-5" d="M142.53,142.52a4.63,4.63,0,0,0,2.16,3.6L185,169.42c1.2.69,2.17.2,2.17-1.1a4.64,4.64,0,0,0-2.17-3.59l-40.35-23.3C143.49,140.74,142.53,141.23,142.53,142.52Z"/><path class="cls-7" d="M144.69,141.43l14.08,8.13v4.69l-14.08-8.13a4.63,4.63,0,0,1-2.16-3.6C142.53,141.23,143.49,140.74,144.69,141.43Z"/><path class="cls-6" d="M140.63,157.84l48.48,28a4.8,4.8,0,0,1,2.16,3.75V208c0,1.39-1,1.95-2.17,1.25l-48.47-28a4.78,4.78,0,0,1-2.17-3.75V159.09C138.46,157.71,139.43,157.15,140.63,157.84Z"/><path class="cls-7" d="M142.53,166a4.62,4.62,0,0,0,2.16,3.59L185,192.87c1.2.69,2.17.2,2.17-1.1a4.64,4.64,0,0,0-2.17-3.59l-40.35-23.3C143.49,164.19,142.53,164.68,142.53,166Z"/><path class="cls-5" d="M142.53,175.36a4.62,4.62,0,0,0,2.16,3.59L185,202.25c1.2.69,2.17.2,2.17-1.1a4.64,4.64,0,0,0-2.17-3.59l-40.35-23.3C143.49,173.57,142.53,174.06,142.53,175.36Z"/><path class="cls-7" d="M144.69,174.26l22.21,12.82v4.69L144.69,179a4.62,4.62,0,0,1-2.16-3.59C142.53,174.06,143.49,173.57,144.69,174.26Z"/><path class="cls-6" d="M140.63,190.68l48.48,28a4.78,4.78,0,0,1,2.16,3.75v18.45c0,1.38-1,1.94-2.17,1.25l-48.47-28a4.78,4.78,0,0,1-2.17-3.75V191.93C138.46,190.55,139.43,190,140.63,190.68Z"/><path class="cls-7" d="M142.53,198.81a4.62,4.62,0,0,0,2.16,3.59L185,225.7c1.2.69,2.17.2,2.17-1.09A4.64,4.64,0,0,0,185,221l-40.35-23.3C143.49,197,142.53,197.51,142.53,198.81Z"/><path class="cls-5" d="M142.53,208.19a4.62,4.62,0,0,0,2.16,3.59L185,235.08c1.2.69,2.17.2,2.17-1.09a4.64,4.64,0,0,0-2.17-3.6l-40.35-23.3C143.49,206.4,142.53,206.89,142.53,208.19Z"/><path class="cls-7" d="M144.69,207.09,175,224.61v4.69l-30.33-17.52a4.62,4.62,0,0,1-2.16-3.59C142.53,206.89,143.49,206.4,144.69,207.09Z"/><path class="cls-4" d="M209.55,89.77c2.24-1.31,4.06-.12,4.06,2.64V199.68a9.33,9.33,0,0,1-4.06,7.36c-2.24,1.3-4.06.11-4.06-2.65V97.12A9.31,9.31,0,0,1,209.55,89.77Z"/><path class="cls-5" d="M209.55,204.66a4.65,4.65,0,0,0,2-3.67V93.42c0-1.38-.91-2-2-1.33a4.65,4.65,0,0,0-2,3.67V203.33C207.52,204.72,208.43,205.31,209.55,204.66Z"/><path class="cls-7" d="M209.55,204.66a4.65,4.65,0,0,0,2-3.67V149.56l-4.06,2.34v51.43C207.52,204.72,208.43,205.31,209.55,204.66Z"/><path class="cls-4" d="M221.74,82.73c2.24-1.3,4.06-.12,4.06,2.65V192.65a9.31,9.31,0,0,1-4.06,7.35c-2.25,1.3-4.07.12-4.07-2.64V90.08A9.29,9.29,0,0,1,221.74,82.73Z"/><path class="cls-7" d="M221.74,197.63a4.66,4.66,0,0,0,2-3.68V86.38c0-1.38-.91-2-2-1.32a4.61,4.61,0,0,0-2,3.67V196.3C219.7,197.68,220.61,198.27,221.74,197.63Z"/><path class="cls-4" d="M233.92,75.69c2.25-1.3,4.06-.11,4.06,2.65V185.61a9.3,9.3,0,0,1-4.06,7.36c-2.24,1.3-4.06.11-4.06-2.65V83.05A9.34,9.34,0,0,1,233.92,75.69Z"/><path class="cls-5" d="M233.92,190.59a4.65,4.65,0,0,0,2-3.67V79.35c0-1.38-.91-2-2-1.33a4.65,4.65,0,0,0-2,3.67V189.26C231.89,190.64,232.8,191.24,233.92,190.59Z"/><path class="cls-7" d="M233.92,190.59a4.65,4.65,0,0,0,2-3.67V103.83l-4.06,2.34v83.09C231.89,190.64,232.8,191.24,233.92,190.59Z"/><path class="cls-4" d="M246.11,68.66c2.24-1.3,4.06-.12,4.06,2.64V178.58a9.31,9.31,0,0,1-4.06,7.35c-2.24,1.3-4.06.12-4.06-2.64V76A9.28,9.28,0,0,1,246.11,68.66Z"/><path class="cls-5" d="M246.11,183.56a4.66,4.66,0,0,0,2-3.68V72.31c0-1.38-.91-2-2-1.33a4.66,4.66,0,0,0-2,3.68V182.23C244.08,183.61,245,184.2,246.11,183.56Z"/><path class="cls-7" d="M246.11,183.56a4.66,4.66,0,0,0,2-3.68V161.73l-4.06,2.34v18.16C244.08,183.61,245,184.2,246.11,183.56Z"/><path class="cls-4" d="M258.29,61.62c2.25-1.3,4.07-.11,4.07,2.65V171.54a9.29,9.29,0,0,1-4.07,7.35c-2.24,1.31-4.06.12-4.06-2.64V69A9.33,9.33,0,0,1,258.29,61.62Z"/><path class="cls-5" d="M258.29,176.52a4.63,4.63,0,0,0,2-3.67V65.28c0-1.38-.91-2-2-1.33a4.65,4.65,0,0,0-2,3.67V175.19C256.26,176.57,257.17,177.17,258.29,176.52Z"/><path class="cls-7" d="M258.29,176.52a4.63,4.63,0,0,0,2-3.67V116.73l-4.07,2.34v56.12C256.26,176.57,257.17,177.17,258.29,176.52Z"/><path class="cls-4" d="M207.22,220.09l53.4-30.84c1-.55,1.74-.1,1.74,1v19.46a3.85,3.85,0,0,1-1.74,3l-53.4,30.83c-1,.55-1.73.11-1.73-1V223.09A3.81,3.81,0,0,1,207.22,220.09Z"/><path class="cls-5" d="M209.42,225.86c0,1.29,1,1.78,2.16,1.09l44.68-25.8a4.64,4.64,0,0,0,2.17-3.6c0-1.29-1-1.78-2.17-1.09l-44.68,25.8A4.6,4.6,0,0,0,209.42,225.86Z"/><path class="cls-7" d="M209.42,225.86c0,1.29,1,1.78,2.16,1.09l32.5-18.77v-4.69l-32.5,18.77A4.6,4.6,0,0,0,209.42,225.86Z"/><path class="cls-5" d="M209.42,235.24c0,1.29,1,1.78,2.16,1.09l44.68-25.8a4.64,4.64,0,0,0,2.17-3.6c0-1.29-1-1.78-2.17-1.09l-44.68,25.8A4.6,4.6,0,0,0,209.42,235.24Z"/><path class="cls-7" d="M209.42,235.24c0,1.29,1,1.78,2.16,1.09l12.19-7v-4.69l-12.19,7A4.6,4.6,0,0,0,209.42,235.24Z"/><path class="cls-6" d="M266.28,38.08,201.56.71a4.79,4.79,0,0,0-4.33,0L132.5,38.08a1.32,1.32,0,0,0,0,2.5L197.23,78a4.79,4.79,0,0,0,4.33,0l64.72-37.37A1.32,1.32,0,0,0,266.28,38.08Z"/><path class="cls-5" d="M198.09,69.07l-50.2-29a2.86,2.86,0,0,1-1.3-2.25V36.14a2.87,2.87,0,0,1,1.3-2.25l50.2-29a2.84,2.84,0,0,1,2.6,0l50.21,29a2.87,2.87,0,0,1,1.3,2.25v1.69a2.86,2.86,0,0,1-1.3,2.25l-50.21,29A2.84,2.84,0,0,1,198.09,69.07Z"/><path class="cls-6" d="M147.89,35.39l50.2,29a2.84,2.84,0,0,0,2.6,0l50.21-29c.72-.41.72-1.08,0-1.5l-50.21-28a2.84,2.84,0,0,0-2.6,0l-50.2,28C147.17,34.31,147.17,35,147.89,35.39Z"/><path class="cls-4" d="M199.4,64.69v4.69a2.63,2.63,0,0,1-1.3-.31l-50.21-29a2.86,2.86,0,0,1-1.3-2.25V36.14a2.89,2.89,0,0,1,1.06-2.08c-.47.41-.39,1,.24,1.33l50.21,29A2.63,2.63,0,0,0,199.4,64.69Z"/><path class="cls-5" d="M198.09,55l-34-19.61a2.87,2.87,0,0,1-1.29-2.25V31.45a2.89,2.89,0,0,1,1.29-2.25l21.78-12.57a8.5,8.5,0,0,0,2.19-1.95l10.4-14a1.72,1.72,0,0,1,2.19-.46l34,19.61a2.87,2.87,0,0,1,1.3,2.25V33.14a2.86,2.86,0,0,1-1.3,2.25L200.69,55A2.9,2.9,0,0,1,198.09,55Z"/><path class="cls-6" d="M200.69,50.31l21.78-12.57a7.58,7.58,0,0,0,1.13-.85,7.21,7.21,0,0,0,1.06-1.11l10.4-14a1.31,1.31,0,0,0-.41-2L200.69.21a1.72,1.72,0,0,0-2.19.46l-10.4,14a8.08,8.08,0,0,1-2,2l-22,12.49a.79.79,0,0,0,0,1.5l34,19.61A2.9,2.9,0,0,0,200.69,50.31Z"/><path class="cls-4" d="M234.65,19.82,200.69.21a1.72,1.72,0,0,0-2.19.46l-10.4,14a8.25,8.25,0,0,1-1.06,1.1S223.59,36.9,223.6,36.89a7.21,7.21,0,0,0,1.06-1.11l10.4-14A1.31,1.31,0,0,0,234.65,19.82Z"/><path class="cls-7" d="M172.37,29.55a3.35,3.35,0,0,1,3,0,.93.93,0,0,1,0,1.76,3.41,3.41,0,0,1-3,0A.93.93,0,0,1,172.37,29.55Z"/><path class="cls-7" d="M178.47,33.06a3.39,3.39,0,0,1,3,0,.93.93,0,0,1,0,1.76,3.33,3.33,0,0,1-3,0A.93.93,0,0,1,178.47,33.06Z"/><path class="cls-5" d="M184.56,36.58a3.41,3.41,0,0,1,3.05,0,.93.93,0,0,1,0,1.76,3.35,3.35,0,0,1-3.05,0A.93.93,0,0,1,184.56,36.58Z"/><path class="cls-5" d="M190.65,40.1a3.35,3.35,0,0,1,3,0,.93.93,0,0,1,0,1.76,3.41,3.41,0,0,1-3,0A.93.93,0,0,1,190.65,40.1Z"/><ellipse class="cls-7" cx="178.47" cy="27.79" rx="2.15" ry="1.24"/><path class="cls-5" d="M183,30.43a3.33,3.33,0,0,1,3,0,.92.92,0,0,1,0,1.75,3.33,3.33,0,0,1-3,0A.92.92,0,0,1,183,30.43Z"/><ellipse class="cls-7" cx="190.65" cy="34.82" rx="2.15" ry="1.24"/><path class="cls-5" d="M195.22,37.46a3.41,3.41,0,0,1,3.05,0,.93.93,0,0,1,0,1.76,3.35,3.35,0,0,1-3.05,0A.93.93,0,0,1,195.22,37.46Z"/><path class="cls-5" d="M181.51,24.27a3.35,3.35,0,0,1,3.05,0,.93.93,0,0,1,0,1.76,3.41,3.41,0,0,1-3.05,0A.93.93,0,0,1,181.51,24.27Z"/><path class="cls-7" d="M187.61,27.79a3.33,3.33,0,0,1,3,0,.93.93,0,0,1,0,1.76,3.39,3.39,0,0,1-3,0C186.76,29.06,186.76,28.27,187.61,27.79Z"/><path class="cls-5" d="M193.7,31.31a3.35,3.35,0,0,1,3.05,0,.92.92,0,0,1,0,1.75,3.35,3.35,0,0,1-3.05,0A.92.92,0,0,1,193.7,31.31Z"/><path class="cls-7" d="M196.78,43.55a3.35,3.35,0,0,1,3.05,0,.93.93,0,0,1,0,1.76,3.41,3.41,0,0,1-3.05,0A.93.93,0,0,1,196.78,43.55Z"/><ellipse class="cls-5" cx="202.87" cy="41.79" rx="2.15" ry="1.24"/><path class="cls-5" d="M199.79,34.83a3.35,3.35,0,0,1,3.05,0,.92.92,0,0,1,0,1.75,3.35,3.35,0,0,1-3.05,0A.92.92,0,0,1,199.79,34.83Z"/><path class="cls-7" d="M186.08,21.63a3.41,3.41,0,0,1,3,0,.93.93,0,0,1,0,1.76,3.35,3.35,0,0,1-3,0A.93.93,0,0,1,186.08,21.63Z"/><ellipse class="cls-5" cx="193.7" cy="26.03" rx="2.15" ry="1.24"/><path class="cls-7" d="M198.27,28.67a3.35,3.35,0,0,1,3,0,.93.93,0,0,1,0,1.76,3.41,3.41,0,0,1-3,0A.93.93,0,0,1,198.27,28.67Z"/><ellipse class="cls-5" cx="205.88" cy="33.07" rx="2.15" ry="1.24"/><path class="cls-7" d="M205.92,38.27a3.41,3.41,0,0,1,3.05,0A.93.93,0,0,1,209,40a3.35,3.35,0,0,1-3.05,0A.93.93,0,0,1,205.92,38.27Z"/><path class="cls-5" d="M210.49,35.63a3.41,3.41,0,0,1,3,0,.93.93,0,0,1,0,1.76,3.35,3.35,0,0,1-3,0A.93.93,0,0,1,210.49,35.63Z"/><path class="cls-4" d="M199.47,50.62V55.3a2.69,2.69,0,0,1-1.37-.3l-34-19.61a2.86,2.86,0,0,1-1.3-2.25V31.45a2.89,2.89,0,0,1,1.06-2.08c-.47.41-.39,1,.24,1.33l34,19.61A2.69,2.69,0,0,0,199.47,50.62Z"/><path class="cls-5" d="M192.59,14.09l0,0a1.14,1.14,0,0,1,1.46-.3l29.56,17.06a.87.87,0,0,1,.26,1.3l0,0a1.13,1.13,0,0,1-1.46.3L192.86,15.4A.88.88,0,0,1,192.59,14.09Z"/><path class="cls-7" d="M192.59,14.09l0,0a1.14,1.14,0,0,1,1.46-.3l22,12.68-1.22,1.65-22-12.68A.88.88,0,0,1,192.59,14.09Z"/><path class="cls-5" d="M195,10.81l0,0a1.14,1.14,0,0,1,1.46-.3l29.55,17.06a.87.87,0,0,1,.27,1.3l0,0a1.16,1.16,0,0,1-1.47.31L195.31,12.12A.88.88,0,0,1,195,10.81Z"/><path class="cls-7" d="M195,10.81l0,0a1.14,1.14,0,0,1,1.46-.3l7.34,4.24-1.22,1.64-7.34-4.23A.88.88,0,0,1,195,10.81Z"/><path class="cls-5" d="M197.48,7.53l0,0a1.14,1.14,0,0,1,1.46-.3l29.55,17.06a.87.87,0,0,1,.27,1.3l0,0a1.15,1.15,0,0,1-1.46.31L197.75,8.84A.88.88,0,0,1,197.48,7.53Z"/><path class="cls-7" d="M197.48,7.53l0,0a1.14,1.14,0,0,1,1.46-.3l15.39,8.86-1.22,1.64L197.75,8.84A.88.88,0,0,1,197.48,7.53Z"/><path class="cls-5" d="M199.92,4.25l0,0a1.14,1.14,0,0,1,1.46-.3L231,21a.87.87,0,0,1,.26,1.3l0,.05a1.16,1.16,0,0,1-1.46.3L200.19,5.56A.88.88,0,0,1,199.92,4.25Z"/><path class="cls-7" d="M199.92,4.25l0,0a1.14,1.14,0,0,1,1.46-.3L228.24,19.4,227,21,200.19,5.56A.88.88,0,0,1,199.92,4.25Z"/></g><g id="Server-2" data-name="Server"><path class="cls-3" d="M146.59,278.54l10-5.79a4.79,4.79,0,0,1,4.33,0l59.52,34.37a2.21,2.21,0,0,0,3.31-1.91V256"/><path class="cls-3" d="M142.53,276.19l14.08-8.13a4.79,4.79,0,0,1,4.33,0l63.58,36.71a2.21,2.21,0,0,0,3.31-1.91V256"/><path class="cls-3" d="M138.46,273.84l18.15-10.47a4.79,4.79,0,0,1,4.33,0l67.65,39.06a2.2,2.2,0,0,0,3.3-1.91V256.26"/><path class="cls-3" d="M134.39,271.5l22.22-12.82a4.79,4.79,0,0,1,4.33,0l71.71,41.4a2.2,2.2,0,0,0,3.3-1.91V256.26"/><path class="cls-4" d="M79.43,68.71,14.7,106.08a4.8,4.8,0,0,0-2.16,3.75V287.76a4.8,4.8,0,0,0,2.16,3.75l64.73,37.37a4.79,4.79,0,0,0,4.33,0l64.72-37.37a4.78,4.78,0,0,0,2.17-3.75V109.83a4.78,4.78,0,0,0-2.17-3.75L83.76,68.71A4.79,4.79,0,0,0,79.43,68.71Z"/><path class="cls-5" d="M150.65,109.83V287.76a4.8,4.8,0,0,1-2.16,3.75L83.76,328.88a4.34,4.34,0,0,1-2.16.52V146.47a4.48,4.48,0,0,0,2.16-.52l64.73-37.37.59-.49.77-.64A4.49,4.49,0,0,1,150.65,109.83Z"/><path class="cls-6" d="M22.83,127.35l48.48,28a4.8,4.8,0,0,1,2.16,3.75v18.46c0,1.38-1,1.94-2.17,1.25l-48.47-28a4.78,4.78,0,0,1-2.17-3.75V128.6C20.66,127.21,21.63,126.66,22.83,127.35Z"/><path class="cls-7" d="M24.73,135.48a4.62,4.62,0,0,0,2.16,3.59l40.35,23.3c1.2.69,2.17.2,2.17-1.1a4.64,4.64,0,0,0-2.17-3.59l-40.35-23.3C25.69,133.69,24.73,134.18,24.73,135.48Z"/><path class="cls-5" d="M24.73,144.86a4.62,4.62,0,0,0,2.16,3.59l40.35,23.3c1.2.69,2.17.2,2.17-1.09a4.64,4.64,0,0,0-2.17-3.6l-40.35-23.3C25.69,143.07,24.73,143.56,24.73,144.86Z"/><path class="cls-7" d="M26.89,143.76,49.1,156.58v4.69L26.89,148.45a4.62,4.62,0,0,1-2.16-3.59C24.73,143.56,25.69,143.07,26.89,143.76Z"/><path class="cls-6" d="M22.83,160.18l48.48,28a4.8,4.8,0,0,1,2.16,3.75v18.45c0,1.38-1,1.94-2.17,1.25l-48.47-28a4.78,4.78,0,0,1-2.17-3.75V161.43C20.66,160.05,21.63,159.49,22.83,160.18Z"/><path class="cls-7" d="M24.73,168.31a4.62,4.62,0,0,0,2.16,3.59l40.35,23.3c1.2.69,2.17.2,2.17-1.09a4.64,4.64,0,0,0-2.17-3.6l-40.35-23.3C25.69,166.52,24.73,167,24.73,168.31Z"/><path class="cls-5" d="M24.73,177.69a4.63,4.63,0,0,0,2.16,3.6l40.35,23.29c1.2.69,2.17.2,2.17-1.09a4.64,4.64,0,0,0-2.17-3.6L26.89,176.6C25.69,175.91,24.73,176.4,24.73,177.69Z"/><path class="cls-7" d="M26.89,176.6l34.39,19.85v4.69L26.89,181.29a4.63,4.63,0,0,1-2.16-3.6C24.73,176.4,25.69,175.91,26.89,176.6Z"/><path class="cls-6" d="M22.83,193l48.48,28a4.8,4.8,0,0,1,2.16,3.75V243.2c0,1.38-1,1.94-2.17,1.25l-48.47-28a4.78,4.78,0,0,1-2.17-3.75V194.26C20.66,192.88,21.63,192.32,22.83,193Z"/><path class="cls-7" d="M24.73,201.14a4.63,4.63,0,0,0,2.16,3.6L67.24,228c1.2.69,2.17.2,2.17-1.1a4.65,4.65,0,0,0-2.17-3.6L26.89,200.05C25.69,199.36,24.73,199.85,24.73,201.14Z"/><path class="cls-5" d="M24.73,210.52a4.63,4.63,0,0,0,2.16,3.6l40.35,23.3c1.2.69,2.17.2,2.17-1.1a4.64,4.64,0,0,0-2.17-3.59l-40.35-23.3C25.69,208.74,24.73,209.23,24.73,210.52Z"/><path class="cls-7" d="M26.89,209.43,41,217.56v4.69l-14.08-8.13a4.63,4.63,0,0,1-2.16-3.6C24.73,209.23,25.69,208.74,26.89,209.43Z"/><path class="cls-6" d="M22.83,225.84l48.48,28a4.8,4.8,0,0,1,2.16,3.75V276c0,1.38-1,1.94-2.17,1.25l-48.47-28a4.78,4.78,0,0,1-2.17-3.75V227.09C20.66,225.71,21.63,225.15,22.83,225.84Z"/><path class="cls-7" d="M24.73,234a4.62,4.62,0,0,0,2.16,3.59l40.35,23.3c1.2.69,2.17.2,2.17-1.1a4.64,4.64,0,0,0-2.17-3.59l-40.35-23.3C25.69,232.19,24.73,232.68,24.73,234Z"/><path class="cls-5" d="M24.73,243.36A4.62,4.62,0,0,0,26.89,247l40.35,23.3c1.2.69,2.17.2,2.17-1.1a4.64,4.64,0,0,0-2.17-3.59l-40.35-23.3C25.69,241.57,24.73,242.06,24.73,243.36Z"/><path class="cls-7" d="M26.89,242.26,49.1,255.08v4.69L26.89,247a4.62,4.62,0,0,1-2.16-3.59C24.73,242.06,25.69,241.57,26.89,242.26Z"/><path class="cls-6" d="M22.83,258.68l48.48,28a4.78,4.78,0,0,1,2.16,3.75v18.45c0,1.38-1,1.94-2.17,1.25l-48.47-28a4.78,4.78,0,0,1-2.17-3.75V259.93C20.66,258.55,21.63,258,22.83,258.68Z"/><path class="cls-7" d="M24.73,266.81a4.62,4.62,0,0,0,2.16,3.59l40.35,23.3c1.2.69,2.17.2,2.17-1.09a4.64,4.64,0,0,0-2.17-3.6l-40.35-23.3C25.69,265,24.73,265.51,24.73,266.81Z"/><path class="cls-5" d="M24.73,276.19a4.64,4.64,0,0,0,2.16,3.6l40.35,23.29c1.2.69,2.17.2,2.17-1.09a4.64,4.64,0,0,0-2.17-3.6l-40.35-23.3C25.69,274.4,24.73,274.89,24.73,276.19Z"/><path class="cls-7" d="M26.89,275.09l30.33,17.52v4.69L26.89,279.79a4.64,4.64,0,0,1-2.16-3.6C24.73,274.89,25.69,274.4,26.89,275.09Z"/><path class="cls-4" d="M91.75,157.77c2.24-1.3,4.06-.12,4.06,2.64V267.68A9.33,9.33,0,0,1,91.75,275c-2.24,1.3-4.06.11-4.06-2.65V165.12A9.31,9.31,0,0,1,91.75,157.77Z"/><path class="cls-5" d="M91.75,272.66a4.65,4.65,0,0,0,2-3.67V161.42c0-1.38-.91-2-2-1.33a4.65,4.65,0,0,0-2,3.67V271.34C89.72,272.72,90.63,273.31,91.75,272.66Z"/><path class="cls-7" d="M91.75,272.66a4.65,4.65,0,0,0,2-3.67V217.56l-4.06,2.34v51.44C89.72,272.72,90.63,273.31,91.75,272.66Z"/><path class="cls-4" d="M103.94,150.73c2.24-1.3,4.06-.12,4.06,2.65V260.65a9.31,9.31,0,0,1-4.06,7.35c-2.25,1.3-4.07.12-4.07-2.64V158.09A9.3,9.3,0,0,1,103.94,150.73Z"/><path class="cls-7" d="M103.94,265.63a4.65,4.65,0,0,0,2-3.68V154.38c0-1.38-.91-2-2-1.32a4.61,4.61,0,0,0-2,3.67V264.3C101.91,265.68,102.81,266.27,103.94,265.63Z"/><path class="cls-4" d="M116.12,143.69c2.25-1.3,4.06-.11,4.06,2.65V253.61a9.3,9.3,0,0,1-4.06,7.36c-2.24,1.3-4.06.11-4.06-2.65V151.05A9.34,9.34,0,0,1,116.12,143.69Z"/><path class="cls-5" d="M116.12,258.59a4.65,4.65,0,0,0,2-3.67V147.35c0-1.38-.91-2-2-1.33a4.65,4.65,0,0,0-2,3.67V257.26C114.09,258.65,115,259.24,116.12,258.59Z"/><path class="cls-7" d="M116.12,258.59a4.65,4.65,0,0,0,2-3.67V171.83l-4.06,2.34v83.09C114.09,258.65,115,259.24,116.12,258.59Z"/><path class="cls-4" d="M128.31,136.66c2.24-1.3,4.06-.12,4.06,2.64V246.58a9.31,9.31,0,0,1-4.06,7.35c-2.24,1.3-4.06.12-4.06-2.64V144A9.28,9.28,0,0,1,128.31,136.66Z"/><path class="cls-5" d="M128.31,251.56a4.66,4.66,0,0,0,2-3.68V140.31c0-1.38-.91-2-2-1.32a4.63,4.63,0,0,0-2,3.67V250.23C126.28,251.61,127.19,252.2,128.31,251.56Z"/><path class="cls-7" d="M128.31,251.56a4.66,4.66,0,0,0,2-3.68V229.73l-4.06,2.34v18.16C126.28,251.61,127.19,252.2,128.31,251.56Z"/><path class="cls-4" d="M140.49,129.62c2.25-1.3,4.07-.11,4.07,2.65V239.54a9.34,9.34,0,0,1-4.06,7.36c-2.25,1.3-4.07.11-4.07-2.65V137A9.33,9.33,0,0,1,140.49,129.62Z"/><path class="cls-5" d="M140.5,244.52a4.65,4.65,0,0,0,2-3.67V133.28c0-1.38-.91-2-2-1.33a4.65,4.65,0,0,0-2,3.67V243.19C138.46,244.57,139.37,245.17,140.5,244.52Z"/><path class="cls-7" d="M140.5,244.52a4.65,4.65,0,0,0,2-3.67V184.73l-4.07,2.34v56.12C138.46,244.57,139.37,245.17,140.5,244.52Z"/><path class="cls-4" d="M89.42,288.09l53.4-30.83c1-.56,1.74-.11,1.74,1v19.45a3.83,3.83,0,0,1-1.74,3l-53.4,30.83c-1,.55-1.73.11-1.73-1V291.09A3.81,3.81,0,0,1,89.42,288.09Z"/><path class="cls-5" d="M91.62,293.86c0,1.29,1,1.78,2.16,1.09l44.68-25.8a4.64,4.64,0,0,0,2.17-3.6c0-1.29-1-1.78-2.17-1.09l-44.68,25.8A4.6,4.6,0,0,0,91.62,293.86Z"/><path class="cls-7" d="M91.62,293.86c0,1.29,1,1.78,2.16,1.09l32.5-18.77v-4.69l-32.5,18.77A4.6,4.6,0,0,0,91.62,293.86Z"/><path class="cls-5" d="M91.62,303.24c0,1.29,1,1.78,2.16,1.09l44.68-25.8a4.64,4.64,0,0,0,2.17-3.6c0-1.29-1-1.78-2.17-1.09l-44.68,25.8A4.6,4.6,0,0,0,91.62,303.24Z"/><path class="cls-7" d="M91.62,303.24c0,1.29,1,1.78,2.16,1.09l12.19-7v-4.69l-12.19,7A4.6,4.6,0,0,0,91.62,303.24Z"/><path class="cls-6" d="M148.48,106.08,83.76,68.72a4.73,4.73,0,0,0-4.33,0L14.7,106.08a1.32,1.32,0,0,0,0,2.5L79.43,146a4.79,4.79,0,0,0,4.33,0l64.72-37.37A1.32,1.32,0,0,0,148.48,106.08Z"/><path class="cls-5" d="M80.3,137.07l-50.21-29a2.86,2.86,0,0,1-1.3-2.25v-1.69a2.87,2.87,0,0,1,1.3-2.25l50.2-29a2.84,2.84,0,0,1,2.6,0l50.21,29a2.89,2.89,0,0,1,1.3,2.25v1.69a2.86,2.86,0,0,1-1.3,2.25l-50.21,29A2.82,2.82,0,0,1,80.3,137.07Z"/><path class="cls-6" d="M30.09,103.39l50.21,29a2.82,2.82,0,0,0,2.59,0l50.21-29c.72-.41.72-1.08,0-1.5l-50.21-28a2.84,2.84,0,0,0-2.6,0l-50.2,28C29.37,102.31,29.37,103,30.09,103.39Z"/><path class="cls-4" d="M81.6,132.69v4.69a2.63,2.63,0,0,1-1.3-.31l-50.21-29a2.86,2.86,0,0,1-1.3-2.25v-1.69a2.89,2.89,0,0,1,1.06-2.08c-.47.41-.39,1,.24,1.33l50.21,29A2.63,2.63,0,0,0,81.6,132.69Z"/><path class="cls-5" d="M80.3,123l-34-19.61A2.87,2.87,0,0,1,45,101.14V99.45a2.89,2.89,0,0,1,1.29-2.25L68.11,84.63a8.5,8.5,0,0,0,2.19-1.95l10.4-14a1.72,1.72,0,0,1,2.19-.46l34,19.61a2.87,2.87,0,0,1,1.3,2.25v11.07a2.86,2.86,0,0,1-1.3,2.25L82.89,123A2.88,2.88,0,0,1,80.3,123Z"/><path class="cls-6" d="M82.89,118.31l21.78-12.57a7.58,7.58,0,0,0,1.13-.85,7.21,7.21,0,0,0,1.06-1.11l10.4-14a1.31,1.31,0,0,0-.41-2l-34-19.61a1.72,1.72,0,0,0-2.19.46l-10.4,14a8.08,8.08,0,0,1-2,2l-22,12.49a.79.79,0,0,0,0,1.5l34,19.61A2.88,2.88,0,0,0,82.89,118.31Z"/><path class="cls-4" d="M116.85,87.82l-34-19.61a1.72,1.72,0,0,0-2.19.46l-10.4,14a8.25,8.25,0,0,1-1.06,1.1s36.55,21.12,36.56,21.11a7.21,7.21,0,0,0,1.06-1.11l10.4-14A1.31,1.31,0,0,0,116.85,87.82Z"/><path class="cls-7" d="M54.57,97.55a3.35,3.35,0,0,1,3,0,.93.93,0,0,1,0,1.76,3.41,3.41,0,0,1-3,0A.93.93,0,0,1,54.57,97.55Z"/><path class="cls-7" d="M60.67,101.06a3.39,3.39,0,0,1,3,0c.85.49.85,1.28,0,1.76a3.33,3.33,0,0,1-3,0A.93.93,0,0,1,60.67,101.06Z"/><path class="cls-5" d="M66.76,104.58a3.41,3.41,0,0,1,3,0,.93.93,0,0,1,0,1.76,3.35,3.35,0,0,1-3,0A.93.93,0,0,1,66.76,104.58Z"/><path class="cls-5" d="M72.85,108.1a3.35,3.35,0,0,1,3.05,0,.93.93,0,0,1,0,1.76,3.41,3.41,0,0,1-3.05,0A.93.93,0,0,1,72.85,108.1Z"/><path class="cls-7" d="M59.14,94.91a3.35,3.35,0,0,1,3,0,.93.93,0,0,1,0,1.76,3.41,3.41,0,0,1-3,0A.93.93,0,0,1,59.14,94.91Z"/><ellipse class="cls-5" cx="66.76" cy="99.31" rx="2.15" ry="1.24"/><path class="cls-7" d="M71.33,101.94a3.41,3.41,0,0,1,3,0,.93.93,0,0,1,0,1.76,3.35,3.35,0,0,1-3,0A.93.93,0,0,1,71.33,101.94Z"/><ellipse class="cls-5" cx="78.95" cy="106.34" rx="2.15" ry="1.24"/><path class="cls-5" d="M63.71,92.27a3.35,3.35,0,0,1,3.05,0,.93.93,0,0,1,0,1.76,3.41,3.41,0,0,1-3.05,0A.93.93,0,0,1,63.71,92.27Z"/><path class="cls-7" d="M69.81,95.79a3.33,3.33,0,0,1,3,0,.93.93,0,0,1,0,1.76,3.39,3.39,0,0,1-3,0A.93.93,0,0,1,69.81,95.79Z"/><path class="cls-5" d="M75.9,99.31a3.35,3.35,0,0,1,3,0,.92.92,0,0,1,0,1.75,3.35,3.35,0,0,1-3,0A.92.92,0,0,1,75.9,99.31Z"/><path class="cls-7" d="M79,111.55a3.35,3.35,0,0,1,3,0,.93.93,0,0,1,0,1.76,3.41,3.41,0,0,1-3,0A.93.93,0,0,1,79,111.55Z"/><path class="cls-5" d="M83.55,108.91a3.35,3.35,0,0,1,3,0,.93.93,0,0,1,0,1.76,3.41,3.41,0,0,1-3,0A.93.93,0,0,1,83.55,108.91Z"/><path class="cls-5" d="M82,102.83a3.35,3.35,0,0,1,3.05,0,.93.93,0,0,1,0,1.76,3.41,3.41,0,0,1-3.05,0A.93.93,0,0,1,82,102.83Z"/><ellipse class="cls-7" cx="69.81" cy="90.51" rx="2.15" ry="1.24"/><path class="cls-5" d="M74.38,93.15a3.39,3.39,0,0,1,3,0,.93.93,0,0,1,0,1.76,3.33,3.33,0,0,1-3,0C73.53,94.43,73.53,93.64,74.38,93.15Z"/><ellipse class="cls-7" cx="81.99" cy="97.55" rx="2.15" ry="1.24"/><path class="cls-5" d="M86.56,100.19a3.35,3.35,0,0,1,3,0,.93.93,0,0,1,0,1.76,3.41,3.41,0,0,1-3,0A.93.93,0,0,1,86.56,100.19Z"/><path class="cls-7" d="M88.12,106.27a3.41,3.41,0,0,1,3,0,.93.93,0,0,1,0,1.76,3.35,3.35,0,0,1-3,0A.93.93,0,0,1,88.12,106.27Z"/><ellipse class="cls-5" cx="94.21" cy="104.51" rx="2.15" ry="1.24"/><path class="cls-4" d="M81.67,118.62v4.68a2.69,2.69,0,0,1-1.37-.3l-34-19.61a2.86,2.86,0,0,1-1.3-2.25V99.45a2.89,2.89,0,0,1,1.06-2.08c-.47.41-.39,1,.24,1.33l34,19.61A2.69,2.69,0,0,0,81.67,118.62Z"/><path class="cls-5" d="M74.79,82.09l0,0a1.15,1.15,0,0,1,1.46-.3l29.56,17.06a.86.86,0,0,1,.26,1.3l0,0a1.13,1.13,0,0,1-1.46.3l-29.55-17A.88.88,0,0,1,74.79,82.09Z"/><path class="cls-7" d="M74.79,82.09l0,0a1.15,1.15,0,0,1,1.46-.3l22,12.68L97,96.08l-22-12.68A.88.88,0,0,1,74.79,82.09Z"/><path class="cls-5" d="M77.24,78.81l0,0a1.14,1.14,0,0,1,1.46-.3l29.55,17.06a.87.87,0,0,1,.27,1.3l0,0a1.16,1.16,0,0,1-1.47.31L77.51,80.12A.88.88,0,0,1,77.24,78.81Z"/><path class="cls-7" d="M77.24,78.81l0,0a1.14,1.14,0,0,1,1.46-.3l7.34,4.24-1.22,1.64-7.34-4.23A.88.88,0,0,1,77.24,78.81Z"/><path class="cls-5" d="M79.68,75.53l0,0a1.14,1.14,0,0,1,1.46-.3l29.55,17.06a.87.87,0,0,1,.27,1.3l0,0a1.16,1.16,0,0,1-1.46.3L80,76.84A.88.88,0,0,1,79.68,75.53Z"/><path class="cls-7" d="M79.68,75.53l0,0a1.14,1.14,0,0,1,1.46-.3l15.39,8.86-1.22,1.64L80,76.84A.88.88,0,0,1,79.68,75.53Z"/><path class="cls-5" d="M82.12,72.25l0,0a1.14,1.14,0,0,1,1.46-.3L113.17,89a.87.87,0,0,1,.26,1.3l0,0a1.16,1.16,0,0,1-1.46.3L82.39,73.56A.88.88,0,0,1,82.12,72.25Z"/><path class="cls-7" d="M82.12,72.25l0,0a1.14,1.14,0,0,1,1.46-.3L110.44,87.4,109.21,89,82.39,73.56A.88.88,0,0,1,82.12,72.25Z"/></g><g id="Desk"><g id="Desk-2" data-name="Desk"><path class="cls-8" d="M219.13,263.77v54.77a1.43,1.43,0,0,0,.65,1.12l52.5,30.27a1.42,1.42,0,0,0,1.3,0l1.75-1a1.42,1.42,0,0,0,.65-1.12V293a.76.76,0,0,0-.75-.75L219.88,263A.76.76,0,0,0,219.13,263.77Z"/><path class="cls-9" d="M275.23,292.28h-1.55a.75.75,0,0,0-.75.75v56.53c0,.41.29.58.65.37l1.75-1a1.42,1.42,0,0,0,.65-1.12V293A.76.76,0,0,0,275.23,292.28Z"/><path class="cls-2" d="M323.68,201v54.77a1.45,1.45,0,0,0,.65,1.13l54.57,31.48a1.48,1.48,0,0,0,1.3,0l1.74-1a1.44,1.44,0,0,0,.65-1.13V231.48a.75.75,0,0,0-.75-.75l-57.41-30.47A.75.75,0,0,0,323.68,201Z"/><path class="cls-10" d="M381.84,230.73H380.3a.75.75,0,0,0-.75.75V288c0,.41.29.58.65.38l1.74-1a1.44,1.44,0,0,0,.65-1.13V231.48A.75.75,0,0,0,381.84,230.73Z"/><path class="cls-9" d="M214,262.05v-.52a2.91,2.91,0,0,1,1.3-2.25L325.44,195.7a2.9,2.9,0,0,1,2.6,0l58.33,33.68a2.87,2.87,0,0,1,1.3,2.25v.52a2.86,2.86,0,0,1-1.3,2.25L276.24,298a2.88,2.88,0,0,1-2.59,0L215.31,264.3A2.88,2.88,0,0,1,214,262.05Z"/><path class="cls-10" d="M275,294.77v3.52a2.74,2.74,0,0,1-1.3-.31L215.32,264.3a2.87,2.87,0,0,1-1.3-2.25v-.52a2.87,2.87,0,0,1,1.06-2.08c-.47.4-.39,1,.24,1.33l58.33,33.68A2.63,2.63,0,0,0,275,294.77Z"/><path class="cls-8" d="M215.31,260.78l58.34,33.68a2.82,2.82,0,0,0,2.59,0l110.13-63.58c.72-.41.72-1.08,0-1.5L328,195.7a2.9,2.9,0,0,0-2.6,0L215.31,259.28A.79.79,0,0,0,215.31,260.78Z"/><path class="cls-10" d="M309.33,237.27l33-19.08a2.35,2.35,0,0,1,2.13,0l10.44,6.1a.65.65,0,0,1,0,1.23l-33,19.08a2.37,2.37,0,0,1-2.14,0l-10.44-6.1A.65.65,0,0,1,309.33,237.27Z"/><path class="cls-10" d="M315.18,225.44l0,0-3.5-2c-.48-.28-.48-.73,0-1l27.41-15.83a.53.53,0,0,0,0-1l-.28-.16a2,2,0,0,0-1.74,0l-26.63,15.38c-.47.27-.92.3-.93.05a1.75,1.75,0,0,1,0-.46l1.51-7.82a1.51,1.51,0,0,0-.68-1.48l-.28-.15a.66.66,0,0,0-1.05.48l-1.74,9.08a2.85,2.85,0,0,0,0,1,1.47,1.47,0,0,1-.59,1.46L290,232.56c-.48.27-.48.72,0,1l.29.16a1.89,1.89,0,0,0,1.73,0l15.88-9.17a4.13,4.13,0,0,1,.94-.46.18.18,0,0,0,.07,0l5.4,3.12a1.89,1.89,0,0,0,1.73,0l11.31-6.51c.47-.27.63-.63.35-.79a1.85,1.85,0,0,0-1.42.15L316.11,225C315.61,225.26,315.19,225.44,315.18,225.44Z"/></g><g id="Device"><g id="Keyboard"><path class="cls-4" d="M344.3,215.67l9.88,5.7a2,2,0,0,1,0,3.54l-31.9,18.42a2.35,2.35,0,0,1-2.13,0l-9.88-5.7a2,2,0,0,1,0-3.55l31.9-18.41A2.35,2.35,0,0,1,344.3,215.67Z"/><path class="cls-5" d="M321.21,243.59a2.16,2.16,0,0,1-1.06-.26l-9.88-5.7a2,2,0,0,1,0-3.55l1-.59h9.92Z"/><path class="cls-6" d="M310.26,234.08l31.9-18.41a2.37,2.37,0,0,1,2.14,0l9.87,5.7a.65.65,0,0,1,0,1.23L322.27,241a2.35,2.35,0,0,1-2.13,0l-9.88-5.7A.66.66,0,0,1,310.26,234.08Z"/><path class="cls-7" d="M339.42,224.16l1-.58c.05,0,0-.06,0-.09l-1.16-.67a.15.15,0,0,0-.16,0l-1,.58s0,.06,0,.09l1.16.67A.15.15,0,0,0,339.42,224.16Zm-2-2.3-1,.58s0,.07,0,.09l1.16.67a.18.18,0,0,0,.16,0l1-.58s0-.07,0-.1l-1.16-.67A.22.22,0,0,0,337.44,221.86Zm-3.25,1.87-1.7,1s0,.07,0,.1l1.16.67a.18.18,0,0,0,.16,0l1.7-1s0-.07,0-.09l-1.16-.67A.18.18,0,0,0,334.19,223.73Zm1.78-1-1,.58c-.05,0,0,.06,0,.09l1.16.67a.15.15,0,0,0,.16,0l1-.58s0-.06,0-.09l-1.16-.67A.15.15,0,0,0,336,222.71ZM332,225l-1,.58s0,.07,0,.09l1.16.68a.22.22,0,0,0,.16,0l1-.58s0-.07,0-.09l-1.16-.67A.18.18,0,0,0,332,225Zm-1.47.85-1,.58c-.05,0,0,.07,0,.09l1.16.67a.18.18,0,0,0,.16,0l1-.58s0-.07,0-.1l-1.16-.67A.22.22,0,0,0,330.56,225.83Zm4.57,2.73,1-.58c.05,0,0-.07,0-.1l-1.16-.67a.22.22,0,0,0-.16,0l-1,.58s0,.07,0,.09l1.16.67A.18.18,0,0,0,335.13,228.56Zm-1.47.84,1-.58s0-.06,0-.09l-1.16-.67a.15.15,0,0,0-.16,0l-1,.58s0,.06,0,.09l1.16.67A.15.15,0,0,0,333.66,229.4Zm-1.47.85,1-.58s0-.06,0-.09l-1.16-.67a.15.15,0,0,0-.16,0l-1,.58c-.05,0,0,.06,0,.09l1.16.67A.15.15,0,0,0,332.19,230.25Zm-1.46.85,1-.58s0-.07,0-.09l-1.16-.67a.18.18,0,0,0-.16,0l-1,.58a.06.06,0,0,0,0,.1l1.17.67A.22.22,0,0,0,330.73,231.1ZM338,225l1-.58s0-.06,0-.09l-1.16-.67a.15.15,0,0,0-.16,0l-1,.58s0,.06,0,.09l1.16.67A.18.18,0,0,0,338,225Zm-1.35,2.7,2.24-1.29s0-.07,0-.1L336,224.69a.22.22,0,0,0-.16,0l-1.16.67s0,.07,0,.09l1.49.87c.05,0,.05.06,0,.09l-.93.53s0,.07,0,.1l1.16.67A.22.22,0,0,0,336.6,227.71Zm-7.51-1-1,.58s0,.06,0,.09l1.16.67a.15.15,0,0,0,.16,0l1-.58s0-.06,0-.09l-1.17-.67A.15.15,0,0,0,329.09,226.68Zm-1.46.85-1,.57s0,.07,0,.1l1.16.67a.18.18,0,0,0,.16,0l1-.58c.05,0,0-.06,0-.09l-1.16-.67A.15.15,0,0,0,327.63,227.53Zm-7.34,9.5a.15.15,0,0,0,.16,0l1-.58c.05,0,0-.06,0-.09l-1.16-.67a.15.15,0,0,0-.16,0l-1,.58s0,.06,0,.09Zm-4.41-2.72-1,.58c-.05,0,0,.06,0,.09l1.16.67a.18.18,0,0,0,.16,0l1-.58s0-.06,0-.09l-1.16-.67A.15.15,0,0,0,315.88,234.31Zm2.36,2a.18.18,0,0,0,.16,0l1-.58s0-.07,0-.09l-1.16-.68a.22.22,0,0,0-.16,0l-1,.58c-.05,0,0,.07,0,.09Zm4.64,1.25,1-.58s0-.06,0-.09l-1.16-.67a.15.15,0,0,0-.16,0l-1,.58s0,.06,0,.09l1.16.67A.15.15,0,0,0,322.88,237.54Zm-1.63.85a.18.18,0,0,0,.16,0l1-.58s0-.06,0-.09l-1.16-.67a.15.15,0,0,0-.16,0l-1,.58s0,.06,0,.09Zm-3.9-4.93-1,.58c-.05,0,0,.06,0,.09l1.16.67a.15.15,0,0,0,.16,0l1-.58s0-.06,0-.09l-1.16-.67A.15.15,0,0,0,317.35,233.46Zm7.34-4.24-1,.58c-.05,0,0,.07,0,.09l1.16.67a.18.18,0,0,0,.16,0l1-.58s0-.07,0-.1l-1.16-.67A.22.22,0,0,0,324.69,229.22Zm-5.87,3.39-1,.58s0,.07,0,.09L319,234a.18.18,0,0,0,.16,0l1-.58s0-.07,0-.1l-1.16-.67A.22.22,0,0,0,318.82,232.61Zm7.34-4.24-1,.58s0,.07,0,.09l1.16.68a.22.22,0,0,0,.16,0l1-.58s0-.07,0-.09l-1.16-.67A.18.18,0,0,0,326.16,228.37Zm-2.94,1.7-1,.58c-.05,0,0,.06,0,.09l1.16.67a.15.15,0,0,0,.16,0l1-.58s0-.06,0-.09l-1.16-.67A.15.15,0,0,0,323.22,230.07Zm-1.47.85-1,.58s0,.06,0,.09l1.17.67a.18.18,0,0,0,.16,0l1-.58s0-.06,0-.09l-1.17-.67A.15.15,0,0,0,321.75,230.92Zm-1.46.84-1,.58s0,.07,0,.1l1.16.67a.22.22,0,0,0,.16,0l1-.58c.05,0,0-.07,0-.09l-1.16-.67A.18.18,0,0,0,320.29,231.76Zm7.5,1,1-.58s0-.06,0-.09l-1.16-.67a.18.18,0,0,0-.16,0l-1,.58s0,.06,0,.09l1.16.67A.15.15,0,0,0,327.79,232.79ZM340.68,220l-1,.58s0,.06,0,.09l1.17.67a.15.15,0,0,0,.16,0l1-.58s0-.06,0-.09l-1.16-.67A.15.15,0,0,0,340.68,220Zm-1.77,1-1,.58s0,.07,0,.09l1.16.68a.22.22,0,0,0,.16,0l1-.58s0-.07,0-.09l-1.16-.67A.18.18,0,0,0,338.91,221Zm3.24-1.87-1,.58s0,.06,0,.09l1.16.67a.15.15,0,0,0,.16,0l1-.57s0-.07,0-.1l-1.16-.67A.18.18,0,0,0,342.15,219.14Zm-7.6,7.83,1-.58s0-.06,0-.09l-1.16-.67a.15.15,0,0,0-.16,0l-1,.58c-.05,0,0,.06,0,.09l1.16.67A.15.15,0,0,0,334.55,227Zm9.23-8.68a.22.22,0,0,0-.16,0l-1,.58s0,.07,0,.09l1.16.67a.18.18,0,0,0,.16,0l1-.58s0-.07,0-.09ZM329.26,232l1-.58c.05,0,0-.07,0-.1l-1.16-.67a.22.22,0,0,0-.16,0l-1,.58s0,.07,0,.09l1.16.67A.18.18,0,0,0,329.26,232Zm18-10.4,1-.58c.05,0,.05-.06,0-.09l-1.16-.67a.15.15,0,0,0-.16,0l-1,.58s0,.06,0,.09l1.16.67A.15.15,0,0,0,347.26,221.55Zm-3.13-.11,1-.58s0-.06,0-.09L344,220.1a.15.15,0,0,0-.16,0l-1,.58c-.05,0,0,.06,0,.09l1.16.67A.15.15,0,0,0,344.13,221.44Zm1.31-2.19a.18.18,0,0,0-.16,0l-1,.58s0,.07,0,.09l1.16.67a.18.18,0,0,0,.16,0l1-.58s0-.07,0-.1Zm.31-.18,2.82,1.63a.18.18,0,0,0,.16,0l1-.58s0-.07,0-.1l-2.82-1.63a.22.22,0,0,0-.16,0l-1,.58S345.7,219.05,345.75,219.07Zm-3.41,1.87-1,.58a.06.06,0,0,0,0,.1l1.17.67a.18.18,0,0,0,.16,0l1-.58s0-.07,0-.09L342.5,221A.18.18,0,0,0,342.34,220.94Zm-11,6.38-1,.58s0,.07,0,.1l1.16.67a.22.22,0,0,0,.16,0l1-.58s0-.07,0-.09l-1.17-.67A.18.18,0,0,0,331.29,227.32Zm14.34-4.92a.18.18,0,0,0,.16,0l1-.58s0-.07,0-.09l-1.16-.67a.18.18,0,0,0-.16,0l-1,.58c-.05,0,0,.07,0,.1Zm-12.87,4.08-1,.58c-.05,0,0,.06,0,.09l1.16.67a.15.15,0,0,0,.16,0l1-.58s0-.06,0-.09l-1.16-.67A.15.15,0,0,0,332.76,226.48Zm-11,9.7a.15.15,0,0,0,.16,0l1-.58c.05,0,0-.06,0-.09l-1.16-.67a.18.18,0,0,0-.16,0l-1,.58s0,.06,0,.09Zm-2.21-2.08-1,.58c-.05,0,0,.07,0,.1l1.16.67a.22.22,0,0,0,.16,0l1-.58s0-.07,0-.09l-1.16-.67A.18.18,0,0,0,319.55,234.1Zm3.84,1.24,1-.58s0-.07,0-.1l-1.16-.67a.22.22,0,0,0-.16,0l-1,.58s0,.07,0,.09l1.17.67A.18.18,0,0,0,323.39,235.34Zm1.46-.85,1-.58s0-.07,0-.09l-1.16-.67a.18.18,0,0,0-.16,0l-1,.58s0,.07,0,.1l1.16.67A.22.22,0,0,0,324.85,234.49Zm1.47-.85,1-.58s0-.06,0-.09l-1.16-.67a.15.15,0,0,0-.16,0l-1,.58s0,.06,0,.09l1.16.67A.15.15,0,0,0,326.32,233.64Zm-5.3-.38-1,.58s0,.06,0,.09l1.16.67a.15.15,0,0,0,.16,0l1-.58s0-.06,0-.09l-1.16-.67A.15.15,0,0,0,321,233.26Zm1.47-.85-1,.58s0,.06,0,.09l1.16.67a.15.15,0,0,0,.16,0l1-.58c.05,0,0-.06,0-.09l-1.16-.67A.18.18,0,0,0,322.49,232.41Zm5.87-3.39-1,.58s0,.06,0,.09l1.16.67a.15.15,0,0,0,.16,0l1-.58s0-.06,0-.09l-1.16-.67A.18.18,0,0,0,328.36,229Zm-1.47.85-1,.58c-.05,0,0,.06,0,.09l1.16.67a.15.15,0,0,0,.16,0l1-.58s0-.06,0-.09l-1.16-.67A.15.15,0,0,0,326.89,229.87Zm2.94-1.7-1,.58s0,.07,0,.09l1.16.67a.18.18,0,0,0,.16,0l1-.58c.05,0,0-.07,0-.1l-1.16-.67A.22.22,0,0,0,329.83,228.17ZM324,231.56l-1,.58s0,.07,0,.09l1.16.67a.18.18,0,0,0,.16,0l1-.58a.06.06,0,0,0,0-.1l-1.17-.67A.22.22,0,0,0,324,231.56Zm1.47-.85-1,.58c-.05,0,0,.07,0,.1l1.16.67a.22.22,0,0,0,.16,0l1-.58s0-.07,0-.09l-1.16-.67A.18.18,0,0,0,325.42,230.71Zm-1.07,6,1-.58s0-.07,0-.1l-1.16-.67a.22.22,0,0,0-.16,0l-1,.58s0,.07,0,.09l1.16.67A.18.18,0,0,0,324.35,236.7Zm-8.61-.87-1.17-.67a.18.18,0,0,0-.16,0l-1,.58a.06.06,0,0,0,0,.1l1.17.67a.22.22,0,0,0,.16,0l1-.58S315.78,235.85,315.74,235.83Zm2.2.64-1.17-.67a.18.18,0,0,0-.16,0l-1.54.89s0,.07,0,.09l1.17.67a.18.18,0,0,0,.16,0l1.54-.89A.06.06,0,0,0,317.94,236.47Zm-4-1.94-1.16-.67a.15.15,0,0,0-.16,0l-1.23.71s0,.07,0,.09l1.16.67a.18.18,0,0,0,.16,0l1.24-.72S314,234.56,314,234.53Zm.95-.55a.18.18,0,0,0,.16,0l1-.58s0-.07,0-.1l-1.16-.67a.22.22,0,0,0-.16,0l-1,.58s0,.07,0,.09Zm5.08,3.23-1.16-.67a.18.18,0,0,0-.16,0l-1.93,1.12c-.05,0,0,.06,0,.09l1.16.67a.18.18,0,0,0,.16,0L320,237.3S320,237.23,320,237.21Zm1,1.36-1.16-.67a.18.18,0,0,0-.16,0l-1.23.72c-.05,0,0,.06,0,.09l1.16.67a.15.15,0,0,0,.16,0l1.24-.71S321,238.59,320.94,238.57Zm4.88-10.89a.15.15,0,0,0,.16,0l1-.58s0-.06,0-.09l-1.16-.67a.18.18,0,0,0-.16,0l-1,.58s0,.06,0,.09Zm-2.94,1.7a.22.22,0,0,0,.16,0l1-.58s0-.07,0-.09l-1.16-.67a.18.18,0,0,0-.16,0l-1,.58s0,.07,0,.1Zm-6.51,3.76a.22.22,0,0,0,.16,0l1-.58c.05,0,0-.07,0-.09l-1.16-.67a.18.18,0,0,0-.16,0l-1,.58s0,.07,0,.1Zm8-4.61a.15.15,0,0,0,.16,0l1-.58c.05,0,0-.06,0-.09l-1.16-.67a.15.15,0,0,0-.16,0l-1,.58s0,.06,0,.09Zm-2.94,1.69a.18.18,0,0,0,.16,0l1-.58s0-.07,0-.09l-1.16-.68a.22.22,0,0,0-.16,0l-1,.58s0,.07,0,.09Zm.34,8.46a.18.18,0,0,0-.16,0l-1.54.89c-.05,0,0,.07,0,.1l1.16.67a.18.18,0,0,0,.16,0l1.55-.89s0-.07,0-.09Zm-2.44-7.24a.15.15,0,0,0,.16,0l1-.58s0-.06,0-.09l-1.16-.67a.15.15,0,0,0-.16,0l-1,.58s0,.06,0,.09Zm-1.47.85a.18.18,0,0,0,.16,0l1-.58s0-.06,0-.09l-1.17-.67a.15.15,0,0,0-.16,0l-1,.58s0,.06,0,.09ZM349,223a.22.22,0,0,0-.16,0l-2.47,1.43c-.05,0,0,.06,0,.09l1.16.67a.15.15,0,0,0,.16,0l2.48-1.42s0-.07,0-.1Zm-3.25,1.88a.18.18,0,0,0-.16,0l-1,.58a.06.06,0,0,0,0,.1l1.17.67a.22.22,0,0,0,.16,0l1-.58s0-.07,0-.09Zm-19.88,11,1-.58c.05,0,0-.07,0-.09l-1.16-.67a.18.18,0,0,0-.16,0l-1,.58s0,.07,0,.1l1.16.67A.22.22,0,0,0,325.82,235.85Zm16.95-9.31a.18.18,0,0,0-.16,0l-1,.58s0,.07,0,.09l1.16.67a.18.18,0,0,0,.16,0l1-.58c.05,0,0-.07,0-.1Zm7.65-4.41a.18.18,0,0,0-.16,0l-1,.58s0,.07,0,.1l1.16.67a.22.22,0,0,0,.16,0l1-.58c.05,0,0-.07,0-.09Zm2.63-.18-2.83-1.63a.15.15,0,0,0-.16,0l-1,.58s0,.06,0,.09l2.82,1.63a.18.18,0,0,0,.16,0l1-.58S353.09,222,353.05,222Zm-15.77,7.76a.15.15,0,0,0-.16,0l-1.23.71c-.05,0-.05.07,0,.09l1.16.67a.18.18,0,0,0,.16,0l1.24-.72s0-.06,0-.09Zm3.71-2.14a.15.15,0,0,0-.16,0l-1.55.89s0,.06,0,.09l1.16.67a.15.15,0,0,0,.16,0l1.55-.89s0-.06,0-.09Zm-7.11,4.1a.18.18,0,0,0-.16,0l-8.27,4.77s0,.07,0,.09l1.16.68a.22.22,0,0,0,.16,0l8.27-4.77s0-.07,0-.1Zm-8.73,5a.22.22,0,0,0-.16,0l-1.24.71s0,.07,0,.1l1.16.67a.22.22,0,0,0,.16,0l1.24-.71s0-.07,0-.1Zm10.43-6a.15.15,0,0,0-.16,0l-1.23.71c-.05,0,0,.07,0,.09l1.16.67a.18.18,0,0,0,.16,0l1.24-.72s0-.06,0-.09Zm-12.13,7a.22.22,0,0,0-.16,0l-1.24.71s0,.07,0,.1l1.16.67a.18.18,0,0,0,.16,0l1.24-.71s0-.07,0-.1Zm15.53-9a.18.18,0,0,0-.16,0l-1.24.72s0,.06,0,.09l1.16.67a.15.15,0,0,0,.16,0l1.24-.71s0-.06,0-.09Zm5.26-3a.25.25,0,0,0-.17,0l-1,.58s0,.07,0,.09l1.16.67a.18.18,0,0,0,.16,0l1-.58s0-.07,0-.09Zm3.21-2.33,1-.58s0-.07,0-.09l-1.16-.67a.18.18,0,0,0-.16,0l-1,.58s0,.07,0,.09l1.16.68A.22.22,0,0,0,347.45,223.36Zm-6.56,0,1-.58c.05,0,0-.07,0-.1l-1.16-.67a.22.22,0,0,0-.16,0l-1,.58s0,.07,0,.09l1.16.67A.18.18,0,0,0,340.89,223.32Zm-3.33,5.75,2.94-1.7s0-.06,0-.09l-1.16-.67a.15.15,0,0,0-.16,0l-2.94,1.69s0,.07,0,.09l1.16.68A.22.22,0,0,0,337.56,229.07Zm8.26-4.87a.18.18,0,0,0,.16,0l1-.58s0-.07,0-.1l-1.16-.67a.22.22,0,0,0-.16,0l-1,.58c-.05,0,0,.07,0,.09Zm-1.5-.95,1-.58s0-.07,0-.09l-1.16-.67a.18.18,0,0,0-.16,0l-1,.58c-.05,0,0,.07,0,.09l1.16.68A.22.22,0,0,0,344.32,223.25Zm-8.23,6.67,1-.58s0-.07,0-.1l-1.16-.67a.22.22,0,0,0-.16,0l-1,.58s0,.07,0,.09l1.16.67A.18.18,0,0,0,336.09,229.92Zm6.49-3.84a.22.22,0,0,0,.16,0l1-.58c.05,0,0-.07,0-.09l-1.16-.67a.18.18,0,0,0-.16,0l-1,.58s0,.07,0,.1Zm-13.83,8.07,1-.58s0-.06,0-.09l-1.16-.67a.15.15,0,0,0-.16,0l-1,.58c-.05,0,0,.06,0,.09l1.16.67A.15.15,0,0,0,328.75,234.15Zm1.47-.84,1-.58s0-.07,0-.1l-1.16-.67a.22.22,0,0,0-.16,0l-1,.58s0,.07,0,.09l1.16.67A.18.18,0,0,0,330.22,233.31ZM327.29,235l1-.58s0-.06,0-.09l-1.16-.67a.15.15,0,0,0-.16,0l-1,.58s0,.06,0,.09l1.17.67A.18.18,0,0,0,327.29,235Zm5.87-3.39,1-.58s0-.06,0-.09l-1.16-.67a.18.18,0,0,0-.16,0l-1,.58s0,.07,0,.1l1.16.67A.18.18,0,0,0,333.16,231.61Zm-1.47.85,1-.58c.05,0,0-.07,0-.09l-1.16-.67a.18.18,0,0,0-.16,0l-1,.58s0,.07,0,.09l1.16.68A.22.22,0,0,0,331.69,232.46Zm2.94-1.7,1-.58s0-.06,0-.09l-1.16-.67a.15.15,0,0,0-.16,0l-1,.58s0,.06,0,.09l1.17.67A.15.15,0,0,0,334.63,230.76Zm6.71-12.53a.22.22,0,0,0,.16,0l1-.58s0-.07,0-.09l-.31-.18a.18.18,0,0,0-.16,0l-1,.58s0,.07,0,.1Zm-7.22,4.66a.18.18,0,0,0,.16,0l1-.58c.05,0,0-.06,0-.09l-1.16-.67a.18.18,0,0,0-.16,0l-1,.58s0,.07,0,.1Zm2.94-1.7a.18.18,0,0,0,.16,0l1-.58s0-.07,0-.1l-1.16-.67a.22.22,0,0,0-.16,0l-1,.58a0,0,0,0,0,0,.09Zm-4.73,2.73a.18.18,0,0,0,.16,0l1-.58a.06.06,0,0,0,0-.1l-1.17-.67a.22.22,0,0,0-.16,0l-1,.58s0,.07,0,.09Zm3.26-1.88a.15.15,0,0,0,.16,0l1-.58s0-.06,0-.09l-1.17-.67a.15.15,0,0,0-.16,0l-1,.58s0,.06,0,.09Zm-6.2,3.58a.18.18,0,0,0,.16,0l1-.58s0-.06,0-.09l-1.16-.67a.18.18,0,0,0-.16,0l-1,.58s0,.07,0,.1Zm1.47-.85a.15.15,0,0,0,.16,0l1-.58c.05,0,0-.06,0-.09l-1.16-.67a.15.15,0,0,0-.16,0l-1,.58s0,.06,0,.09Zm7.55-4.85a.15.15,0,0,0,.16,0l1-.58s0-.06,0-.09l-.31-.18a.22.22,0,0,0-.16,0l-1,.58s0,.07,0,.09Zm4.4-2.54a.18.18,0,0,0,.16,0l1-.58s0-.06,0-.09l-.31-.18a.15.15,0,0,0-.16,0l-1,.58c-.05,0,0,.06,0,.09Zm2.44,1.41a.22.22,0,0,0,.16,0l1-.58s0-.07,0-.09l-1.16-.67a.18.18,0,0,0-.16,0l-1,.58s0,.07,0,.1Zm3.67,3.72,1-.58c.05,0,0-.06,0-.09l-1.16-.67a.18.18,0,0,0-.16,0l-1,.58s0,.07,0,.1l1.16.67A.18.18,0,0,0,348.92,222.51Zm-9.05-3.44a.18.18,0,0,0,.16,0l1-.58s0-.07,0-.1l-.31-.17a.18.18,0,0,0-.16,0l-1,.58s0,.07,0,.09Zm-11.95,7.4a.22.22,0,0,0,.16,0l1-.58s0-.07,0-.09l-1.16-.67a.18.18,0,0,0-.16,0l-1,.58c-.05,0,0,.07,0,.09Z"/></g><g id="Computer"><path class="cls-6" d="M327.21,217.36l-12,6.94-.06,0-4.53-2.62a2.46,2.46,0,0,1-1.11-2.42l1.7-8.8,10-8.09,2,1.16-1.69,8.8a2.45,2.45,0,0,0,1.1,2.42Z"/><path class="cls-5" d="M315.21,224.3v2.3L308.94,223a3.69,3.69,0,0,1-1.67-3.65l1.93-10.06,2,1.15-1.7,8.8a2.46,2.46,0,0,0,1.11,2.42l4.53,2.62Z"/><polygon class="cls-4" points="327.21 217.36 315.21 224.3 315.21 226.61 327.21 219.67 327.21 217.36"/><path class="cls-6" d="M338.23,159a2.3,2.3,0,0,1,1,1.81v36.84a2.35,2.35,0,0,1-1.07,1.84L292.25,226a2,2,0,0,1-3.07-1.77V187.39a2.36,2.36,0,0,1,1.07-1.85L336.16,159A2.29,2.29,0,0,1,338.23,159Z"/><path class="cls-5" d="M292.25,226a2,2,0,0,1-3.07-1.77V187.39a2.26,2.26,0,0,1,.31-1.06L325.22,207Z"/><path class="cls-4" d="M339.23,197.64V160.8c0-.68-.48-1-1.07-.62l-45.91,26.51a2.36,2.36,0,0,0-1.07,1.85v36.84c0,.68.48,1,1.07.61l45.91-26.51A2.35,2.35,0,0,0,339.23,197.64Z"/><path class="cls-11" d="M336.62,162.24,293,187.39a1.89,1.89,0,0,0-.86,1.48v32.71c0,.54.39.76.86.49l43.58-25.15a1.89,1.89,0,0,0,.85-1.48V162.73C337.47,162.19,337.09,162,336.62,162.24Z"/></g></g><g id="Box"><path class="cls-5" d="M275.69,281.55l-25.85-14.91a2.88,2.88,0,0,1-1.3-2.25V248.63a2.86,2.86,0,0,1,1.3-2.25l17.72-10.23a2.88,2.88,0,0,1,2.59,0L296,251.07a2.86,2.86,0,0,1,1.3,2.25v15.76a2.87,2.87,0,0,1-1.3,2.25l-17.7,10.22A2.84,2.84,0,0,1,275.69,281.55Z"/><path class="cls-6" d="M278.28,262.79,296,252.57c.72-.42.72-1.09,0-1.5l-25.83-14.92a2.88,2.88,0,0,0-2.59,0l-17.72,10.23c-.72.41-.72,1.08,0,1.5l25.84,14.91A2.84,2.84,0,0,0,278.28,262.79Z"/><path class="cls-4" d="M277,263.1v18.76a2.74,2.74,0,0,1-1.3-.31l-25.84-14.91a2.87,2.87,0,0,1-1.3-2.25V248.62a2.91,2.91,0,0,1,1-2c-.36.41-.26.91.32,1.24l25.85,14.92A2.71,2.71,0,0,0,277,263.1Z"/><path class="cls-4" d="M256.31,247.33a1.88,1.88,0,0,1,1.71,0l18.58,10.72c.47.28.49.72,0,1a1.85,1.85,0,0,1-1.7,0l-18.58-10.72C255.86,248.05,255.85,247.6,256.31,247.33Z"/><path class="cls-7" d="M256.31,247.33a1.88,1.88,0,0,1,1.71,0l11.31,6.53-1.68,1-11.31-6.53C255.86,248.05,255.85,247.6,256.31,247.33Z"/><path class="cls-4" d="M259.53,245.47a1.88,1.88,0,0,1,1.71,0l18.58,10.72c.48.28.49.72,0,1a1.85,1.85,0,0,1-1.7,0l-18.58-10.72C259.08,246.19,259.07,245.74,259.53,245.47Z"/><path class="cls-7" d="M259.53,245.47a1.91,1.91,0,0,1,1.71,0l1.52.88-1.68,1-1.52-.88C259.08,246.19,259.07,245.74,259.53,245.47Z"/><path class="cls-4" d="M262.76,243.61a1.85,1.85,0,0,1,1.7,0L283,254.34c.48.28.49.72,0,1a1.88,1.88,0,0,1-1.71,0l-18.58-10.72C262.3,244.33,262.29,243.88,262.76,243.61Z"/><path class="cls-7" d="M262.76,243.61a1.85,1.85,0,0,1,1.7,0l6.57,3.79-1.68,1-6.57-3.79C262.3,244.33,262.29,243.88,262.76,243.61Z"/><path class="cls-4" d="M266,241.75a1.88,1.88,0,0,1,1.71,0l18.57,10.72c.48.28.49.72,0,1a1.88,1.88,0,0,1-1.71,0L266,242.74A.53.53,0,0,1,266,241.75Z"/><path class="cls-7" d="M266,241.75a1.88,1.88,0,0,1,1.71,0l13.3,7.68-1.68,1L266,242.74C265.53,242.47,265.52,242,266,241.75Z"/><path class="cls-4" d="M269.2,239.89a1.91,1.91,0,0,1,1.71,0l18.58,10.73c.47.28.49.72,0,1a1.88,1.88,0,0,1-1.71,0l-18.57-10.73C268.75,240.61,268.74,240.16,269.2,239.89Z"/><path class="cls-7" d="M269.2,239.89a1.91,1.91,0,0,1,1.71,0l16.73,9.66-1.68,1-16.73-9.66C268.75,240.61,268.74,240.16,269.2,239.89Z"/><path class="cls-4" d="M279,276.42v-3.19a2.62,2.62,0,0,1,1-2.09c.56-.32,1,.09,1,.92v3.19a2.61,2.61,0,0,1-1,2.09C279.47,277.66,279,277.25,279,276.42Z"/><path class="cls-7" d="M280.08,271.62a1.49,1.49,0,0,0-.68,1.17c0,.43.3.6.68.39a1.5,1.5,0,0,0,.67-1.17C280.75,271.58,280.45,271.41,280.08,271.62Z"/><path class="cls-4" d="M282.22,274.58v-3.19a2.61,2.61,0,0,1,1-2.09c.56-.32,1,.09,1,.92v3.19a2.62,2.62,0,0,1-1,2.09C282.67,275.82,282.22,275.41,282.22,274.58Z"/><path class="cls-7" d="M283.23,273.46a1.5,1.5,0,0,0-.67,1.17c0,.43.3.6.67.39a1.51,1.51,0,0,0,.68-1.17C283.91,273.42,283.6,273.25,283.23,273.46Z"/></g></g><g id="Legs"><path class="cls-5" d="M342.08,314c.38.5.45,1.67.84,3.25a7.37,7.37,0,0,1,.26,3.57,7.17,7.17,0,0,1-4,3.15c-2.08.64-4.64.1-7.11-1.38s-4.35-3.28-7.87-4.28-5.29-1.82-7-3.16c-1.95-1.57-3.21-3.92.52-4.92s10.53.55,17.92.88Z"/><path class="cls-12" d="M342.08,309.42V315s-.76,1.84-3.92,2a4.77,4.77,0,0,1-4.19-2v-5.49Z"/><path class="cls-4" d="M331.5,273.17c0,6.89,1.94,38.67,1.94,38.67s2.82,3.57,8.94,0l2.08-35.26Z"/><path class="cls-5" d="M325.46,324.87c.38.51.44,1.67.83,3.25a4.64,4.64,0,0,1-3.77,6.72c-2.08.64-4.64.1-7.11-1.37s-4.35-3.28-7.87-4.29-5.29-1.81-7-3.15c-1.95-1.57-3.21-3.92.52-4.93s10.53.56,17.92.88Z"/><path class="cls-12" d="M325.46,320.25v5.54s-.77,1.84-3.92,2a4.79,4.79,0,0,1-4.2-2v-5.49Z"/><path class="cls-4" d="M314.87,284c0,6.9,1.94,38.68,1.94,38.68s2.82,3.56,8.94,0l2.08-35.27Z"/></g><g id="Chair"><path class="cls-6" d="M336.3,349.41a3.79,3.79,0,0,0,.09.78,1.78,1.78,0,0,0,.69,1.08h0a2,2,0,0,0,2.14-.16,6.53,6.53,0,0,0,3-5.12,2.12,2.12,0,0,0-.83-1.87h0l-.14-.08h0A1.82,1.82,0,0,0,340,344a3.25,3.25,0,0,0-.73.32A6.5,6.5,0,0,0,336.3,349.41Z"/><path class="cls-5" d="M337.11,343.07a2.63,2.63,0,0,1,1.31-.4,1.54,1.54,0,0,1,.83.23l.08,0,1.9,1.1A1.82,1.82,0,0,0,340,344a3.25,3.25,0,0,0-.73.32,6.5,6.5,0,0,0-2.95,5.1,3.79,3.79,0,0,0,.09.78,1.78,1.78,0,0,0,.69,1.08l-1.95-1.13,0,0-.17-.1-.05,0a2.19,2.19,0,0,1-.72-1.82A6.5,6.5,0,0,1,337.11,343.07Z"/><path class="cls-6" d="M368.24,332.24a3.64,3.64,0,0,0,.08.77,1.81,1.81,0,0,0,.7,1.08l0,0a2,2,0,0,0,2.14-.17,6.52,6.52,0,0,0,3-5.11,2.08,2.08,0,0,0-.84-1.87h0l-.14-.09h0a1.88,1.88,0,0,0-1.25-.05,3.53,3.53,0,0,0-.73.32A6.52,6.52,0,0,0,368.24,332.24Z"/><path class="cls-5" d="M369.05,325.89a2.73,2.73,0,0,1,1.31-.4,1.55,1.55,0,0,1,.83.24l.08,0,1.9,1.09a1.88,1.88,0,0,0-1.25-.05,3.53,3.53,0,0,0-.73.32,6.52,6.52,0,0,0-2.95,5.11,3.64,3.64,0,0,0,.08.77,1.81,1.81,0,0,0,.7,1.08L367.07,333l0,0-.17-.1s0,0-.05,0a2.16,2.16,0,0,1-.72-1.81A6.52,6.52,0,0,1,369.05,325.89Z"/><path class="cls-6" d="M362.54,356.12a3.64,3.64,0,0,1-.08.77,1.76,1.76,0,0,1-.7,1.08l0,0a2.05,2.05,0,0,1-2.15-.17,6.5,6.5,0,0,1-2.95-5.11,2.07,2.07,0,0,1,.83-1.87h0l.14-.08h0a1.79,1.79,0,0,1,1.26-.05,3.13,3.13,0,0,1,.72.31A6.52,6.52,0,0,1,362.54,356.12Z"/><path class="cls-5" d="M361.74,349.77a2.8,2.8,0,0,0-1.32-.4,1.58,1.58,0,0,0-.83.24l-.07,0-1.91,1.1a1.79,1.79,0,0,1,1.26-.05,3.13,3.13,0,0,1,.72.31,6.52,6.52,0,0,1,3,5.11,3.64,3.64,0,0,1-.08.77,1.76,1.76,0,0,1-.7,1.08l2-1.13,0,0,.17-.1.05,0a2.16,2.16,0,0,0,.72-1.81A6.52,6.52,0,0,0,361.74,349.77Z"/><path class="cls-6" d="M383.28,346a3.71,3.71,0,0,1-.09.78,1.75,1.75,0,0,1-.7,1.08h0a2,2,0,0,1-2.15-.16,6.52,6.52,0,0,1-2.95-5.12,2.12,2.12,0,0,1,.83-1.87h0l.15-.08h0a1.85,1.85,0,0,1,1.26,0,3.19,3.19,0,0,1,.72.32A6.51,6.51,0,0,1,383.28,346Z"/><path class="cls-5" d="M382.47,339.62a2.69,2.69,0,0,0-1.31-.4,1.58,1.58,0,0,0-.84.23l-.07,0-1.91,1.1a1.85,1.85,0,0,1,1.26,0,3.19,3.19,0,0,1,.72.32,6.51,6.51,0,0,1,3,5.1,3.71,3.71,0,0,1-.09.78,1.75,1.75,0,0,1-.7,1.08l2-1.13,0,0,.17-.1.05,0a2.19,2.19,0,0,0,.72-1.82A6.5,6.5,0,0,0,382.47,339.62Z"/><path class="cls-6" d="M343.2,333.51a3.64,3.64,0,0,1-.08.77,1.81,1.81,0,0,1-.7,1.08l0,0a2,2,0,0,1-2.14-.17,6.52,6.52,0,0,1-2.95-5.11,2.07,2.07,0,0,1,.83-1.87h0l.14-.09h0a1.88,1.88,0,0,1,1.25-.05,3.53,3.53,0,0,1,.73.32A6.52,6.52,0,0,1,343.2,333.51Z"/><path class="cls-5" d="M342.39,327.16a2.73,2.73,0,0,0-1.31-.4,1.64,1.64,0,0,0-.83.23l-.08.05-1.9,1.09a1.88,1.88,0,0,1,1.25-.05,3.53,3.53,0,0,1,.73.32,6.52,6.52,0,0,1,2.95,5.11,3.64,3.64,0,0,1-.08.77,1.81,1.81,0,0,1-.7,1.08l1.95-1.13,0,0,.16-.1a.05.05,0,0,0,.05,0,2.16,2.16,0,0,0,.73-1.81A6.53,6.53,0,0,0,342.39,327.16Z"/><polygon class="cls-9" points="360.82 327.27 371.37 324.25 371.37 326.5 360.82 332.58 360.82 327.27"/><polygon class="cls-8" points="360.82 327.27 359.79 326.63 370.36 323.74 371.37 324.25 360.82 327.27"/><polygon class="cls-9" points="356.26 333.99 341.32 328.39 341.32 326.11 356.26 327.44 356.26 333.99"/><polygon class="cls-8" points="341.32 326.11 342.42 325.82 357.15 326.77 356.26 327.44 341.32 326.11"/><path class="cls-8" d="M355.86,333.26c0,1.7,5.2,1.7,5.2,0V318.49h-5.2Z"/><path class="cls-8" d="M359.76,329.42,362.62,348h-2L358,329.42A3.22,3.22,0,0,0,359.76,329.42Z"/><polygon class="cls-9" points="357.99 329.42 357.99 334.51 360.67 351.12 360.67 347.98 357.99 329.42"/><rect class="cls-10" x="360.66" y="347.98" width="1.95" height="3.14"/><polygon class="cls-9" points="357.1 334.36 337.83 344.47 337.83 341.36 357.1 329.43 357.1 334.36"/><path class="cls-8" d="M357.1,329.43a2.14,2.14,0,0,1-1.24-.56l-19.23,11.67,1.2.81Z"/><polygon class="cls-10" points="337.83 344.47 337.83 341.36 336.63 340.54 336.63 343.56 337.83 344.47"/><polygon class="cls-9" points="381.4 340.9 360.81 333.85 360.81 329.23 381.4 337.79 381.4 340.9"/><path class="cls-8" d="M360.81,329.22c.17,0,.24-.34.25-.79L382,337.54l-.61.25Z"/><polygon class="cls-10" points="382 337.54 382 340.55 381.4 340.9 381.4 337.79 382 337.54"/><path class="cls-1" d="M362.87,292.74h-8.81v30.48c0,2.53,8.8,2.53,8.8,0Z"/><path class="cls-7" d="M324.57,295.48h0a4.41,4.41,0,0,1,2.2-3.81l30.79-17.77a4.38,4.38,0,0,1,4.4,0l30.79,17.78a4.39,4.39,0,0,1,2.2,3.81h0l-35.19,20.31Z"/><path class="cls-8" d="M324.57,295.47V298l33,19.06a4.36,4.36,0,0,0,2.17.58,4.32,4.32,0,0,0,2.18-.58L395,298v-2.55l-33,19.07a4.33,4.33,0,0,1-2.18.59,4.37,4.37,0,0,1-2.17-.59Z"/><path class="cls-9" d="M324.57,295.47V298l33,19.06a4.36,4.36,0,0,0,2.17.58v-2.53a4.37,4.37,0,0,1-2.17-.59Z"/><path class="cls-13" d="M324.57,295.47a4.39,4.39,0,0,1,.47-2l33.27,19.21a2.87,2.87,0,0,0,2.89,0l33.28-19.2a4.36,4.36,0,0,1,.47,2l-35.19,20.31-35.19-20.31Z"/></g><g id="Character-2" data-name="Character"><path class="cls-5" d="M384.3,281.61s-28.57-8.62-33.53-10-14.5-3.65-17.28-2.4-4.2,2.69-4.45,6.71c-.05.76,0,4.43,0,4.43s13.81,4.27,25.12,4.27S384.3,281.61,384.3,281.61Z"/><polygon class="cls-12" points="359.88 233.06 361.78 243.31 372.28 244.52 370.77 230.38 359.88 233.06"/><path class="cls-14" d="M350.08,224.89s-1.38,4.22-1,4.48a7.41,7.41,0,0,0,2.3.13Z"/><path class="cls-12" d="M352.79,211.34c-1.81,1.91-3.53,5.09-2.77,13.16.83,8.85,3.47,11.21,4.58,11.72,1.67.78,7.33-.58,9.17-1.93,2.31-1.7,6.64-5.93,7.78-11.14,1.33-6.13-.38-13.09-4.85-14.5C360.39,206.67,354.32,209.73,352.79,211.34Z"/><path class="cls-5" d="M348.66,215.7c1.07,2,3.1,7.06,8.85,8.49,0,0,.32-3.44,3.16-3.47s3.82,3.47,2.4,5.92-3.19,1.88-3.19,1.88.29,4.83,3.77,6.55a9,9,0,0,0,8-.53c1.71-1.1,3.7-5.84,4.72-9.65,2.17-8.07,1.78-14.24-3.35-15.5-1.08-3.38-2.81-4.46-6-4.68-6.94-.46-11.43,4.68-17.2,4.68C346.77,209.39,347.43,213.38,348.66,215.7Z"/><path class="cls-5" d="M372.9,210l3.47-1.49A1.89,1.89,0,1,0,372.9,210Z"/><path class="cls-4" d="M384.23,278.18c0,5.49.51,11.2-1.77,15.22s-12.66,12.29-24.33,10.33c-7.63-1.28-32.27-10.68-32.27-10.68s-10.91-4-11-6.9c0-.7-.07-1.43,0-2.19.23-3.82,1.78-7.93,9.76-7.72,8.72.23,34.59,4.47,34.59,4.47Z"/><path class="cls-6" d="M382.2,242.71c-.94-2.87-4.58-6-8.22-5.31-6.68,1.24-14,3.4-15.93,4h0s.87,14.73-6.68,19.19l-1,18.75a16.08,16.08,0,0,0,4.76,5.58c3.12,2,7.46,5,15.31,4.31a19.34,19.34,0,0,0,13.87-7.6s-.09-17.72-.39-25.66C383.66,249.21,382.85,244.68,382.2,242.71Z"/><path class="cls-4" d="M351.16,264.2a25.08,25.08,0,0,0,5.34-8.85s0,7-5.42,10.71Z"/><path class="cls-12" d="M358,241.38c-4.12,1.23-6.64,1.46-11.19,8.47s-14.55,20.93-15.54,22.6c-1.37,2.32-2,5.09-.78,7.23s4.34,1.12,8.86-2.85,13-14.69,13-14.69A74.79,74.79,0,0,0,358,241.38Z"/><path class="cls-6" d="M358,241.38a31.4,31.4,0,0,0-6,1.89,9.47,9.47,0,0,0-4.51,3.7c-3.19,5.3-7.75,12.84-7.75,12.84s-.78,6.57,7.2,8.86l4.24-4.58a23.53,23.53,0,0,0,4.23-6.3C357.29,253.84,359.34,247.57,358,241.38Z"/><path class="cls-12" d="M331.92,280.66c-3.82-.46-12.37-12.18-15.22-15.91s-5.24-5.94-7.81-7.35a10.29,10.29,0,0,1-5.5-8.13c-.65-4.18,3.24-6.84,6.43-2.64,2,2.67,4.06,4.36,4.17,3.91s-.63-2.3-.61-4.24c0-2.33,1.65-.8,2.14,0a29.13,29.13,0,0,1,1.72,3.85c.81,2.08.48,4.19,1.47,5.61S333,270,333,270Z"/></g><polygon class="cls-7" points="396.66 244.66 396.66 283.99 365.44 302.09 365.44 262.78 396.66 244.66"/><polygon class="cls-13" points="396.66 244.66 396.66 283.99 365.44 302.09 365.44 262.78 396.66 244.66"/><path class="cls-7" d="M362.6,300.45l2.84,1.64V266c0-1.71.51-2.56,1.2-2.94,2.38-1.46,5.52,1.65,5.52,1.65v-2.62l30.17-17.47c-2.84-1.64-4.7-2.71-10.43.54s-22.53,13-25.19,14.6c-2.13,1.32-4.12,2.85-4.12,6.42Z"/><path class="cls-15" d="M366.72,259.8c2.62-1.7,19.46-11.35,25.19-14.6s7.59-2.18,10.43-.54l-30.17,17.47A7.55,7.55,0,0,0,366.72,259.8Z"/><polygon class="cls-7" points="372.17 264.75 402.34 247.22 402.34 244.66 372.17 262.13 372.17 264.75"/><polygon class="cls-16" points="372.17 264.75 402.34 247.22 402.34 244.66 372.17 262.13 372.17 264.75"/><path class="cls-17" d="M372.62,314.6a2.65,2.65,0,0,0,1.36-.37,2.69,2.69,0,0,0,1.37-2.36V291.23a1.4,1.4,0,0,0-2.8,0v20.53l-2.22-1.29a1.4,1.4,0,0,0-1.4,2.42l2.32,1.34A2.71,2.71,0,0,0,372.62,314.6Z"/><path class="cls-17" d="M389.69,304.65a2.73,2.73,0,0,0,2.73-2.73V281.29a1.4,1.4,0,1,0-2.79,0v20.52l-2.23-1.29A1.4,1.4,0,1,0,386,303l2.31,1.33A2.71,2.71,0,0,0,389.69,304.65Z"/></g></g></svg>