<svg xmlns="http://www.w3.org/2000/svg" viewBox="0 0 82.66 82.66"><defs><style>.cls-1{fill:#fff;}</style></defs><title>linux</title><g id="Capa_2" data-name="Capa 2"><g id="Capa_1-2" data-name="Capa 1"><path class="cls-1" d="M81.16,68.47a7,7,0,0,0-4.42-3c.81-2.15,1.77-5.55-1-8.32a6,6,0,0,0-4.26-1.84c3.27-12.66-5.87-19.78-6.54-34.42C64.32,7.61,54.54,0,41.33,0s-23,7.61-23.6,20.92c-.68,14.62-9.81,21.78-6.54,34.42a6,6,0,0,0-4.27,1.84c-2.77,2.77-1.81,6.17-1,8.32a7,7,0,0,0-4.42,3,8,8,0,0,0-.83,7.8,5.85,5.85,0,0,0,5.16,3.22,40.63,40.63,0,0,1,9.62,1.86,25.09,25.09,0,0,0,6.74,1.31,9.25,9.25,0,0,0,6-2.13,38.17,38.17,0,0,0,13.14,2.13,38.17,38.17,0,0,0,13.14-2.13,9.25,9.25,0,0,0,6,2.13,25,25,0,0,0,6.74-1.31,40.74,40.74,0,0,1,9.62-1.86A5.83,5.83,0,0,0,82,76.27,7.94,7.94,0,0,0,81.16,68.47ZM22.56,21.14c.5-10.78,8.28-16.3,18.77-16.3S59.6,10.32,60.1,21.14c.72,15.61,9.53,22.44,6.65,33.15a8.16,8.16,0,0,0-7.35-4c-1.08-6.42-5-8.47-5.4-14.53.5-.39,1-.79,1.65-1.21a4.85,4.85,0,0,0-.78-8.36c2.55-6.42-1-14.21-6.93-14.21-2.83,0-5.26,1.83-6.61,4.62C40,13.78,37.55,12,34.72,12c-5.95,0-9.46,7.84-6.92,14.21A4.84,4.84,0,0,0,27,34.52c.59.42,1.14.82,1.65,1.21-.42,6.06-4.33,8.11-5.41,14.53a8.16,8.16,0,0,0-7.35,4C13,43.58,21.85,36.76,22.56,21.14Zm18.77,8a48.94,48.94,0,0,1,11.52,1.46c-8,5.68-7.19,8.35-11.52,8.35s-3.49-2.67-11.52-8.35A49.07,49.07,0,0,1,41.33,29.1Zm-9.52-7.37c0-2.83,1.54-4.94,2.91-4.94s2.9,2.11,2.9,4.94a7.15,7.15,0,0,1-.51,2.71c-1.45.13-3.19.36-4.5.59A6.8,6.8,0,0,1,31.81,21.73Zm13.23,0c0-2.83,1.53-4.94,2.9-4.94s2.91,2.11,2.91,4.94a6.91,6.91,0,0,1-.79,3.3c-1.32-.23-3-.46-4.51-.59A7.15,7.15,0,0,1,45,21.73ZM25.87,76.12c-2.36,2.36-4.18,2-9.08.58a44.59,44.59,0,0,0-10.73-2c-.8,0-1-.37-1-.53-.6-1.22.39-4.09,2.4-3.89,2.85.28,5-1.45,3.26-5.88-1.49-3.82-.74-5.07,3.44-3.43,4.5,1.76,6.15-.51,5.87-3.27-.2-2,2.84-3.12,4.08-2.27a1.19,1.19,0,0,1,.34.92C24.93,67.34,30.15,71.83,25.87,76.12Zm27.55-20c-.44,9.13-5.11,14.58-2.25,20.46a35.74,35.74,0,0,1-9.84,1.28,35.74,35.74,0,0,1-9.84-1.28c2.86-5.88-1.81-11.34-2.25-20.46a6.13,6.13,0,0,0-1.36-3.68c.35-5.32,3.56-7.38,5-12.76,2,2.07,4.07,4.11,8.43,4.11s6.48-2,8.43-4.11c1.46,5.36,4.67,7.45,5,12.76A6.19,6.19,0,0,0,53.42,56.08Zm24.23,18c-.08.16-.24.49-1.05.53a44.59,44.59,0,0,0-10.73,2c-4.9,1.41-6.72,1.78-9.08-.58-4.29-4.29.94-8.77,1.47-19.81,0-.81.37-1.22,1.41-1.22,1.37,0,3.17,1,3,2.57-.29,2.87,1.46,5,5.87,3.27,3.82-1.5,5.08-.74,3.44,3.43-1.77,4.51.5,6.15,3.27,5.88C77.27,70,78.25,72.91,77.65,74.13Z"/></g></g></svg>