<?xml version="1.0" encoding="iso-8859-1"?>
<!-- Generator: Adobe Illustrator 17.1.0, SVG Export Plug-In . SVG Version: 6.00 Build 0)  -->
<!DOCTYPE svg PUBLIC "-//W3C//DTD SVG 1.1//EN" "http://www.w3.org/Graphics/SVG/1.1/DTD/svg11.dtd">
<svg version="1.1" id="Capa_1" xmlns="http://www.w3.org/2000/svg" xmlns:xlink="http://www.w3.org/1999/xlink" x="0px" y="0px"
	 viewBox="0 0 203.613 203.613" style="enable-background:new 0 0 203.613 203.613;" xml:space="preserve">
<path d="M59.316,32.273v139.066c0,16.279-12.65,29.523-28.2,29.523h-2.915C12.651,200.863,0,187.619,0,171.339V32.273
	C0,15.995,12.651,2.75,28.201,2.75h2.915C46.666,2.75,59.316,15.995,59.316,32.273z M203.613,41.203v119.467
	c0,12.789-10.405,23.194-23.195,23.194H74.415c-2.762,0-5-2.238-5-5V24.749c0-2.762,2.238-5,5-5h107.743
	C193.988,19.749,203.613,29.373,203.613,41.203z M110.59,150.696c0-3.531-2.862-6.393-6.393-6.393c-3.531,0-6.393,2.862-6.393,6.393
	s2.862,6.393,6.393,6.393C107.728,157.089,110.59,154.227,110.59,150.696z M110.59,121.954c0-3.531-2.862-6.393-6.393-6.393
	c-3.531,0-6.393,2.862-6.393,6.393c0,3.531,2.862,6.393,6.393,6.393C107.728,128.347,110.59,125.485,110.59,121.954z M110.59,93.212
	c0-3.531-2.862-6.393-6.393-6.393c-3.531,0-6.393,2.862-6.393,6.393c0,3.531,2.862,6.393,6.393,6.393
	C107.728,99.605,110.59,96.743,110.59,93.212z M142.968,150.696c0-3.531-2.862-6.393-6.393-6.393c-3.531,0-6.393,2.862-6.393,6.393
	s2.862,6.393,6.393,6.393C140.106,157.089,142.968,154.227,142.968,150.696z M142.968,121.954c0-3.531-2.862-6.393-6.393-6.393
	c-3.531,0-6.393,2.862-6.393,6.393c0,3.531,2.862,6.393,6.393,6.393C140.106,128.347,142.968,125.485,142.968,121.954z
	 M142.968,93.212c0-3.531-2.862-6.393-6.393-6.393c-3.531,0-6.393,2.862-6.393,6.393c0,3.531,2.862,6.393,6.393,6.393
	C140.106,99.605,142.968,96.743,142.968,93.212z M175.346,150.696c0-3.531-2.862-6.393-6.393-6.393
	c-3.531,0-6.393,2.862-6.393,6.393s2.862,6.393,6.393,6.393C172.484,157.089,175.346,154.227,175.346,150.696z M175.346,121.954
	c0-3.531-2.862-6.393-6.393-6.393c-3.531,0-6.393,2.862-6.393,6.393c0,3.531,2.862,6.393,6.393,6.393
	C172.484,128.347,175.346,125.485,175.346,121.954z M175.346,93.212c0-3.531-2.862-6.393-6.393-6.393
	c-3.531,0-6.393,2.862-6.393,6.393c0,3.531,2.862,6.393,6.393,6.393C172.484,99.605,175.346,96.743,175.346,93.212z M187.017,47.521
	c0-5.812-4.729-10.54-10.54-10.54H91.011c-2.762,0-5,2.238-5,5v19.097c0,2.762,2.238,5,5,5h91.006c2.762,0,5-2.238,5-5V47.521z"/>
<g>
</g>
<g>
</g>
<g>
</g>
<g>
</g>
<g>
</g>
<g>
</g>
<g>
</g>
<g>
</g>
<g>
</g>
<g>
</g>
<g>
</g>
<g>
</g>
<g>
</g>
<g>
</g>
<g>
</g>
</svg>
