<svg xmlns="http://www.w3.org/2000/svg" viewBox="0 0 82.66 83"><defs><style>.cls-1{fill:#fff;}</style></defs><title>reds</title><g id="Capa_2" data-name="Capa 2"><g id="Capa_1-2" data-name="Capa 1"><path class="cls-1" d="M29.33,41v-.55a1.45,1.45,0,0,1,1.28-1.51,3.49,3.49,0,0,1,.65,0H42.15c3.09,0,6.18,0,9.28,0a2.76,2.76,0,0,1,1.06.19,1.3,1.3,0,0,1,.84,1.29c0,.2,0,.39,0,.63h4V30.12h6V29.06c0-.69.17-.86.85-.86h8.08V27.1l-.53,0H64.4c-.87,0-1.17-.29-1.17-1.17,0-3.16,0-6.33,0-9.49,0-.83.32-1.13,1.15-1.13,2.39,0,4.77,0,7.16,0l9.94,0c.85,0,1.17.32,1.17,1.17v9.4c0,.93-.29,1.22-1.22,1.22H73.55v1.14h8c.77,0,.91.14.91.89v2.64c0,.74-.13.87-.87.87H64.19c-.61,0-.76-.16-.78-.77v-.72h-5l0,34.07h5v-.82c0-.93.11-1,1-1h7.92V62.2h-8c-.83,0-1.14-.3-1.14-1.14q0-4.73,0-9.45c0-.93.29-1.21,1.23-1.21H81.36c1,0,1.28.28,1.28,1.3V61c0,1-.29,1.25-1.25,1.25H73.52v1.13h8c.79,0,.92.13.92.92V67c0,.56-.18.74-.75.74H64.19c-.64,0-.79-.17-.8-.8v-.74h-6V42h-4c0,.19,0,.35,0,.52a1.51,1.51,0,0,1-1.49,1.58h-.4l-20.24,0a2.66,2.66,0,0,1-1-.18,1.29,1.29,0,0,1-.86-1.28V42h-4V66.15H19.22c0,.33,0,.62,0,.91a.58.58,0,0,1-.64.65H1.28a4.87,4.87,0,0,1-.54,0,.55.55,0,0,1-.55-.59V63.91c0-.51.36-.62.78-.62H9.11V62.17H1.23C.29,62.16,0,61.88,0,61q0-4.71,0-9.4c0-.89.3-1.19,1.19-1.19H18.26c.86,0,1.17.3,1.16,1.17,0,2.41,0,4.83,0,7.25,0,.76,0,1.52,0,2.28s-.33,1.09-1.09,1.09h-8V63.3h8c.8,0,.93.13.93.92v.93h5.09l0-34.07h-5.1c0,.28,0,.55,0,.82a.59.59,0,0,1-.67.67H1c-.69,0-.83-.14-.83-.81V29c0-.62.17-.8.8-.8H9.13V27H1.19C.33,27,0,26.72,0,25.87q0-4.73,0-9.45c0-.87.3-1.17,1.16-1.17H18.34c.77,0,1.1.31,1.1,1.08,0,3.21,0,6.42,0,9.63,0,.76-.33,1.07-1.11,1.07h-8v1.13h7.83c1.06,0,1.11,0,1.11,1.13v.75h6V41ZM9.72,15.83H1.27c-.64,0-.67,0-.67.67q0,4.65,0,9.3c0,.62.05.67.64.67h17c.58,0,.64-.07.64-.67q0-4.64,0-9.29c0-.66,0-.69-.72-.69Zm63.2,10.68h8.45c.68,0,.71,0,.71-.69,0-3.1,0-6.19,0-9.29,0-.64,0-.66-.69-.66H64.47c-.63,0-.68.05-.68.68,0,3.1,0,6.19,0,9.29,0,.62.06.67.69.67Zm0,24.47H64.46c-.62,0-.69.06-.69.68v6c0,1.13,0,2.26,0,3.38,0,.44.14.66.6.64s.86,0,1.29,0H81.41c.61,0,.65,0,.65-.65,0-3.12,0-6.23,0-9.35,0-.59,0-.64-.66-.64ZM9.71,61.59h8.5c.46,0,.67-.12.66-.61,0-.86,0-1.72,0-2.58,0-2.27,0-4.54,0-6.81,0-.45-.12-.66-.63-.66q-8.52,0-17,0c-.49,0-.63.18-.63.64,0,3.12,0,6.24,0,9.35,0,.63,0,.67.69.67ZM34.28,42.7c0-.75,0-1.47,0-2.2,0-.08-.15-.23-.23-.23-.73,0-1.45,0-2.18,0V42.7ZM14.7,64.27c-1,0-1.92,0-2.88,0-.33,0-.51,0-.51.45s.15.47.5.46c1.93,0,3.87,0,5.8,0,.36,0,.49-.1.49-.48s-.16-.44-.48-.43C16.65,64.28,15.67,64.27,14.7,64.27Zm63.19,0c-1,0-2,0-3,0-.32,0-.41.13-.4.41s0,.5.37.5h6c.36,0,.38-.18.39-.47s-.08-.45-.42-.44C79.88,64.32,78.89,64.31,77.89,64.3ZM11.38,29.18c-.08.87-.08.87.7.87H17.6c.33,0,.52,0,.52-.46s-.17-.46-.51-.46H11.84Zm66.56.9c1,0,1.92,0,2.88,0,.35,0,.5-.09.49-.47s-.14-.44-.47-.44c-1.94,0-3.87,0-5.81,0-.35,0-.49.08-.5.46s.2.45.53.45ZM47.72,40.59a.78.78,0,1,0-.82.75A.79.79,0,0,0,47.72,40.59Zm2.57.75a.75.75,0,0,0,.76-.8.77.77,0,0,0-1.53.06A.76.76,0,0,0,50.29,41.34ZM65.74,64.79a.61.61,0,0,0-.59-.65.56.56,0,0,0-.61.58.6.6,0,0,0,1.2.07ZM1.87,30.18a.59.59,0,0,0,.67-.52A.59.59,0,0,0,2,29a.6.6,0,0,0-.12,1.2Zm63.89-.57a.59.59,0,0,0-.59-.6.56.56,0,0,0-.61.58.58.58,0,0,0,.6.63A.59.59,0,0,0,65.76,29.61ZM2.54,64.73A.62.62,0,0,0,2,64.1a.61.61,0,0,0-.64.61.58.58,0,0,0,.59.6A.59.59,0,0,0,2.54,64.73Z"/><path class="cls-1" d="M41.92,11.78v1.1l.54,0h7.41c.87,0,1,.11,1,1s0,1.75,0,2.63c0,.65-.16.82-.82.82H41.85V31.18l.58,0h8.75a5.91,5.91,0,0,1,.84,0,1.45,1.45,0,0,1,1.32,1.53v2.09a1.46,1.46,0,0,1-1.49,1.58c-1.41,0-2.82,0-4.23,0H31.22a2.85,2.85,0,0,1-.92-.13,1.36,1.36,0,0,1-1-1.36c0-.75,0-1.49,0-2.24a1.44,1.44,0,0,1,1.17-1.46,4.08,4.08,0,0,1,.79-.06c3,0,6,0,9,0h.57V17.36c-.19,0-.38,0-.57,0h-7.5c-.8,0-.93-.14-.93-.92s0-1.75,0-2.63c0-.72.14-.86.88-.86h8V11.78H32.81c-.88,0-1.17-.28-1.17-1.15,0-3.16,0-6.33,0-9.49,0-.85.29-1.13,1.13-1.13H49.87c.91,0,1.19.28,1.19,1.18,0,3.13,0,6.27,0,9.4,0,.91-.28,1.19-1.18,1.19H41.92Zm-.57-.58h8.46c.64,0,.67,0,.67-.66q0-4.63,0-9.25c0-.69,0-.73-.73-.73H32.87c-.6,0-.67.07-.67.65,0,3.12,0,6.23,0,9.35,0,.59.06.64.66.64Zm5,2.67c-1,0-1.92,0-2.88,0-.37,0-.49.1-.49.48s.16.43.48.43h5.81c.31,0,.49,0,.49-.42s-.11-.5-.48-.49C48.27,13.89,47.29,13.87,46.32,13.87ZM34.24,35.05V32.64H31.85v2.41Zm16.09-2.9a.81.81,0,0,0-.83.74.9.9,0,0,0,.82.84.79.79,0,0,0,.74-.76A.74.74,0,0,0,50.33,32.15Zm-3.4,0a.79.79,0,0,0-.76.76.77.77,0,0,0,.79.77.79.79,0,0,0,.77-.75A.79.79,0,0,0,46.93,32.15Zm-14-17.84a.62.62,0,0,0,.59.62.57.57,0,0,0,.62-.61.55.55,0,0,0-.59-.59C33.19,13.72,33,14,32.94,14.31Z"/><path class="cls-1" d="M40.81,65.68V51.78h-.6c-3,0-6,0-9,0a2.75,2.75,0,0,1-1.06-.21,1.26,1.26,0,0,1-.78-1.22c0-.7,0-1.39,0-2.09A1.57,1.57,0,0,1,31,46.51h.35q10,0,20,0a3.06,3.06,0,0,1,1.19.25A1.24,1.24,0,0,1,53.32,48v2.19a1.49,1.49,0,0,1-1.41,1.56c-.21,0-.43,0-.64,0H41.83v13.9h8c.92,0,1.2.28,1.2,1.18V76.3c0,.87-.3,1.16-1.17,1.16h-8v1.18h1.83l6.31,0c.64,0,.79.15.79.79v2.84c0,.6-.17.76-.78.76H32.54c-.58,0-.74-.17-.75-.74V79.42c0-.67.15-.82.82-.82H40.7V77.45h-8c-.88,0-1.16-.29-1.16-1.17,0-3.15,0-6.3,0-9.45,0-.88.28-1.16,1.16-1.16h8ZM41.3,76.9h8.49c.59,0,.66-.05.66-.65v-4.5c0-1.62,0-3.24,0-4.87,0-.47-.14-.63-.63-.63q-8.52,0-17,0c-.5,0-.63.18-.63.64,0,3.11,0,6.23,0,9.34,0,.61.07.67.69.67Zm-7.06-29h-2.4v2.41h2.4ZM46.44,80.5v0h2.88c.34,0,.36-.19.37-.45s0-.46-.36-.46h-6c-.35,0-.47.16-.46.48s.2.47.55.47C44.43,80.49,45.43,80.5,46.44,80.5Zm.51-33a.77.77,0,1,0,.76.75A.76.76,0,0,0,47,47.46Zm4.1.76a.76.76,0,0,0-.8-.76.74.74,0,0,0-.73.77.77.77,0,1,0,1.53,0ZM34.12,80.06a.62.62,0,0,0-.59-.66.6.6,0,0,0-.61.63.56.56,0,0,0,.61.57A.55.55,0,0,0,34.12,80.06Z"/></g></g></svg>