<svg xmlns="http://www.w3.org/2000/svg" viewBox="0 0 82.66 82.85"><defs><style>.cls-1{fill:#fff;}</style></defs><title>TELEFONICA</title><g id="Capa_2" data-name="Capa 2"><g id="Capa_1-2" data-name="Capa 1"><path class="cls-1" d="M67.14,72.16l-3.09-9.28a9.35,9.35,0,0,0-7.2-6.24L47.92,55v-.69a13.48,13.48,0,0,0,4-3.54h2.7a4,4,0,0,0,4-4v-16a17.38,17.38,0,1,0-34.75,0v9.35a5.35,5.35,0,0,0,4.26,5.23,13.37,13.37,0,0,0,6.43,9V55l-8.93,1.63a9.35,9.35,0,0,0-7.2,6.24l-.53,1.6-4.55-4.55a1.32,1.32,0,0,1,0-1.89l5.27-5.27-9.9-9.91-6,6a9.36,9.36,0,0,0,0,13.23L20.8,80.11a9.36,9.36,0,0,0,13.19,0l6.51-6-2-2ZM55.94,46.77a1.34,1.34,0,0,1-1.34,1.34H53.47a13.32,13.32,0,0,0,.88-2.79,5.08,5.08,0,0,0,1.59-.63ZM54.6,42.39v-4.6a2.64,2.64,0,0,1,0,4.6Zm-26.73,0a2.65,2.65,0,0,1,0-4.6Zm0-9v1.52a5.59,5.59,0,0,0-1.33.56V30.74a14.7,14.7,0,1,1,29.4,0v4.75a5.84,5.84,0,0,0-1.34-.56V33.41H53.26A14.69,14.69,0,0,1,42.8,29.07l-1.56-1.56-1.57,1.56a14.69,14.69,0,0,1-10.46,4.34Zm2.67,9.35V36a17.34,17.34,0,0,0,10.7-4.75A17.29,17.29,0,0,0,51.93,36v6.73a10.68,10.68,0,0,1-1.45,5.35H41.24v2.67h7a10.6,10.6,0,0,1-7,2.67A10.7,10.7,0,0,1,30.54,42.76Zm14.7,12.75v.06l-4,4-4-4v-.06a13.25,13.25,0,0,0,8,0ZM21,63.72a6.69,6.69,0,0,1,5.14-4.46l9.34-1.69,5.8,5.79L47,57.57l9.34,1.69a6.68,6.68,0,0,1,5.14,4.47l1.93,5.76H35.8l-5.21-5.21-5.78,5.24a1.38,1.38,0,0,1-1.89,0L20,66.6ZM8.7,46.64l6.13,6.13-1.45,1.45L7.25,48.09ZM32.14,78.23a6.69,6.69,0,0,1-9.45,0L4.63,60.16a6.68,6.68,0,0,1,0-9.45L5.36,50l6.13,6.13-.05,0a4,4,0,0,0,0,5.67L21,71.41a4,4,0,0,0,2.83,1.17,4,4,0,0,0,2.79-1.12l.1-.09,6.15,6.15Zm2.74-2.52-6.15-6.14L30.5,68l6.13,6.14Z"/><path class="cls-1" d="M78.65,0H59.94a4,4,0,0,0-4,4V14.7a4,4,0,0,0,4,4h3.57l-1.38,8.06L75,18.71h3.62a4,4,0,0,0,4-4V4A4,4,0,0,0,78.65,0ZM80,14.7A1.34,1.34,0,0,1,78.65,16H74.26l-8.49,5.3.91-5.3H59.94a1.34,1.34,0,0,1-1.33-1.34V4a1.34,1.34,0,0,1,1.33-1.34H78.65A1.34,1.34,0,0,1,80,4Z"/><rect class="cls-1" x="61.28" y="5.35" width="16.04" height="2.67"/><rect class="cls-1" x="61.28" y="10.69" width="10.69" height="2.67"/><rect class="cls-1" x="74.64" y="10.69" width="2.67" height="2.67"/><path class="cls-1" d="M41.24,4A37.4,37.4,0,0,0,4.82,32.93L2.29,28.71,0,30.09l4.7,7.82,7.82-4.69-1.37-2.29L7.53,33.1a34.75,34.75,0,0,1,44-24.87l.79-2.55A37.38,37.38,0,0,0,41.24,4Z"/><path class="cls-1" d="M82,29.59l-7.82-4.7-4.7,7.83,2.29,1.38,2.34-3.9a34.76,34.76,0,0,1-5.89,33.1L70.31,65a37.45,37.45,0,0,0,6.4-35.46l3.93,2.35Z"/></g></g></svg>