<svg xmlns="http://www.w3.org/2000/svg" viewBox="0 0 82.66 55.04"><defs><style>.cls-1{fill:#fff;}</style></defs><title>zimba</title><g id="Capa_2" data-name="Capa 2"><g id="Capa_1-2" data-name="Capa 1"><path class="cls-1" d="M79.15,16.09c5,8.39,4.74,16.54-1.17,24.4a1.63,1.63,0,0,0-.37,1.75c.81,2.2,1.54,4.44,2.31,6.66.24.89.5,1.78.71,2.68.57,2.37-1.1,4.12-3.37,3.23-3.46-1.36-6.81-3-10.16-4.65-.74-.35-1.35-.75-2.17-.39-6,2.64-12.23,3.1-18.62,2.79-2-.1-3.92-.32-5.88-.49-.27-.2-.51-.53-.82-.59a45.38,45.38,0,0,1-11-4.43c-1.12-.87-2.27-1.71-3.37-2.61C16,36.75,14.08,25,20.63,15.64a33.58,33.58,0,0,1,8.2-7.71A55.56,55.56,0,0,1,40.61,3.21a49.39,49.39,0,0,1,16.63-.14C66.13,4.77,73.67,8.68,79.15,16.09ZM42,46.59a27.44,27.44,0,0,0,11.79.53A26.63,26.63,0,0,0,64,44.59a4.39,4.39,0,0,1,4.27.14c1.65.91,3.41,1.63,5.57,2.65a31,31,0,0,0-1.09-3.46c-1.16-2.55-.75-4.49,1.16-6.75,4.94-5.85,4.91-13.3.09-19.28C68.8,11.51,61.79,8.65,53.79,7.94a28.58,28.58,0,0,0-12.24.62,27.19,27.19,0,0,0-15.2,8.16C21.84,21.53,20.65,28,23.21,33.3a5.24,5.24,0,0,0,1.06,2.29C28.53,42,34.7,45.21,42,46.59Z"/><path class="cls-1" d="M28.64,47.05a45.38,45.38,0,0,0,11,4.43c.31.06.55.39.82.59a44.15,44.15,0,0,1-12.72.43A27.18,27.18,0,0,1,17,49.61c-1.84-1-3.8-1.77-5.71-2.64-.38-1-1.47-1.26-2.21-1.87-9.51-7.81-11.73-19.35-5.59-29,1.72-1.42,1.88-3,1-5.09-1-2.35-1.57-4.89-2.39-7.32A2.6,2.6,0,0,1,2.64.73,2.58,2.58,0,0,1,5.82.38c3,1.47,6,2.91,9,4.44A4.16,4.16,0,0,0,18.49,5,39.55,39.55,0,0,1,40.61,3.21,55.56,55.56,0,0,0,28.83,7.93a26.11,26.11,0,0,0-9.9,2.46,5,5,0,0,1-4.87-.21c-1.54-.88-3.22-1.54-5.17-2.45A14.33,14.33,0,0,0,9.51,10c1.61,3.2,1.18,5.74-1.27,8.65-4.19,5-4.23,11.75-.52,17.15C12.72,43.1,20.06,46.3,28.64,47.05Z"/><path class="cls-1" d="M53.79,7.94a38.14,38.14,0,0,1,7.05,6.2c8,9.86,6.33,22.64-4.09,30.79-1,.75-1.94,1.46-2.92,2.19A27.44,27.44,0,0,1,42,46.59c2.17-.85,4.42-1.55,6.5-2.58,4.77-2.36,8.85-5.52,10.9-10.69,2.64-5.38,1-11.36-2.85-16-4-4.79-9.16-7.34-15-8.8A28.58,28.58,0,0,1,53.79,7.94Z"/><path class="cls-1" d="M53.28,32.84c-6.4,8.61-17.48,8.6-24,0-.22-1.4.07-2.64,1.46-3.24s2.53.14,3.47,1.3a7.45,7.45,0,0,0,5.26,3,5.4,5.4,0,0,0,3.57,0,7.62,7.62,0,0,0,5.26-3c.95-1.16,2-1.95,3.48-1.3S53.5,31.44,53.28,32.84Z"/><path class="cls-1" d="M37.93,21.37a3.75,3.75,0,0,1-3.87,3.73,3.93,3.93,0,0,1-3.68-4,3.88,3.88,0,0,1,3.94-3.72A3.72,3.72,0,0,1,37.93,21.37Z"/><path class="cls-1" d="M52.05,21.39a3.58,3.58,0,0,1-3.77,3.71,3.88,3.88,0,0,1-3.61-4,3.8,3.8,0,0,1,3.9-3.69C50.69,17.47,52.08,19.06,52.05,21.39Z"/></g></g></svg>